%TF.GenerationSoftware,KiCad,Pcbnew,10.0.3*%
%TF.CreationDate,2026-06-28T22:02:17-04:00*%
%TF.ProjectId,shield,73686965-6c64-42e6-9b69-6361645f7063,rev?*%
%TF.SameCoordinates,Original*%
%TF.FileFunction,Copper,L2,Bot*%
%TF.FilePolarity,Positive*%
%FSLAX46Y46*%
G04 Gerber Fmt 4.6, Leading zero omitted, Abs format (unit mm)*
G04 Created by KiCad (PCBNEW 10.0.3) date 2026-06-28 22:02:17*
%MOMM*%
%LPD*%
G01*
G04 APERTURE LIST*
%TA.AperFunction,ComponentPad*%
%ADD10R,1.700000X1.700000*%
%TD*%
%TA.AperFunction,ComponentPad*%
%ADD11O,1.700000X1.700000*%
%TD*%
%TA.AperFunction,ComponentPad*%
%ADD12C,2.000000*%
%TD*%
%TA.AperFunction,ComponentPad*%
%ADD13C,1.700000*%
%TD*%
%TA.AperFunction,ComponentPad*%
%ADD14C,1.600000*%
%TD*%
%TA.AperFunction,ComponentPad*%
%ADD15C,1.508000*%
%TD*%
%TA.AperFunction,ComponentPad*%
%ADD16R,1.508000X1.508000*%
%TD*%
%TA.AperFunction,ComponentPad*%
%ADD17C,3.216000*%
%TD*%
%TA.AperFunction,ComponentPad*%
%ADD18R,1.800000X1.800000*%
%TD*%
%TA.AperFunction,ComponentPad*%
%ADD19C,1.800000*%
%TD*%
%TA.AperFunction,ComponentPad*%
%ADD20C,1.778000*%
%TD*%
%TA.AperFunction,ViaPad*%
%ADD21C,0.600000*%
%TD*%
%TA.AperFunction,Conductor*%
%ADD22C,0.250000*%
%TD*%
%TA.AperFunction,Conductor*%
%ADD23C,0.200000*%
%TD*%
G04 APERTURE END LIST*
D10*
%TO.P,J1,1,Pin_1_1*%
%TO.N,unconnected-(J1-Pin_1-Pad1)*%
X127940000Y-97460000D03*
D11*
%TO.P,J1,2,Pin_2_2*%
%TO.N,/IOREF*%
X130480000Y-97460000D03*
%TO.P,J1,3,Pin_3_3*%
%TO.N,/~{RESET}*%
X133020000Y-97460000D03*
%TO.P,J1,4,Pin_4_4*%
%TO.N,+3V3*%
X135560000Y-97460000D03*
%TO.P,J1,5,Pin_5_5*%
%TO.N,+5V*%
X138100000Y-97460000D03*
%TO.P,J1,6,Pin_6_6*%
%TO.N,GND*%
X140640000Y-97460000D03*
%TO.P,J1,7,Pin_7_7*%
X143180000Y-97460000D03*
%TO.P,J1,8,Pin_8_8*%
%TO.N,VCC*%
X145720000Y-97460000D03*
%TD*%
D10*
%TO.P,J3,1,Pin_1_1*%
%TO.N,/A0*%
X150800000Y-97460000D03*
D11*
%TO.P,J3,2,Pin_2_2*%
%TO.N,/A1*%
X153340000Y-97460000D03*
%TO.P,J3,3,Pin_3_3*%
%TO.N,/A2*%
X155880000Y-97460000D03*
%TO.P,J3,4,Pin_4_4*%
%TO.N,/A3*%
X158420000Y-97460000D03*
%TO.P,J3,5,Pin_5_5*%
%TO.N,/SDA*%
X160960000Y-97460000D03*
%TO.P,J3,6,Pin_6_6*%
%TO.N,/SCL*%
X163500000Y-97460000D03*
%TD*%
D10*
%TO.P,J2,1,Pin_1_1*%
%TO.N,/SCL*%
X118796000Y-49200000D03*
D11*
%TO.P,J2,2,Pin_2_2*%
%TO.N,/SDA*%
X121336000Y-49200000D03*
%TO.P,J2,3,Pin_3_3*%
%TO.N,/AREF*%
X123876000Y-49200000D03*
%TO.P,J2,4,Pin_4_4*%
%TO.N,GND*%
X126416000Y-49200000D03*
%TO.P,J2,5,Pin_5_5*%
%TO.N,/13*%
X128956000Y-49200000D03*
%TO.P,J2,6,Pin_6_6*%
%TO.N,/12*%
X131496000Y-49200000D03*
%TO.P,J2,7,Pin_7_7*%
%TO.N,/\u002A11*%
X134036000Y-49200000D03*
%TO.P,J2,8,Pin_8_8*%
%TO.N,/\u002A10*%
X136576000Y-49200000D03*
%TO.P,J2,9,Pin_9_9*%
%TO.N,/\u002A9*%
X139116000Y-49200000D03*
%TO.P,J2,10,Pin_10_10*%
%TO.N,/8*%
X141656000Y-49200000D03*
%TD*%
D10*
%TO.P,J4,1,Pin_1_1*%
%TO.N,/7*%
X145720000Y-49200000D03*
D11*
%TO.P,J4,2,Pin_2_2*%
%TO.N,/\u002A6*%
X148260000Y-49200000D03*
%TO.P,J4,3,Pin_3_3*%
%TO.N,/\u002A5*%
X150800000Y-49200000D03*
%TO.P,J4,4,Pin_4_4*%
%TO.N,/4*%
X153340000Y-49200000D03*
%TO.P,J4,5,Pin_5_5*%
%TO.N,/\u002A3*%
X155880000Y-49200000D03*
%TO.P,J4,6,Pin_6_6*%
%TO.N,/2*%
X158420000Y-49200000D03*
%TO.P,J4,7,Pin_7_7*%
%TO.N,/TX{slash}1*%
X160960000Y-49200000D03*
%TO.P,J4,8,Pin_8_8*%
%TO.N,/RX{slash}0*%
X163500000Y-49200000D03*
%TD*%
D12*
%TO.P,SW1,1,1_1*%
%TO.N,/~{RESET}*%
X168100000Y-37980000D03*
X174600000Y-37980000D03*
%TO.P,SW1,2,2_2*%
%TO.N,GND*%
X168100000Y-42480000D03*
X174600000Y-42480000D03*
%TD*%
D10*
%TO.P,MCP1,1,Pin_1_1*%
%TO.N,+5V*%
X92660000Y-108740000D03*
D13*
%TO.P,MCP1,2,Pin_2_2*%
%TO.N,GND*%
X92660000Y-106200000D03*
%TO.P,MCP1,3,Pin_3_3*%
%TO.N,/SCL*%
X92660000Y-103660000D03*
%TO.P,MCP1,4,Pin_4_4*%
%TO.N,/SDA*%
X92660000Y-101120000D03*
%TO.P,MCP1,5,Pin_5_5*%
%TO.N,unconnected-(MCP1-Pin_5-Pad5)*%
X92660000Y-98580000D03*
%TO.P,MCP1,6,Pin_6_6*%
%TO.N,unconnected-(MCP1-Pin_6-Pad6)*%
X92660000Y-96040000D03*
%TO.P,MCP1,7,Pin_7_7*%
%TO.N,unconnected-(MCP1-Pin_7-Pad7)*%
X92660000Y-93500000D03*
%TO.P,MCP1,8,Pin_8_8*%
%TO.N,unconnected-(MCP1-Pin_8-Pad8)*%
X92660000Y-90960000D03*
%TD*%
D14*
%TO.P,R2,1*%
%TO.N,/7*%
X166815000Y-33340000D03*
%TO.P,R2,2*%
%TO.N,Net-(D2-A)*%
X174435000Y-33340000D03*
%TD*%
D15*
%TO.P,LoRA1,JP1_1,G1_JP1_1*%
%TO.N,unconnected-(LoRA1-G1-PadJP1_1)*%
X135795000Y-77484000D03*
%TO.P,LoRA1,JP1_2,G2_JP1_2*%
%TO.N,unconnected-(LoRA1-G2-PadJP1_2)*%
X135795000Y-74944000D03*
%TO.P,LoRA1,JP1_3,G3_JP1_3*%
%TO.N,unconnected-(LoRA1-G3-PadJP1_3)*%
X135795000Y-72404000D03*
%TO.P,LoRA1,JP1_4,G4_JP1_4*%
%TO.N,unconnected-(LoRA1-G4-PadJP1_4)*%
X135795000Y-69864000D03*
%TO.P,LoRA1,JP1_5,G5_JP1_5*%
%TO.N,unconnected-(LoRA1-G5-PadJP1_5)*%
X135795000Y-67324000D03*
%TO.P,LoRA1,JP3_1,VIN_JP3_1*%
%TO.N,+5V*%
X161195000Y-77484000D03*
%TO.P,LoRA1,JP3_2,GND_JP3_2*%
%TO.N,GND*%
X161195000Y-74944000D03*
%TO.P,LoRA1,JP3_3,EN_JP3_3*%
%TO.N,unconnected-(LoRA1-EN-PadJP3_3)*%
X161195000Y-72404000D03*
%TO.P,LoRA1,JP3_4,G0_JP3_4*%
%TO.N,/\u002A3*%
X161195000Y-69864000D03*
%TO.P,LoRA1,JP3_5,SCK_JP3_5*%
%TO.N,/13*%
X161195000Y-67324000D03*
%TO.P,LoRA1,JP3_6,MISO_JP3_6*%
%TO.N,/12*%
X161195000Y-64784000D03*
%TO.P,LoRA1,JP3_7,MOSI_JP3_7*%
%TO.N,/\u002A11*%
X161195000Y-62244000D03*
%TO.P,LoRA1,JP3_8,~{CS}_JP3_8*%
%TO.N,/4*%
X161195000Y-59704000D03*
%TO.P,LoRA1,JP3_9,RST_JP3_9*%
%TO.N,/2*%
X161195000Y-57164000D03*
%TD*%
D16*
%TO.P,BMP1,1,VIN_1*%
%TO.N,+5V*%
X115620000Y-72435000D03*
D15*
%TO.P,BMP1,2,3VO_2*%
%TO.N,unconnected-(BMP1-3VO-Pad2)*%
X118160000Y-72435000D03*
%TO.P,BMP1,3,GND_3*%
%TO.N,GND*%
X120700000Y-72435000D03*
%TO.P,BMP1,4,SCK_4*%
%TO.N,/SCL*%
X123240000Y-72435000D03*
%TO.P,BMP1,5,SDO_5*%
%TO.N,unconnected-(BMP1-SDO-Pad5)*%
X125780000Y-72435000D03*
%TO.P,BMP1,6,SDI_6*%
%TO.N,/SDA*%
X128320000Y-72435000D03*
%TO.P,BMP1,7,CS_7*%
%TO.N,unconnected-(BMP1-CS-Pad7)*%
X130860000Y-72435000D03*
D17*
%TO.P,BMP1,P1*%
%TO.N,N/C*%
X116890000Y-58465000D03*
%TO.P,BMP1,P2*%
X129590000Y-58465000D03*
%TD*%
D18*
%TO.P,D2,1,K_1*%
%TO.N,GND*%
X160110000Y-29040000D03*
D19*
%TO.P,D2,2,A_2*%
%TO.N,Net-(D2-A)*%
X162650000Y-29040000D03*
%TD*%
D20*
%TO.P,AS7343,1,Pin_1_1*%
%TO.N,+5V*%
X110580000Y-56980000D03*
%TO.P,AS7343,2,Pin_2_2*%
%TO.N,GND*%
X110580000Y-54440000D03*
%TO.P,AS7343,3,Pin_3_3*%
%TO.N,/SCL*%
X110580000Y-51900000D03*
%TO.P,AS7343,4,Pin_4_4*%
%TO.N,/SDA*%
X110580000Y-49360000D03*
%TO.P,AS7343,5,Pin_5_5*%
%TO.N,unconnected-(AS7343-Pin_5-Pad5)*%
X110580000Y-46820000D03*
%TO.P,AS7343,6,Pin_6_6*%
%TO.N,unconnected-(AS7343-Pin_6-Pad6)*%
X110580000Y-44280000D03*
%TO.P,AS7343,7*%
%TO.N,N/C*%
X110580000Y-41740000D03*
%TD*%
D18*
%TO.P,d1,1,K_1*%
%TO.N,GND*%
X160225000Y-38470000D03*
D19*
%TO.P,d1,2,A_2*%
%TO.N,Net-(d1-A)*%
X162765000Y-38470000D03*
%TD*%
D14*
%TO.P,R1,1*%
%TO.N,+5V*%
X166815000Y-29290000D03*
%TO.P,R1,2*%
%TO.N,Net-(d1-A)*%
X174435000Y-29290000D03*
%TD*%
D20*
%TO.P,BFF1,1,Pin_1_1*%
%TO.N,unconnected-(BFF1-Pin_1-Pad1)*%
X93430000Y-68540000D03*
%TO.P,BFF1,2,Pin_2_2*%
%TO.N,GND*%
X93430000Y-71080000D03*
%TO.P,BFF1,3,Pin_3_3*%
%TO.N,+3V3*%
X93430000Y-73620000D03*
%TO.P,BFF1,4,Pin_4_4*%
%TO.N,unconnected-(BFF1-Pin_4-Pad4)*%
X93430000Y-76160000D03*
%TO.P,BFF1,5,Pin_5_5*%
%TO.N,unconnected-(BFF1-Pin_5-Pad5)*%
X93430000Y-78700000D03*
%TO.P,BFF1,6,Pin_6_6*%
%TO.N,unconnected-(BFF1-Pin_6-Pad6)*%
X93430000Y-81240000D03*
%TO.P,BFF1,7,Pin_7_7*%
%TO.N,unconnected-(BFF1-Pin_7-Pad7)*%
X93430000Y-83780000D03*
%TO.P,BFF1,8,Pin_8_8*%
%TO.N,unconnected-(BFF1-Pin_8-Pad8)*%
X108205000Y-68443600D03*
%TO.P,BFF1,9,Pin_9_9*%
%TO.N,/SCL*%
X108205000Y-70983600D03*
%TO.P,BFF1,10,Pin_10_10*%
%TO.N,/SDA*%
X108205000Y-73523600D03*
%TO.P,BFF1,11,Pin_11_11*%
%TO.N,unconnected-(BFF1-Pin_11-Pad11)*%
X108205000Y-76063600D03*
%TO.P,BFF1,12,Pin_12_12*%
%TO.N,unconnected-(BFF1-Pin_12-Pad12)*%
X108205000Y-78603600D03*
%TO.P,BFF1,13,Pin_13_13*%
%TO.N,unconnected-(BFF1-Pin_13-Pad13)*%
X108205000Y-81143600D03*
%TO.P,BFF1,14,Pin_14_14*%
%TO.N,unconnected-(BFF1-Pin_14-Pad14)*%
X108205000Y-83683600D03*
%TD*%
D21*
%TO.N,/\u002A3*%
X161820000Y-53150000D03*
%TD*%
%TO.N,+3V3*%
D22*
X135560000Y-97460000D02*
X122330000Y-110690000D01*
X122330000Y-110690000D02*
X89910000Y-110690000D01*
X89910000Y-110690000D02*
X89910000Y-76658600D01*
X89910000Y-76658600D02*
X93045000Y-73523600D01*
%TO.N,+5V*%
X161195000Y-77484000D02*
X169894000Y-77484000D01*
X161195000Y-77484000D02*
X166470000Y-72209000D01*
X110077144Y-50686000D02*
X109366000Y-51397144D01*
X109366000Y-55766000D02*
X110580000Y-56980000D01*
X169894000Y-77484000D02*
X171230000Y-78820000D01*
X113820000Y-70635000D02*
X113820000Y-51753604D01*
X113820000Y-51753604D02*
X112752396Y-50686000D01*
X166470000Y-72209000D02*
X166470000Y-70900000D01*
X166470000Y-70900000D02*
X171230000Y-66140000D01*
X115570000Y-72385000D02*
X115570000Y-72320000D01*
X171230000Y-103080000D02*
X143720000Y-103080000D01*
X171230000Y-75510000D02*
X171230000Y-78820000D01*
X171230000Y-33705000D02*
X171230000Y-66140000D01*
X171230000Y-78820000D02*
X171230000Y-103080000D01*
X166815000Y-29290000D02*
X171230000Y-33705000D01*
X143720000Y-103080000D02*
X138100000Y-97460000D01*
X115620000Y-72435000D02*
X113820000Y-70635000D01*
X109366000Y-51397144D02*
X109366000Y-55766000D01*
X171230000Y-66140000D02*
X171230000Y-75510000D01*
X115620000Y-72435000D02*
X115570000Y-72385000D01*
X112752396Y-50686000D02*
X110077144Y-50686000D01*
%TO.N,GND*%
D23*
X118390000Y-54210000D02*
X121406000Y-54210000D01*
X121406000Y-54210000D02*
X126416000Y-49200000D01*
X110580000Y-54440000D02*
X112344441Y-54440000D01*
X112344441Y-54440000D02*
X112395000Y-54389441D01*
%TO.N,/SCL*%
D22*
X118600000Y-75310000D02*
X118600000Y-87330000D01*
X113370000Y-51940000D02*
X113370000Y-65818600D01*
X118600000Y-87330000D02*
X153370000Y-87330000D01*
X118600000Y-75310000D02*
X112290000Y-75310000D01*
X112290000Y-66940000D02*
X112269300Y-66919300D01*
X113330000Y-51900000D02*
X113370000Y-51940000D01*
X112290000Y-75310000D02*
X112290000Y-66940000D01*
X110580000Y-51900000D02*
X113330000Y-51900000D01*
X109650000Y-87330000D02*
X118600000Y-87330000D01*
X153370000Y-87330000D02*
X163500000Y-97460000D01*
X123240000Y-72435000D02*
X120365000Y-75310000D01*
X113370000Y-65818600D02*
X112269300Y-66919300D01*
X112269300Y-66919300D02*
X108205000Y-70983600D01*
X93320000Y-103660000D02*
X109650000Y-87330000D01*
X120365000Y-75310000D02*
X118600000Y-75310000D01*
%TO.N,/13*%
D23*
X134256000Y-43900000D02*
X128956000Y-49200000D01*
X167406000Y-67324000D02*
X169620000Y-65110000D01*
X169620000Y-47280000D02*
X166240000Y-43900000D01*
X161195000Y-67324000D02*
X167406000Y-67324000D01*
X166240000Y-43900000D02*
X134256000Y-43900000D01*
X169620000Y-65110000D02*
X169620000Y-47280000D01*
%TO.N,/12*%
X168520000Y-47540000D02*
X165470000Y-44490000D01*
X168520000Y-57459000D02*
X168520000Y-47540000D01*
X161195000Y-64784000D02*
X168520000Y-57459000D01*
X136206000Y-44490000D02*
X131496000Y-49200000D01*
X165470000Y-44490000D02*
X136206000Y-44490000D01*
%TO.N,/\u002A11*%
X138066000Y-45170000D02*
X134036000Y-49200000D01*
X164980000Y-45170000D02*
X138066000Y-45170000D01*
X161195000Y-62244000D02*
X167690000Y-55749000D01*
X167690000Y-47880000D02*
X164980000Y-45170000D01*
X167690000Y-55749000D02*
X167690000Y-47880000D01*
%TO.N,/4*%
X166780000Y-54119000D02*
X166780000Y-48470000D01*
X156790000Y-45750000D02*
X153340000Y-49200000D01*
X166780000Y-48470000D02*
X164060000Y-45750000D01*
X161195000Y-59704000D02*
X166780000Y-54119000D01*
X164060000Y-45750000D02*
X156790000Y-45750000D01*
%TO.N,/\u002A3*%
X159830000Y-53150000D02*
X155880000Y-49200000D01*
X161820000Y-53150000D02*
X159830000Y-53150000D01*
%TO.N,Net-(D2-A)*%
D22*
X162650000Y-29040000D02*
X162650000Y-29030000D01*
X162650000Y-29030000D02*
X162550000Y-28930000D01*
%TD*%
%TA.AperFunction,Conductor*%
%TO.N,GND*%
G36*
X142714075Y-97267007D02*
G01*
X142680000Y-97394174D01*
X142680000Y-97525826D01*
X142714075Y-97652993D01*
X142746988Y-97710000D01*
X141073012Y-97710000D01*
X141105925Y-97652993D01*
X141140000Y-97525826D01*
X141140000Y-97394174D01*
X141105925Y-97267007D01*
X141073012Y-97210000D01*
X142746988Y-97210000D01*
X142714075Y-97267007D01*
G37*
%TD.AperFunction*%
%TA.AperFunction,Conductor*%
G36*
X113105834Y-67081184D02*
G01*
X113161767Y-67123056D01*
X113186184Y-67188520D01*
X113186500Y-67197366D01*
X113186500Y-70697398D01*
X113210843Y-70819777D01*
X113210845Y-70819785D01*
X113258598Y-70935072D01*
X113258603Y-70935081D01*
X113327928Y-71038832D01*
X113327931Y-71038836D01*
X114321181Y-72032085D01*
X114354666Y-72093408D01*
X114357500Y-72119766D01*
X114357500Y-73237654D01*
X114364011Y-73298202D01*
X114364011Y-73298204D01*
X114401226Y-73397978D01*
X114415111Y-73435204D01*
X114502739Y-73552261D01*
X114619796Y-73639889D01*
X114756799Y-73690989D01*
X114784050Y-73693918D01*
X114817345Y-73697499D01*
X114817362Y-73697500D01*
X116422638Y-73697500D01*
X116422654Y-73697499D01*
X116449692Y-73694591D01*
X116483201Y-73690989D01*
X116620204Y-73639889D01*
X116737261Y-73552261D01*
X116824889Y-73435204D01*
X116875989Y-73298201D01*
X116879591Y-73264692D01*
X116882499Y-73237654D01*
X116882500Y-73237637D01*
X116882500Y-73206198D01*
X116902185Y-73139159D01*
X116954989Y-73093404D01*
X117024147Y-73083460D01*
X117087703Y-73112485D01*
X117106818Y-73133313D01*
X117182626Y-73237654D01*
X117197019Y-73257464D01*
X117337536Y-73397981D01*
X117498306Y-73514787D01*
X117571851Y-73552260D01*
X117675367Y-73605005D01*
X117675370Y-73605006D01*
X117763332Y-73633586D01*
X117864364Y-73666413D01*
X118060639Y-73697500D01*
X118060640Y-73697500D01*
X118259360Y-73697500D01*
X118259361Y-73697500D01*
X118455636Y-73666413D01*
X118644632Y-73605005D01*
X118821694Y-73514787D01*
X118982464Y-73397981D01*
X119122981Y-73257464D01*
X119239787Y-73096694D01*
X119324286Y-72930855D01*
X119372258Y-72880062D01*
X119440079Y-72863267D01*
X119506214Y-72885804D01*
X119545253Y-72930857D01*
X119627481Y-73092236D01*
X119653457Y-73127988D01*
X119653457Y-73127989D01*
X120217037Y-72564409D01*
X120234075Y-72627993D01*
X120299901Y-72742007D01*
X120392993Y-72835099D01*
X120507007Y-72900925D01*
X120570590Y-72917962D01*
X120007009Y-73481541D01*
X120007010Y-73481542D01*
X120042755Y-73507512D01*
X120042768Y-73507520D01*
X120218626Y-73597126D01*
X120406353Y-73658123D01*
X120601303Y-73689000D01*
X120790733Y-73689000D01*
X120857772Y-73708685D01*
X120903527Y-73761489D01*
X120913471Y-73830647D01*
X120884446Y-73894203D01*
X120878414Y-73900681D01*
X120138915Y-74640181D01*
X120077592Y-74673666D01*
X120051234Y-74676500D01*
X113047500Y-74676500D01*
X112980461Y-74656815D01*
X112934706Y-74604011D01*
X112923500Y-74552500D01*
X112923500Y-67212366D01*
X112932144Y-67182925D01*
X112938668Y-67152939D01*
X112942422Y-67147923D01*
X112943185Y-67145327D01*
X112959819Y-67124685D01*
X112974819Y-67109685D01*
X113036142Y-67076200D01*
X113105834Y-67081184D01*
G37*
%TD.AperFunction*%
%TA.AperFunction,Conductor*%
G36*
X177747539Y-23205185D02*
G01*
X177793294Y-23257989D01*
X177804500Y-23309500D01*
X177804500Y-113750500D01*
X177784815Y-113817539D01*
X177732011Y-113863294D01*
X177680500Y-113874500D01*
X87839500Y-113874500D01*
X87772461Y-113854815D01*
X87726706Y-113802011D01*
X87715500Y-113750500D01*
X87715500Y-76596201D01*
X89276500Y-76596201D01*
X89276500Y-110752398D01*
X89300843Y-110874777D01*
X89300845Y-110874785D01*
X89348598Y-110990072D01*
X89348603Y-110990081D01*
X89417928Y-111093832D01*
X89417931Y-111093836D01*
X89506163Y-111182068D01*
X89506167Y-111182071D01*
X89609918Y-111251396D01*
X89609924Y-111251399D01*
X89609925Y-111251400D01*
X89725215Y-111299155D01*
X89847601Y-111323499D01*
X89847605Y-111323500D01*
X89847606Y-111323500D01*
X122392395Y-111323500D01*
X122392396Y-111323499D01*
X122514785Y-111299155D01*
X122630075Y-111251400D01*
X122733833Y-111182071D01*
X135104353Y-98811549D01*
X135165674Y-98778066D01*
X135230348Y-98781300D01*
X135241884Y-98785049D01*
X135453084Y-98818500D01*
X135453085Y-98818500D01*
X135666915Y-98818500D01*
X135666916Y-98818500D01*
X135878116Y-98785049D01*
X136081483Y-98718972D01*
X136272009Y-98621894D01*
X136445004Y-98496206D01*
X136596206Y-98345004D01*
X136721894Y-98172009D01*
X136721896Y-98172004D01*
X136724270Y-98168132D01*
X136776080Y-98121254D01*
X136845009Y-98109829D01*
X136909173Y-98137483D01*
X136935730Y-98168132D01*
X136938103Y-98172005D01*
X136938105Y-98172008D01*
X136938106Y-98172009D01*
X137063794Y-98345004D01*
X137214996Y-98496206D01*
X137387991Y-98621894D01*
X137481438Y-98669507D01*
X137578516Y-98718972D01*
X137578519Y-98718973D01*
X137680200Y-98752010D01*
X137781884Y-98785049D01*
X137993084Y-98818500D01*
X137993085Y-98818500D01*
X138206915Y-98818500D01*
X138206916Y-98818500D01*
X138418116Y-98785049D01*
X138429648Y-98781301D01*
X138499485Y-98779305D01*
X138555647Y-98811551D01*
X143316163Y-103572068D01*
X143316167Y-103572071D01*
X143419918Y-103641396D01*
X143419924Y-103641399D01*
X143419925Y-103641400D01*
X143535215Y-103689155D01*
X143657601Y-103713499D01*
X143657605Y-103713500D01*
X143657606Y-103713500D01*
X171292395Y-103713500D01*
X171292396Y-103713499D01*
X171414785Y-103689155D01*
X171530075Y-103641400D01*
X171633833Y-103572071D01*
X171722071Y-103483833D01*
X171791400Y-103380075D01*
X171839155Y-103264785D01*
X171863500Y-103142394D01*
X171863500Y-78757606D01*
X171863500Y-75447606D01*
X171863500Y-66077606D01*
X171863500Y-42361947D01*
X173100000Y-42361947D01*
X173100000Y-42598052D01*
X173136934Y-42831247D01*
X173209897Y-43055802D01*
X173317087Y-43266174D01*
X173377338Y-43349104D01*
X173377340Y-43349105D01*
X174076212Y-42650233D01*
X174087482Y-42692292D01*
X174159890Y-42817708D01*
X174262292Y-42920110D01*
X174387708Y-42992518D01*
X174429765Y-43003787D01*
X173730893Y-43702658D01*
X173813828Y-43762914D01*
X174024197Y-43870102D01*
X174248752Y-43943065D01*
X174248751Y-43943065D01*
X174481948Y-43980000D01*
X174718052Y-43980000D01*
X174951247Y-43943065D01*
X175175802Y-43870102D01*
X175386163Y-43762918D01*
X175386169Y-43762914D01*
X175469104Y-43702658D01*
X175469105Y-43702658D01*
X174770233Y-43003787D01*
X174812292Y-42992518D01*
X174937708Y-42920110D01*
X175040110Y-42817708D01*
X175112518Y-42692292D01*
X175123787Y-42650233D01*
X175822658Y-43349105D01*
X175822658Y-43349104D01*
X175882914Y-43266169D01*
X175882918Y-43266163D01*
X175990102Y-43055802D01*
X176063065Y-42831247D01*
X176100000Y-42598052D01*
X176100000Y-42361947D01*
X176063065Y-42128752D01*
X175990102Y-41904197D01*
X175882914Y-41693828D01*
X175822658Y-41610894D01*
X175822658Y-41610893D01*
X175123787Y-42309765D01*
X175112518Y-42267708D01*
X175040110Y-42142292D01*
X174937708Y-42039890D01*
X174812292Y-41967482D01*
X174770234Y-41956212D01*
X175469105Y-41257340D01*
X175469104Y-41257338D01*
X175386174Y-41197087D01*
X175175802Y-41089897D01*
X174951247Y-41016934D01*
X174951248Y-41016934D01*
X174718052Y-40980000D01*
X174481948Y-40980000D01*
X174248752Y-41016934D01*
X174024197Y-41089897D01*
X173813830Y-41197084D01*
X173730894Y-41257340D01*
X174429766Y-41956212D01*
X174387708Y-41967482D01*
X174262292Y-42039890D01*
X174159890Y-42142292D01*
X174087482Y-42267708D01*
X174076212Y-42309766D01*
X173377340Y-41610894D01*
X173317084Y-41693830D01*
X173209897Y-41904197D01*
X173136934Y-42128752D01*
X173100000Y-42361947D01*
X171863500Y-42361947D01*
X171863500Y-37861272D01*
X173091500Y-37861272D01*
X173091500Y-38098727D01*
X173128643Y-38333241D01*
X173202019Y-38559067D01*
X173284019Y-38720000D01*
X173309815Y-38770627D01*
X173449380Y-38962722D01*
X173617278Y-39130620D01*
X173809373Y-39270185D01*
X173909328Y-39321114D01*
X174020932Y-39377980D01*
X174020934Y-39377980D01*
X174020937Y-39377982D01*
X174134205Y-39414785D01*
X174246758Y-39451356D01*
X174481273Y-39488500D01*
X174481278Y-39488500D01*
X174718727Y-39488500D01*
X174953241Y-39451356D01*
X175179063Y-39377982D01*
X175390627Y-39270185D01*
X175582722Y-39130620D01*
X175750620Y-38962722D01*
X175890185Y-38770627D01*
X175997982Y-38559063D01*
X176071356Y-38333241D01*
X176089292Y-38220000D01*
X176108500Y-38098727D01*
X176108500Y-37861272D01*
X176071356Y-37626758D01*
X175997980Y-37400932D01*
X175941114Y-37289328D01*
X175890185Y-37189373D01*
X175750620Y-36997278D01*
X175582722Y-36829380D01*
X175390627Y-36689815D01*
X175179067Y-36582019D01*
X174953241Y-36508643D01*
X174718727Y-36471500D01*
X174718722Y-36471500D01*
X174481278Y-36471500D01*
X174481273Y-36471500D01*
X174246758Y-36508643D01*
X174020932Y-36582019D01*
X173809372Y-36689815D01*
X173617275Y-36829382D01*
X173449382Y-36997275D01*
X173309815Y-37189372D01*
X173202019Y-37400932D01*
X173128643Y-37626758D01*
X173091500Y-37861272D01*
X171863500Y-37861272D01*
X171863500Y-33642606D01*
X171839155Y-33520215D01*
X171791400Y-33404925D01*
X171791399Y-33404924D01*
X171791396Y-33404918D01*
X171757768Y-33354591D01*
X171722071Y-33301167D01*
X171657923Y-33237019D01*
X173126500Y-33237019D01*
X173126500Y-33442980D01*
X173158719Y-33646408D01*
X173222367Y-33842294D01*
X173286115Y-33967404D01*
X173312285Y-34018766D01*
X173315873Y-34025806D01*
X173436926Y-34192423D01*
X173436930Y-34192428D01*
X173582571Y-34338069D01*
X173582576Y-34338073D01*
X173727908Y-34443661D01*
X173749197Y-34459129D01*
X173866128Y-34518709D01*
X173932705Y-34552632D01*
X173932707Y-34552632D01*
X173932710Y-34552634D01*
X174037707Y-34586749D01*
X174128591Y-34616280D01*
X174230305Y-34632390D01*
X174332019Y-34648500D01*
X174332020Y-34648500D01*
X174537980Y-34648500D01*
X174537981Y-34648500D01*
X174741408Y-34616280D01*
X174937290Y-34552634D01*
X175120803Y-34459129D01*
X175287430Y-34338068D01*
X175433068Y-34192430D01*
X175554129Y-34025803D01*
X175647634Y-33842290D01*
X175711280Y-33646408D01*
X175743500Y-33442981D01*
X175743500Y-33237019D01*
X175711280Y-33033592D01*
X175647634Y-32837710D01*
X175647632Y-32837707D01*
X175647632Y-32837705D01*
X175613709Y-32771128D01*
X175554129Y-32654197D01*
X175538661Y-32632908D01*
X175433073Y-32487576D01*
X175433069Y-32487571D01*
X175287428Y-32341930D01*
X175287423Y-32341926D01*
X175120806Y-32220873D01*
X175120805Y-32220872D01*
X175120803Y-32220871D01*
X175063496Y-32191671D01*
X174937294Y-32127367D01*
X174741408Y-32063719D01*
X174565794Y-32035905D01*
X174537981Y-32031500D01*
X174332019Y-32031500D01*
X174307550Y-32035375D01*
X174128591Y-32063719D01*
X173932705Y-32127367D01*
X173749193Y-32220873D01*
X173582576Y-32341926D01*
X173582571Y-32341930D01*
X173436930Y-32487571D01*
X173436926Y-32487576D01*
X173315873Y-32654193D01*
X173222367Y-32837705D01*
X173158719Y-33033591D01*
X173126500Y-33237019D01*
X171657923Y-33237019D01*
X171633833Y-33212929D01*
X168125842Y-29704938D01*
X168092357Y-29643615D01*
X168091050Y-29597859D01*
X168108134Y-29490000D01*
X168123500Y-29392981D01*
X168123500Y-29187019D01*
X173126500Y-29187019D01*
X173126500Y-29392980D01*
X173158719Y-29596408D01*
X173222367Y-29792294D01*
X173286671Y-29918496D01*
X173306584Y-29957577D01*
X173315873Y-29975806D01*
X173436926Y-30142423D01*
X173436930Y-30142428D01*
X173582571Y-30288069D01*
X173582576Y-30288073D01*
X173727908Y-30393661D01*
X173749197Y-30409129D01*
X173826467Y-30448500D01*
X173932705Y-30502632D01*
X173932707Y-30502632D01*
X173932710Y-30502634D01*
X174037707Y-30536749D01*
X174128591Y-30566280D01*
X174230305Y-30582390D01*
X174332019Y-30598500D01*
X174332020Y-30598500D01*
X174537980Y-30598500D01*
X174537981Y-30598500D01*
X174741408Y-30566280D01*
X174937290Y-30502634D01*
X175120803Y-30409129D01*
X175287430Y-30288068D01*
X175433068Y-30142430D01*
X175554129Y-29975803D01*
X175647634Y-29792290D01*
X175711280Y-29596408D01*
X175743500Y-29392981D01*
X175743500Y-29187019D01*
X175711280Y-28983591D01*
X175647632Y-28787705D01*
X175592707Y-28679910D01*
X175554129Y-28604197D01*
X175477931Y-28499319D01*
X175433073Y-28437576D01*
X175433069Y-28437571D01*
X175287428Y-28291930D01*
X175287423Y-28291926D01*
X175120806Y-28170873D01*
X175120805Y-28170872D01*
X175120803Y-28170871D01*
X175025721Y-28122424D01*
X174937294Y-28077367D01*
X174741408Y-28013719D01*
X174565794Y-27985905D01*
X174537981Y-27981500D01*
X174332019Y-27981500D01*
X174307550Y-27985375D01*
X174128591Y-28013719D01*
X173932705Y-28077367D01*
X173749193Y-28170873D01*
X173582576Y-28291926D01*
X173582571Y-28291930D01*
X173436930Y-28437571D01*
X173436926Y-28437576D01*
X173315873Y-28604193D01*
X173222367Y-28787705D01*
X173158719Y-28983591D01*
X173126500Y-29187019D01*
X168123500Y-29187019D01*
X168091280Y-28983591D01*
X168027632Y-28787705D01*
X167972707Y-28679910D01*
X167934129Y-28604197D01*
X167857931Y-28499319D01*
X167813073Y-28437576D01*
X167813069Y-28437571D01*
X167667428Y-28291930D01*
X167667423Y-28291926D01*
X167500806Y-28170873D01*
X167500805Y-28170872D01*
X167500803Y-28170871D01*
X167405721Y-28122424D01*
X167317294Y-28077367D01*
X167121408Y-28013719D01*
X166945794Y-27985905D01*
X166917981Y-27981500D01*
X166712019Y-27981500D01*
X166687550Y-27985375D01*
X166508591Y-28013719D01*
X166312705Y-28077367D01*
X166129193Y-28170873D01*
X165962576Y-28291926D01*
X165962571Y-28291930D01*
X165816930Y-28437571D01*
X165816926Y-28437576D01*
X165695873Y-28604193D01*
X165602367Y-28787705D01*
X165538719Y-28983591D01*
X165506500Y-29187019D01*
X165506500Y-29392980D01*
X165538719Y-29596408D01*
X165602367Y-29792294D01*
X165666671Y-29918496D01*
X165686584Y-29957577D01*
X165695873Y-29975806D01*
X165816926Y-30142423D01*
X165816930Y-30142428D01*
X165962571Y-30288069D01*
X165962576Y-30288073D01*
X166107908Y-30393661D01*
X166129197Y-30409129D01*
X166206467Y-30448500D01*
X166312705Y-30502632D01*
X166312707Y-30502632D01*
X166312710Y-30502634D01*
X166417707Y-30536749D01*
X166508591Y-30566280D01*
X166610305Y-30582390D01*
X166712019Y-30598500D01*
X166712020Y-30598500D01*
X166917980Y-30598500D01*
X166917981Y-30598500D01*
X167121408Y-30566280D01*
X167121409Y-30566279D01*
X167122859Y-30566050D01*
X167192152Y-30575004D01*
X167229938Y-30600842D01*
X170560181Y-33931085D01*
X170593666Y-33992408D01*
X170596500Y-34018766D01*
X170596500Y-65826233D01*
X170576815Y-65893272D01*
X170560181Y-65913914D01*
X168261346Y-68212750D01*
X166066167Y-70407929D01*
X166026955Y-70447141D01*
X165977927Y-70496168D01*
X165908603Y-70599918D01*
X165908598Y-70599927D01*
X165860845Y-70715214D01*
X165860843Y-70715222D01*
X165836500Y-70837601D01*
X165836500Y-71895232D01*
X165816815Y-71962271D01*
X165800181Y-71982913D01*
X162660681Y-75122413D01*
X162599358Y-75155898D01*
X162529666Y-75150914D01*
X162473733Y-75109042D01*
X162449316Y-75043578D01*
X162449000Y-75034732D01*
X162449000Y-74845302D01*
X162418123Y-74650353D01*
X162357126Y-74462626D01*
X162267520Y-74286768D01*
X162267512Y-74286755D01*
X162241542Y-74251010D01*
X162241541Y-74251009D01*
X161677962Y-74814590D01*
X161660925Y-74751007D01*
X161595099Y-74636993D01*
X161502007Y-74543901D01*
X161387993Y-74478075D01*
X161324409Y-74461037D01*
X161887989Y-73897457D01*
X161852236Y-73871481D01*
X161690857Y-73789253D01*
X161640062Y-73741279D01*
X161623267Y-73673458D01*
X161645805Y-73607323D01*
X161690855Y-73568286D01*
X161856694Y-73483787D01*
X162017464Y-73366981D01*
X162157981Y-73226464D01*
X162274787Y-73065694D01*
X162365005Y-72888632D01*
X162426413Y-72699636D01*
X162457500Y-72503361D01*
X162457500Y-72304639D01*
X162426413Y-72108364D01*
X162393391Y-72006732D01*
X162365006Y-71919370D01*
X162365005Y-71919367D01*
X162290582Y-71773305D01*
X162274787Y-71742306D01*
X162157981Y-71581536D01*
X162017464Y-71441019D01*
X161856694Y-71324213D01*
X161700218Y-71244484D01*
X161649423Y-71196510D01*
X161632628Y-71128689D01*
X161655165Y-71062554D01*
X161700218Y-71023515D01*
X161856694Y-70943787D01*
X162017464Y-70826981D01*
X162157981Y-70686464D01*
X162274787Y-70525694D01*
X162365005Y-70348632D01*
X162426413Y-70159636D01*
X162457500Y-69963361D01*
X162457500Y-69764639D01*
X162426413Y-69568364D01*
X162365005Y-69379368D01*
X162365005Y-69379367D01*
X162274786Y-69202305D01*
X162183350Y-69076454D01*
X162157981Y-69041536D01*
X162017464Y-68901019D01*
X161856694Y-68784213D01*
X161700218Y-68704484D01*
X161649423Y-68656510D01*
X161632628Y-68588689D01*
X161655165Y-68522554D01*
X161700218Y-68483515D01*
X161856694Y-68403787D01*
X162017464Y-68286981D01*
X162157981Y-68146464D01*
X162261817Y-68003546D01*
X162276298Y-67983615D01*
X162331628Y-67940949D01*
X162376616Y-67932500D01*
X167486109Y-67932500D01*
X167486110Y-67932500D01*
X167486111Y-67932500D01*
X167580734Y-67907146D01*
X167640873Y-67891032D01*
X167779627Y-67810922D01*
X170106922Y-65483627D01*
X170187032Y-65344872D01*
X170209317Y-65261704D01*
X170228500Y-65190111D01*
X170228500Y-47199889D01*
X170187032Y-47045128D01*
X170106922Y-46906373D01*
X167146683Y-43946134D01*
X167113198Y-43884811D01*
X167118182Y-43815119D01*
X167160054Y-43759186D01*
X167225518Y-43734769D01*
X167293791Y-43749621D01*
X167307250Y-43758135D01*
X167313828Y-43762914D01*
X167524197Y-43870102D01*
X167748752Y-43943065D01*
X167748751Y-43943065D01*
X167981948Y-43980000D01*
X168218052Y-43980000D01*
X168451247Y-43943065D01*
X168675802Y-43870102D01*
X168886163Y-43762918D01*
X168886169Y-43762914D01*
X168969104Y-43702658D01*
X168969105Y-43702658D01*
X168270233Y-43003787D01*
X168312292Y-42992518D01*
X168437708Y-42920110D01*
X168540110Y-42817708D01*
X168612518Y-42692292D01*
X168623787Y-42650234D01*
X169322658Y-43349105D01*
X169322658Y-43349104D01*
X169382914Y-43266169D01*
X169382918Y-43266163D01*
X169490102Y-43055802D01*
X169563065Y-42831247D01*
X169600000Y-42598052D01*
X169600000Y-42361947D01*
X169563065Y-42128752D01*
X169490102Y-41904197D01*
X169382914Y-41693828D01*
X169322658Y-41610894D01*
X169322658Y-41610893D01*
X168623787Y-42309765D01*
X168612518Y-42267708D01*
X168540110Y-42142292D01*
X168437708Y-42039890D01*
X168312292Y-41967482D01*
X168270234Y-41956212D01*
X168969105Y-41257340D01*
X168969104Y-41257338D01*
X168886174Y-41197087D01*
X168675802Y-41089897D01*
X168451247Y-41016934D01*
X168451248Y-41016934D01*
X168218052Y-40980000D01*
X167981948Y-40980000D01*
X167748752Y-41016934D01*
X167524197Y-41089897D01*
X167313830Y-41197084D01*
X167230894Y-41257340D01*
X167929766Y-41956212D01*
X167887708Y-41967482D01*
X167762292Y-42039890D01*
X167659890Y-42142292D01*
X167587482Y-42267708D01*
X167576212Y-42309766D01*
X166877340Y-41610894D01*
X166817084Y-41693830D01*
X166709897Y-41904197D01*
X166636934Y-42128752D01*
X166600000Y-42361947D01*
X166600000Y-42598052D01*
X166636934Y-42831247D01*
X166709897Y-43055802D01*
X166817086Y-43266174D01*
X166821865Y-43272751D01*
X166845344Y-43338558D01*
X166829518Y-43406611D01*
X166779411Y-43455306D01*
X166710933Y-43469180D01*
X166645824Y-43443830D01*
X166633865Y-43433316D01*
X166613629Y-43413080D01*
X166613627Y-43413078D01*
X166474873Y-43332968D01*
X166390109Y-43310256D01*
X166390108Y-43310255D01*
X166338866Y-43296525D01*
X166320111Y-43291500D01*
X134175889Y-43291500D01*
X134105890Y-43310255D01*
X134105891Y-43310256D01*
X134021125Y-43332968D01*
X134021124Y-43332969D01*
X133882376Y-43413076D01*
X133882370Y-43413080D01*
X129438331Y-47857118D01*
X129377008Y-47890603D01*
X129312332Y-47887368D01*
X129290752Y-47880356D01*
X129274114Y-47874950D01*
X129102661Y-47847795D01*
X129062916Y-47841500D01*
X128849084Y-47841500D01*
X128778684Y-47852650D01*
X128637882Y-47874951D01*
X128434519Y-47941026D01*
X128434516Y-47941027D01*
X128243990Y-48038106D01*
X128070993Y-48163796D01*
X127919796Y-48314993D01*
X127794103Y-48487994D01*
X127791709Y-48492693D01*
X127743731Y-48543485D01*
X127675908Y-48560275D01*
X127609775Y-48537732D01*
X127573800Y-48496210D01*
X127573168Y-48496598D01*
X127570829Y-48492781D01*
X127570743Y-48492682D01*
X127570620Y-48492441D01*
X127445727Y-48320540D01*
X127445723Y-48320535D01*
X127295464Y-48170276D01*
X127295459Y-48170272D01*
X127123557Y-48045379D01*
X126934215Y-47948903D01*
X126732124Y-47883241D01*
X126666000Y-47872768D01*
X126666000Y-48766988D01*
X126608993Y-48734075D01*
X126481826Y-48700000D01*
X126350174Y-48700000D01*
X126223007Y-48734075D01*
X126166000Y-48766988D01*
X126166000Y-47872768D01*
X126165999Y-47872768D01*
X126099875Y-47883241D01*
X125897784Y-47948903D01*
X125708442Y-48045379D01*
X125536540Y-48170272D01*
X125536535Y-48170276D01*
X125386276Y-48320535D01*
X125386272Y-48320540D01*
X125261376Y-48492446D01*
X125261374Y-48492448D01*
X125261246Y-48492701D01*
X125261172Y-48492779D01*
X125258832Y-48496598D01*
X125258029Y-48496106D01*
X125213264Y-48543489D01*
X125145441Y-48560274D01*
X125079309Y-48537727D01*
X125040285Y-48492683D01*
X125037895Y-48487992D01*
X124945742Y-48361155D01*
X124912206Y-48314996D01*
X124761004Y-48163794D01*
X124588009Y-48038106D01*
X124543150Y-48015249D01*
X124397483Y-47941027D01*
X124397480Y-47941026D01*
X124194117Y-47874951D01*
X124088516Y-47858225D01*
X123982916Y-47841500D01*
X123769084Y-47841500D01*
X123698684Y-47852650D01*
X123557882Y-47874951D01*
X123354519Y-47941026D01*
X123354516Y-47941027D01*
X123163990Y-48038106D01*
X122990993Y-48163796D01*
X122839796Y-48314993D01*
X122714105Y-48487991D01*
X122711727Y-48491873D01*
X122659914Y-48538748D01*
X122590984Y-48550169D01*
X122526822Y-48522512D01*
X122500273Y-48491873D01*
X122497894Y-48487991D01*
X122405742Y-48361155D01*
X122372206Y-48314996D01*
X122221004Y-48163794D01*
X122048009Y-48038106D01*
X122003150Y-48015249D01*
X121857483Y-47941027D01*
X121857480Y-47941026D01*
X121654117Y-47874951D01*
X121548516Y-47858225D01*
X121442916Y-47841500D01*
X121229084Y-47841500D01*
X121158684Y-47852650D01*
X121017882Y-47874951D01*
X120814519Y-47941026D01*
X120814516Y-47941027D01*
X120623990Y-48038106D01*
X120450997Y-48163793D01*
X120345818Y-48268972D01*
X120284495Y-48302456D01*
X120214803Y-48297472D01*
X120158870Y-48255600D01*
X120141958Y-48224629D01*
X120096889Y-48103796D01*
X120086561Y-48090000D01*
X120053158Y-48045379D01*
X120009261Y-47986739D01*
X119892204Y-47899111D01*
X119874252Y-47892415D01*
X119755203Y-47848011D01*
X119694654Y-47841500D01*
X119694638Y-47841500D01*
X117897362Y-47841500D01*
X117897345Y-47841500D01*
X117836797Y-47848011D01*
X117836795Y-47848011D01*
X117699795Y-47899111D01*
X117582739Y-47986739D01*
X117495111Y-48103795D01*
X117444011Y-48240795D01*
X117444011Y-48240797D01*
X117437500Y-48301345D01*
X117437500Y-50098654D01*
X117444011Y-50159202D01*
X117444011Y-50159204D01*
X117475138Y-50242656D01*
X117495111Y-50296204D01*
X117582739Y-50413261D01*
X117699796Y-50500889D01*
X117836799Y-50551989D01*
X117864050Y-50554918D01*
X117897345Y-50558499D01*
X117897362Y-50558500D01*
X119694638Y-50558500D01*
X119694654Y-50558499D01*
X119721692Y-50555591D01*
X119755201Y-50551989D01*
X119892204Y-50500889D01*
X120009261Y-50413261D01*
X120096889Y-50296204D01*
X120141957Y-50175371D01*
X120183827Y-50119442D01*
X120249291Y-50095025D01*
X120317564Y-50109877D01*
X120345818Y-50131028D01*
X120450996Y-50236206D01*
X120623991Y-50361894D01*
X120685517Y-50393243D01*
X120814516Y-50458972D01*
X120814519Y-50458973D01*
X120907397Y-50489150D01*
X121017884Y-50525049D01*
X121229084Y-50558500D01*
X121229085Y-50558500D01*
X121442915Y-50558500D01*
X121442916Y-50558500D01*
X121654116Y-50525049D01*
X121857483Y-50458972D01*
X122048009Y-50361894D01*
X122221004Y-50236206D01*
X122372206Y-50085004D01*
X122497894Y-49912009D01*
X122497896Y-49912004D01*
X122500270Y-49908132D01*
X122552080Y-49861254D01*
X122621009Y-49849829D01*
X122685173Y-49877483D01*
X122711730Y-49908132D01*
X122714103Y-49912005D01*
X122714105Y-49912008D01*
X122714106Y-49912009D01*
X122839794Y-50085004D01*
X122990996Y-50236206D01*
X123163991Y-50361894D01*
X123225517Y-50393243D01*
X123354516Y-50458972D01*
X123354519Y-50458973D01*
X123447397Y-50489150D01*
X123557884Y-50525049D01*
X123769084Y-50558500D01*
X123769085Y-50558500D01*
X123982915Y-50558500D01*
X123982916Y-50558500D01*
X124194116Y-50525049D01*
X124397483Y-50458972D01*
X124588009Y-50361894D01*
X124761004Y-50236206D01*
X124912206Y-50085004D01*
X125037894Y-49912009D01*
X125040283Y-49907319D01*
X125088254Y-49856522D01*
X125156074Y-49839724D01*
X125222210Y-49862258D01*
X125258201Y-49903788D01*
X125258832Y-49903402D01*
X125261164Y-49907207D01*
X125261251Y-49907308D01*
X125261376Y-49907554D01*
X125386272Y-50079459D01*
X125386276Y-50079464D01*
X125536535Y-50229723D01*
X125536540Y-50229727D01*
X125708442Y-50354620D01*
X125897782Y-50451095D01*
X126099871Y-50516757D01*
X126166000Y-50527231D01*
X126166000Y-49633012D01*
X126223007Y-49665925D01*
X126350174Y-49700000D01*
X126481826Y-49700000D01*
X126608993Y-49665925D01*
X126666000Y-49633012D01*
X126666000Y-50527230D01*
X126732126Y-50516757D01*
X126732129Y-50516757D01*
X126934217Y-50451095D01*
X127123557Y-50354620D01*
X127295459Y-50229727D01*
X127295464Y-50229723D01*
X127445723Y-50079464D01*
X127445727Y-50079459D01*
X127570619Y-49907560D01*
X127570738Y-49907327D01*
X127570808Y-49907252D01*
X127573168Y-49903402D01*
X127573976Y-49903897D01*
X127618707Y-49856526D01*
X127686526Y-49839723D01*
X127752663Y-49862254D01*
X127791712Y-49907311D01*
X127794105Y-49912008D01*
X127836002Y-49969674D01*
X127919794Y-50085004D01*
X128070996Y-50236206D01*
X128243991Y-50361894D01*
X128305517Y-50393243D01*
X128434516Y-50458972D01*
X128434519Y-50458973D01*
X128527397Y-50489150D01*
X128637884Y-50525049D01*
X128849084Y-50558500D01*
X128849085Y-50558500D01*
X129062915Y-50558500D01*
X129062916Y-50558500D01*
X129274116Y-50525049D01*
X129477483Y-50458972D01*
X129668009Y-50361894D01*
X129841004Y-50236206D01*
X129992206Y-50085004D01*
X130117894Y-49912009D01*
X130117896Y-49912004D01*
X130120270Y-49908132D01*
X130172080Y-49861254D01*
X130241009Y-49849829D01*
X130305173Y-49877483D01*
X130331730Y-49908132D01*
X130334103Y-49912005D01*
X130334105Y-49912008D01*
X130334106Y-49912009D01*
X130459794Y-50085004D01*
X130610996Y-50236206D01*
X130783991Y-50361894D01*
X130845517Y-50393243D01*
X130974516Y-50458972D01*
X130974519Y-50458973D01*
X131067397Y-50489150D01*
X131177884Y-50525049D01*
X131389084Y-50558500D01*
X131389085Y-50558500D01*
X131602915Y-50558500D01*
X131602916Y-50558500D01*
X131814116Y-50525049D01*
X132017483Y-50458972D01*
X132208009Y-50361894D01*
X132381004Y-50236206D01*
X132532206Y-50085004D01*
X132657894Y-49912009D01*
X132657896Y-49912004D01*
X132660270Y-49908132D01*
X132712080Y-49861254D01*
X132781009Y-49849829D01*
X132845173Y-49877483D01*
X132871730Y-49908132D01*
X132874103Y-49912005D01*
X132874105Y-49912008D01*
X132874106Y-49912009D01*
X132999794Y-50085004D01*
X133150996Y-50236206D01*
X133323991Y-50361894D01*
X133385517Y-50393243D01*
X133514516Y-50458972D01*
X133514519Y-50458973D01*
X133607397Y-50489150D01*
X133717884Y-50525049D01*
X133929084Y-50558500D01*
X133929085Y-50558500D01*
X134142915Y-50558500D01*
X134142916Y-50558500D01*
X134354116Y-50525049D01*
X134557483Y-50458972D01*
X134748009Y-50361894D01*
X134921004Y-50236206D01*
X135072206Y-50085004D01*
X135197894Y-49912009D01*
X135197896Y-49912004D01*
X135200270Y-49908132D01*
X135252080Y-49861254D01*
X135321009Y-49849829D01*
X135385173Y-49877483D01*
X135411730Y-49908132D01*
X135414103Y-49912005D01*
X135414105Y-49912008D01*
X135414106Y-49912009D01*
X135539794Y-50085004D01*
X135690996Y-50236206D01*
X135863991Y-50361894D01*
X135925517Y-50393243D01*
X136054516Y-50458972D01*
X136054519Y-50458973D01*
X136147397Y-50489150D01*
X136257884Y-50525049D01*
X136469084Y-50558500D01*
X136469085Y-50558500D01*
X136682915Y-50558500D01*
X136682916Y-50558500D01*
X136894116Y-50525049D01*
X137097483Y-50458972D01*
X137288009Y-50361894D01*
X137461004Y-50236206D01*
X137612206Y-50085004D01*
X137737894Y-49912009D01*
X137737896Y-49912004D01*
X137740270Y-49908132D01*
X137792080Y-49861254D01*
X137861009Y-49849829D01*
X137925173Y-49877483D01*
X137951730Y-49908132D01*
X137954103Y-49912005D01*
X137954105Y-49912008D01*
X137954106Y-49912009D01*
X138079794Y-50085004D01*
X138230996Y-50236206D01*
X138403991Y-50361894D01*
X138465517Y-50393243D01*
X138594516Y-50458972D01*
X138594519Y-50458973D01*
X138687397Y-50489150D01*
X138797884Y-50525049D01*
X139009084Y-50558500D01*
X139009085Y-50558500D01*
X139222915Y-50558500D01*
X139222916Y-50558500D01*
X139434116Y-50525049D01*
X139637483Y-50458972D01*
X139828009Y-50361894D01*
X140001004Y-50236206D01*
X140152206Y-50085004D01*
X140277894Y-49912009D01*
X140277896Y-49912004D01*
X140280270Y-49908132D01*
X140332080Y-49861254D01*
X140401009Y-49849829D01*
X140465173Y-49877483D01*
X140491730Y-49908132D01*
X140494103Y-49912005D01*
X140494105Y-49912008D01*
X140494106Y-49912009D01*
X140619794Y-50085004D01*
X140770996Y-50236206D01*
X140943991Y-50361894D01*
X141005517Y-50393243D01*
X141134516Y-50458972D01*
X141134519Y-50458973D01*
X141227397Y-50489150D01*
X141337884Y-50525049D01*
X141549084Y-50558500D01*
X141549085Y-50558500D01*
X141762915Y-50558500D01*
X141762916Y-50558500D01*
X141974116Y-50525049D01*
X142177483Y-50458972D01*
X142368009Y-50361894D01*
X142541004Y-50236206D01*
X142692206Y-50085004D01*
X142817894Y-49912009D01*
X142914972Y-49721483D01*
X142981049Y-49518116D01*
X143014500Y-49306916D01*
X143014500Y-49093084D01*
X142981049Y-48881884D01*
X142948010Y-48780200D01*
X142914973Y-48678519D01*
X142914972Y-48678516D01*
X142865507Y-48581438D01*
X142817894Y-48487991D01*
X142692206Y-48314996D01*
X142541004Y-48163794D01*
X142368009Y-48038106D01*
X142323150Y-48015249D01*
X142177483Y-47941027D01*
X142177480Y-47941026D01*
X141974117Y-47874951D01*
X141868516Y-47858225D01*
X141762916Y-47841500D01*
X141549084Y-47841500D01*
X141478684Y-47852650D01*
X141337882Y-47874951D01*
X141134519Y-47941026D01*
X141134516Y-47941027D01*
X140943990Y-48038106D01*
X140770993Y-48163796D01*
X140619796Y-48314993D01*
X140494105Y-48487991D01*
X140491727Y-48491873D01*
X140439914Y-48538748D01*
X140370984Y-48550169D01*
X140306822Y-48522512D01*
X140280273Y-48491873D01*
X140277894Y-48487991D01*
X140185742Y-48361155D01*
X140152206Y-48314996D01*
X140001004Y-48163794D01*
X139828009Y-48038106D01*
X139783150Y-48015249D01*
X139637483Y-47941027D01*
X139637480Y-47941026D01*
X139434117Y-47874951D01*
X139328516Y-47858225D01*
X139222916Y-47841500D01*
X139009084Y-47841500D01*
X138938684Y-47852650D01*
X138797882Y-47874951D01*
X138594519Y-47941026D01*
X138594516Y-47941027D01*
X138403990Y-48038106D01*
X138230993Y-48163796D01*
X138079796Y-48314993D01*
X137954105Y-48487991D01*
X137951727Y-48491873D01*
X137899914Y-48538748D01*
X137830984Y-48550169D01*
X137766822Y-48522512D01*
X137740273Y-48491873D01*
X137737894Y-48487991D01*
X137645742Y-48361155D01*
X137612206Y-48314996D01*
X137461004Y-48163794D01*
X137288009Y-48038106D01*
X137243150Y-48015249D01*
X137097483Y-47941027D01*
X137097480Y-47941026D01*
X136894117Y-47874951D01*
X136788516Y-47858225D01*
X136682916Y-47841500D01*
X136554410Y-47841500D01*
X136487371Y-47821815D01*
X136441616Y-47769011D01*
X136431672Y-47699853D01*
X136460697Y-47636297D01*
X136466729Y-47629819D01*
X138281730Y-45814819D01*
X138343053Y-45781334D01*
X138369411Y-45778500D01*
X155601589Y-45778500D01*
X155668628Y-45798185D01*
X155714383Y-45850989D01*
X155724327Y-45920147D01*
X155695302Y-45983703D01*
X155689270Y-45990181D01*
X153822331Y-47857118D01*
X153761008Y-47890603D01*
X153696332Y-47887368D01*
X153674752Y-47880356D01*
X153658114Y-47874950D01*
X153486661Y-47847795D01*
X153446916Y-47841500D01*
X153233084Y-47841500D01*
X153162684Y-47852650D01*
X153021882Y-47874951D01*
X152818519Y-47941026D01*
X152818516Y-47941027D01*
X152627990Y-48038106D01*
X152454993Y-48163796D01*
X152303796Y-48314993D01*
X152178105Y-48487991D01*
X152175727Y-48491873D01*
X152123914Y-48538748D01*
X152054984Y-48550169D01*
X151990822Y-48522512D01*
X151964273Y-48491873D01*
X151961894Y-48487991D01*
X151869742Y-48361155D01*
X151836206Y-48314996D01*
X151685004Y-48163794D01*
X151512009Y-48038106D01*
X151467150Y-48015249D01*
X151321483Y-47941027D01*
X151321480Y-47941026D01*
X151118117Y-47874951D01*
X151012516Y-47858225D01*
X150906916Y-47841500D01*
X150693084Y-47841500D01*
X150622684Y-47852650D01*
X150481882Y-47874951D01*
X150278519Y-47941026D01*
X150278516Y-47941027D01*
X150087990Y-48038106D01*
X149914993Y-48163796D01*
X149763796Y-48314993D01*
X149638105Y-48487991D01*
X149635727Y-48491873D01*
X149583914Y-48538748D01*
X149514984Y-48550169D01*
X149450822Y-48522512D01*
X149424273Y-48491873D01*
X149421894Y-48487991D01*
X149329742Y-48361155D01*
X149296206Y-48314996D01*
X149145004Y-48163794D01*
X148972009Y-48038106D01*
X148927150Y-48015249D01*
X148781483Y-47941027D01*
X148781480Y-47941026D01*
X148578117Y-47874951D01*
X148472516Y-47858225D01*
X148366916Y-47841500D01*
X148153084Y-47841500D01*
X148082684Y-47852650D01*
X147941882Y-47874951D01*
X147738519Y-47941026D01*
X147738516Y-47941027D01*
X147547990Y-48038106D01*
X147374997Y-48163793D01*
X147269818Y-48268972D01*
X147208495Y-48302456D01*
X147138803Y-48297472D01*
X147082870Y-48255600D01*
X147065958Y-48224629D01*
X147020889Y-48103796D01*
X147010561Y-48090000D01*
X146977158Y-48045379D01*
X146933261Y-47986739D01*
X146816204Y-47899111D01*
X146798252Y-47892415D01*
X146679203Y-47848011D01*
X146618654Y-47841500D01*
X146618638Y-47841500D01*
X144821362Y-47841500D01*
X144821345Y-47841500D01*
X144760797Y-47848011D01*
X144760795Y-47848011D01*
X144623795Y-47899111D01*
X144506739Y-47986739D01*
X144419111Y-48103795D01*
X144368011Y-48240795D01*
X144368011Y-48240797D01*
X144361500Y-48301345D01*
X144361500Y-50098654D01*
X144368011Y-50159202D01*
X144368011Y-50159204D01*
X144399138Y-50242656D01*
X144419111Y-50296204D01*
X144506739Y-50413261D01*
X144623796Y-50500889D01*
X144760799Y-50551989D01*
X144788050Y-50554918D01*
X144821345Y-50558499D01*
X144821362Y-50558500D01*
X146618638Y-50558500D01*
X146618654Y-50558499D01*
X146645692Y-50555591D01*
X146679201Y-50551989D01*
X146816204Y-50500889D01*
X146933261Y-50413261D01*
X147020889Y-50296204D01*
X147065957Y-50175371D01*
X147107827Y-50119442D01*
X147173291Y-50095025D01*
X147241564Y-50109877D01*
X147269818Y-50131028D01*
X147374996Y-50236206D01*
X147547991Y-50361894D01*
X147609517Y-50393243D01*
X147738516Y-50458972D01*
X147738519Y-50458973D01*
X147831397Y-50489150D01*
X147941884Y-50525049D01*
X148153084Y-50558500D01*
X148153085Y-50558500D01*
X148366915Y-50558500D01*
X148366916Y-50558500D01*
X148578116Y-50525049D01*
X148781483Y-50458972D01*
X148972009Y-50361894D01*
X149145004Y-50236206D01*
X149296206Y-50085004D01*
X149421894Y-49912009D01*
X149421896Y-49912004D01*
X149424270Y-49908132D01*
X149476080Y-49861254D01*
X149545009Y-49849829D01*
X149609173Y-49877483D01*
X149635730Y-49908132D01*
X149638103Y-49912005D01*
X149638105Y-49912008D01*
X149638106Y-49912009D01*
X149763794Y-50085004D01*
X149914996Y-50236206D01*
X150087991Y-50361894D01*
X150149517Y-50393243D01*
X150278516Y-50458972D01*
X150278519Y-50458973D01*
X150371397Y-50489150D01*
X150481884Y-50525049D01*
X150693084Y-50558500D01*
X150693085Y-50558500D01*
X150906915Y-50558500D01*
X150906916Y-50558500D01*
X151118116Y-50525049D01*
X151321483Y-50458972D01*
X151512009Y-50361894D01*
X151685004Y-50236206D01*
X151836206Y-50085004D01*
X151961894Y-49912009D01*
X151961896Y-49912004D01*
X151964270Y-49908132D01*
X152016080Y-49861254D01*
X152085009Y-49849829D01*
X152149173Y-49877483D01*
X152175730Y-49908132D01*
X152178103Y-49912005D01*
X152178105Y-49912008D01*
X152178106Y-49912009D01*
X152303794Y-50085004D01*
X152454996Y-50236206D01*
X152627991Y-50361894D01*
X152689517Y-50393243D01*
X152818516Y-50458972D01*
X152818519Y-50458973D01*
X152911397Y-50489150D01*
X153021884Y-50525049D01*
X153233084Y-50558500D01*
X153233085Y-50558500D01*
X153446915Y-50558500D01*
X153446916Y-50558500D01*
X153658116Y-50525049D01*
X153861483Y-50458972D01*
X154052009Y-50361894D01*
X154225004Y-50236206D01*
X154376206Y-50085004D01*
X154501894Y-49912009D01*
X154501896Y-49912004D01*
X154504270Y-49908132D01*
X154556080Y-49861254D01*
X154625009Y-49849829D01*
X154689173Y-49877483D01*
X154715730Y-49908132D01*
X154718103Y-49912005D01*
X154718105Y-49912008D01*
X154718106Y-49912009D01*
X154843794Y-50085004D01*
X154994996Y-50236206D01*
X155167991Y-50361894D01*
X155229517Y-50393243D01*
X155358516Y-50458972D01*
X155358519Y-50458973D01*
X155451397Y-50489150D01*
X155561884Y-50525049D01*
X155773084Y-50558500D01*
X155773085Y-50558500D01*
X155986915Y-50558500D01*
X155986916Y-50558500D01*
X156198116Y-50525049D01*
X156236334Y-50512630D01*
X156306174Y-50510636D01*
X156362332Y-50542881D01*
X159456373Y-53636922D01*
X159456375Y-53636923D01*
X159456379Y-53636926D01*
X159566195Y-53700328D01*
X159566198Y-53700329D01*
X159595125Y-53717031D01*
X159595127Y-53717031D01*
X159595128Y-53717032D01*
X159749889Y-53758500D01*
X159749890Y-53758500D01*
X159910111Y-53758500D01*
X161237808Y-53758500D01*
X161304847Y-53778185D01*
X161306698Y-53779398D01*
X161437030Y-53866482D01*
X161437031Y-53866482D01*
X161437032Y-53866483D01*
X161584169Y-53927430D01*
X161740365Y-53958499D01*
X161740369Y-53958500D01*
X161740370Y-53958500D01*
X161899631Y-53958500D01*
X161899632Y-53958499D01*
X162055831Y-53927430D01*
X162202968Y-53866483D01*
X162335389Y-53778003D01*
X162448003Y-53665389D01*
X162536483Y-53532968D01*
X162597430Y-53385831D01*
X162628500Y-53229630D01*
X162628500Y-53070370D01*
X162597430Y-52914169D01*
X162536483Y-52767032D01*
X162448003Y-52634611D01*
X162447998Y-52634605D01*
X162335394Y-52522001D01*
X162335387Y-52521995D01*
X162202969Y-52433517D01*
X162055831Y-52372570D01*
X162055823Y-52372568D01*
X161899634Y-52341500D01*
X161899630Y-52341500D01*
X161740370Y-52341500D01*
X161740365Y-52341500D01*
X161584176Y-52372568D01*
X161584168Y-52372570D01*
X161437030Y-52433517D01*
X161437029Y-52433517D01*
X161306698Y-52520602D01*
X161240021Y-52541480D01*
X161237808Y-52541500D01*
X160133411Y-52541500D01*
X160066372Y-52521815D01*
X160045730Y-52505181D01*
X158310730Y-50770181D01*
X158277245Y-50708858D01*
X158282229Y-50639166D01*
X158324101Y-50583233D01*
X158389565Y-50558816D01*
X158398411Y-50558500D01*
X158526915Y-50558500D01*
X158526916Y-50558500D01*
X158738116Y-50525049D01*
X158941483Y-50458972D01*
X159132009Y-50361894D01*
X159305004Y-50236206D01*
X159456206Y-50085004D01*
X159581894Y-49912009D01*
X159581896Y-49912004D01*
X159584270Y-49908132D01*
X159636080Y-49861254D01*
X159705009Y-49849829D01*
X159769173Y-49877483D01*
X159795730Y-49908132D01*
X159798103Y-49912005D01*
X159798105Y-49912008D01*
X159798106Y-49912009D01*
X159923794Y-50085004D01*
X160074996Y-50236206D01*
X160247991Y-50361894D01*
X160309517Y-50393243D01*
X160438516Y-50458972D01*
X160438519Y-50458973D01*
X160531397Y-50489150D01*
X160641884Y-50525049D01*
X160853084Y-50558500D01*
X160853085Y-50558500D01*
X161066915Y-50558500D01*
X161066916Y-50558500D01*
X161278116Y-50525049D01*
X161481483Y-50458972D01*
X161672009Y-50361894D01*
X161845004Y-50236206D01*
X161996206Y-50085004D01*
X162121894Y-49912009D01*
X162121896Y-49912004D01*
X162124270Y-49908132D01*
X162176080Y-49861254D01*
X162245009Y-49849829D01*
X162309173Y-49877483D01*
X162335730Y-49908132D01*
X162338103Y-49912005D01*
X162338105Y-49912008D01*
X162338106Y-49912009D01*
X162463794Y-50085004D01*
X162614996Y-50236206D01*
X162787991Y-50361894D01*
X162849517Y-50393243D01*
X162978516Y-50458972D01*
X162978519Y-50458973D01*
X163071397Y-50489150D01*
X163181884Y-50525049D01*
X163393084Y-50558500D01*
X163393085Y-50558500D01*
X163606915Y-50558500D01*
X163606916Y-50558500D01*
X163818116Y-50525049D01*
X164021483Y-50458972D01*
X164212009Y-50361894D01*
X164385004Y-50236206D01*
X164536206Y-50085004D01*
X164661894Y-49912009D01*
X164758972Y-49721483D01*
X164825049Y-49518116D01*
X164858500Y-49306916D01*
X164858500Y-49093084D01*
X164825049Y-48881884D01*
X164792010Y-48780200D01*
X164758973Y-48678519D01*
X164758972Y-48678516D01*
X164709507Y-48581438D01*
X164661894Y-48487991D01*
X164536206Y-48314996D01*
X164385004Y-48163794D01*
X164212009Y-48038106D01*
X164167150Y-48015249D01*
X164021483Y-47941027D01*
X164021480Y-47941026D01*
X163818117Y-47874951D01*
X163712516Y-47858225D01*
X163606916Y-47841500D01*
X163393084Y-47841500D01*
X163322684Y-47852650D01*
X163181882Y-47874951D01*
X162978519Y-47941026D01*
X162978516Y-47941027D01*
X162787990Y-48038106D01*
X162614993Y-48163796D01*
X162463796Y-48314993D01*
X162338105Y-48487991D01*
X162335727Y-48491873D01*
X162283914Y-48538748D01*
X162214984Y-48550169D01*
X162150822Y-48522512D01*
X162124273Y-48491873D01*
X162121894Y-48487991D01*
X162029742Y-48361155D01*
X161996206Y-48314996D01*
X161845004Y-48163794D01*
X161672009Y-48038106D01*
X161627150Y-48015249D01*
X161481483Y-47941027D01*
X161481480Y-47941026D01*
X161278117Y-47874951D01*
X161172516Y-47858225D01*
X161066916Y-47841500D01*
X160853084Y-47841500D01*
X160782684Y-47852650D01*
X160641882Y-47874951D01*
X160438519Y-47941026D01*
X160438516Y-47941027D01*
X160247990Y-48038106D01*
X160074993Y-48163796D01*
X159923796Y-48314993D01*
X159798105Y-48487991D01*
X159795727Y-48491873D01*
X159743914Y-48538748D01*
X159674984Y-48550169D01*
X159610822Y-48522512D01*
X159584273Y-48491873D01*
X159581894Y-48487991D01*
X159489742Y-48361155D01*
X159456206Y-48314996D01*
X159305004Y-48163794D01*
X159132009Y-48038106D01*
X159087150Y-48015249D01*
X158941483Y-47941027D01*
X158941480Y-47941026D01*
X158738117Y-47874951D01*
X158632516Y-47858225D01*
X158526916Y-47841500D01*
X158313084Y-47841500D01*
X158242684Y-47852650D01*
X158101882Y-47874951D01*
X157898519Y-47941026D01*
X157898516Y-47941027D01*
X157707990Y-48038106D01*
X157534993Y-48163796D01*
X157383796Y-48314993D01*
X157258105Y-48487991D01*
X157255727Y-48491873D01*
X157203914Y-48538748D01*
X157134984Y-48550169D01*
X157070822Y-48522512D01*
X157044273Y-48491873D01*
X157041894Y-48487991D01*
X156949742Y-48361155D01*
X156916206Y-48314996D01*
X156765004Y-48163794D01*
X156592009Y-48038106D01*
X156547150Y-48015249D01*
X156401483Y-47941027D01*
X156401480Y-47941026D01*
X156198117Y-47874951D01*
X156092516Y-47858225D01*
X155986916Y-47841500D01*
X155858410Y-47841500D01*
X155791371Y-47821815D01*
X155745616Y-47769011D01*
X155735672Y-47699853D01*
X155764697Y-47636297D01*
X155770729Y-47629819D01*
X156355421Y-47045128D01*
X157005730Y-46394819D01*
X157067053Y-46361334D01*
X157093411Y-46358500D01*
X163756589Y-46358500D01*
X163823628Y-46378185D01*
X163844270Y-46394819D01*
X166135181Y-48685730D01*
X166168666Y-48747053D01*
X166171500Y-48773411D01*
X166171500Y-53815588D01*
X166151815Y-53882627D01*
X166135181Y-53903269D01*
X162667586Y-57370863D01*
X162606263Y-57404348D01*
X162536571Y-57399364D01*
X162480638Y-57357492D01*
X162456221Y-57292028D01*
X162457243Y-57268221D01*
X162457118Y-57268212D01*
X162457395Y-57264692D01*
X162457434Y-57263773D01*
X162457500Y-57263361D01*
X162457500Y-57064639D01*
X162426413Y-56868364D01*
X162365005Y-56679368D01*
X162365005Y-56679367D01*
X162274786Y-56502305D01*
X162232095Y-56443546D01*
X162157981Y-56341536D01*
X162017464Y-56201019D01*
X161856694Y-56084213D01*
X161827989Y-56069587D01*
X161679632Y-55993994D01*
X161679629Y-55993993D01*
X161490637Y-55932587D01*
X161373560Y-55914044D01*
X161294361Y-55901500D01*
X161095639Y-55901500D01*
X161030214Y-55911862D01*
X160899362Y-55932587D01*
X160710370Y-55993993D01*
X160710367Y-55993994D01*
X160533305Y-56084213D01*
X160372533Y-56201021D01*
X160232021Y-56341533D01*
X160115213Y-56502305D01*
X160024994Y-56679367D01*
X160024993Y-56679370D01*
X159963587Y-56868362D01*
X159963277Y-56870321D01*
X159932500Y-57064639D01*
X159932500Y-57263361D01*
X159939451Y-57307249D01*
X159963587Y-57459637D01*
X160024993Y-57648629D01*
X160024994Y-57648632D01*
X160093568Y-57783214D01*
X160115213Y-57825694D01*
X160232019Y-57986464D01*
X160372536Y-58126981D01*
X160533306Y-58243787D01*
X160651832Y-58304179D01*
X160689780Y-58323515D01*
X160740576Y-58371490D01*
X160757371Y-58439311D01*
X160734833Y-58505446D01*
X160689780Y-58544485D01*
X160533305Y-58624213D01*
X160372533Y-58741021D01*
X160232021Y-58881533D01*
X160115213Y-59042305D01*
X160024994Y-59219367D01*
X160024993Y-59219370D01*
X159963587Y-59408362D01*
X159963587Y-59408364D01*
X159932500Y-59604639D01*
X159932500Y-59803361D01*
X159942025Y-59863498D01*
X159963587Y-59999637D01*
X160024993Y-60188629D01*
X160024994Y-60188632D01*
X160115213Y-60365694D01*
X160232019Y-60526464D01*
X160372536Y-60666981D01*
X160533306Y-60783787D01*
X160651832Y-60844179D01*
X160689780Y-60863515D01*
X160740576Y-60911490D01*
X160757371Y-60979311D01*
X160734833Y-61045446D01*
X160689780Y-61084485D01*
X160533305Y-61164213D01*
X160372533Y-61281021D01*
X160232021Y-61421533D01*
X160115213Y-61582305D01*
X160024994Y-61759367D01*
X160024993Y-61759370D01*
X159963587Y-61948362D01*
X159963587Y-61948364D01*
X159932500Y-62144639D01*
X159932500Y-62343361D01*
X159947409Y-62437492D01*
X159963587Y-62539637D01*
X160024993Y-62728629D01*
X160024994Y-62728632D01*
X160081485Y-62839500D01*
X160115213Y-62905694D01*
X160232019Y-63066464D01*
X160372536Y-63206981D01*
X160533306Y-63323787D01*
X160651832Y-63384179D01*
X160689780Y-63403515D01*
X160740576Y-63451490D01*
X160757371Y-63519311D01*
X160734833Y-63585446D01*
X160689780Y-63624485D01*
X160533305Y-63704213D01*
X160372533Y-63821021D01*
X160232021Y-63961533D01*
X160115213Y-64122305D01*
X160024994Y-64299367D01*
X160024993Y-64299370D01*
X159963587Y-64488362D01*
X159932500Y-64684639D01*
X159932500Y-64883360D01*
X159963587Y-65079637D01*
X160024993Y-65268629D01*
X160024994Y-65268632D01*
X160063842Y-65344874D01*
X160115213Y-65445694D01*
X160232019Y-65606464D01*
X160372536Y-65746981D01*
X160533306Y-65863787D01*
X160631685Y-65913914D01*
X160689780Y-65943515D01*
X160740576Y-65991490D01*
X160757371Y-66059311D01*
X160734833Y-66125446D01*
X160689780Y-66164485D01*
X160533305Y-66244213D01*
X160372533Y-66361021D01*
X160232021Y-66501533D01*
X160115213Y-66662305D01*
X160024994Y-66839367D01*
X160024993Y-66839370D01*
X159963587Y-67028362D01*
X159932500Y-67224639D01*
X159932500Y-67423360D01*
X159963587Y-67619637D01*
X160024993Y-67808629D01*
X160024994Y-67808632D01*
X160088109Y-67932500D01*
X160115213Y-67985694D01*
X160232019Y-68146464D01*
X160372536Y-68286981D01*
X160533306Y-68403787D01*
X160651832Y-68464179D01*
X160689780Y-68483515D01*
X160740576Y-68531490D01*
X160757371Y-68599311D01*
X160734833Y-68665446D01*
X160689780Y-68704485D01*
X160533305Y-68784213D01*
X160372533Y-68901021D01*
X160232021Y-69041533D01*
X160115213Y-69202305D01*
X160024994Y-69379367D01*
X160024993Y-69379370D01*
X159963587Y-69568362D01*
X159932500Y-69764639D01*
X159932500Y-69963360D01*
X159963587Y-70159637D01*
X160024993Y-70348629D01*
X160024994Y-70348632D01*
X160115213Y-70525694D01*
X160232019Y-70686464D01*
X160372536Y-70826981D01*
X160533306Y-70943787D01*
X160651832Y-71004179D01*
X160689780Y-71023515D01*
X160740576Y-71071490D01*
X160757371Y-71139311D01*
X160734833Y-71205446D01*
X160689780Y-71244485D01*
X160533305Y-71324213D01*
X160372533Y-71441021D01*
X160232021Y-71581533D01*
X160115213Y-71742305D01*
X160024994Y-71919367D01*
X160024993Y-71919370D01*
X159963587Y-72108362D01*
X159932500Y-72304639D01*
X159932500Y-72503360D01*
X159963587Y-72699637D01*
X160024993Y-72888629D01*
X160024994Y-72888632D01*
X160115213Y-73065694D01*
X160232019Y-73226464D01*
X160372536Y-73366981D01*
X160533306Y-73483787D01*
X160699142Y-73568285D01*
X160749937Y-73616259D01*
X160766732Y-73684080D01*
X160744195Y-73750214D01*
X160699142Y-73789253D01*
X160537767Y-73871479D01*
X160537760Y-73871483D01*
X160502010Y-73897456D01*
X160502010Y-73897457D01*
X161065591Y-74461037D01*
X161002007Y-74478075D01*
X160887993Y-74543901D01*
X160794901Y-74636993D01*
X160729075Y-74751007D01*
X160712037Y-74814590D01*
X160148457Y-74251010D01*
X160148456Y-74251010D01*
X160122483Y-74286760D01*
X160122482Y-74286762D01*
X160032873Y-74462626D01*
X159971876Y-74650353D01*
X159941000Y-74845302D01*
X159941000Y-75042697D01*
X159971876Y-75237646D01*
X160032873Y-75425373D01*
X160122483Y-75601239D01*
X160148457Y-75636988D01*
X160148457Y-75636989D01*
X160712037Y-75073408D01*
X160729075Y-75136993D01*
X160794901Y-75251007D01*
X160887993Y-75344099D01*
X161002007Y-75409925D01*
X161065590Y-75426962D01*
X160502009Y-75990541D01*
X160502010Y-75990542D01*
X160537755Y-76016512D01*
X160537768Y-76016520D01*
X160699141Y-76098745D01*
X160749937Y-76146720D01*
X160766732Y-76214541D01*
X160744194Y-76280676D01*
X160699141Y-76319715D01*
X160533305Y-76404213D01*
X160372533Y-76521021D01*
X160232021Y-76661533D01*
X160115213Y-76822305D01*
X160024994Y-76999367D01*
X160024993Y-76999370D01*
X159963587Y-77188362D01*
X159932500Y-77384639D01*
X159932500Y-77583360D01*
X159963587Y-77779637D01*
X160024993Y-77968629D01*
X160024994Y-77968632D01*
X160100847Y-78117500D01*
X160115213Y-78145694D01*
X160232019Y-78306464D01*
X160372536Y-78446981D01*
X160533306Y-78563787D01*
X160620149Y-78608035D01*
X160710367Y-78654005D01*
X160710370Y-78654006D01*
X160804866Y-78684709D01*
X160899364Y-78715413D01*
X161095639Y-78746500D01*
X161095640Y-78746500D01*
X161294360Y-78746500D01*
X161294361Y-78746500D01*
X161490636Y-78715413D01*
X161679632Y-78654005D01*
X161856694Y-78563787D01*
X162017464Y-78446981D01*
X162157981Y-78306464D01*
X162258135Y-78168614D01*
X162313465Y-78125949D01*
X162358453Y-78117500D01*
X169580234Y-78117500D01*
X169647273Y-78137185D01*
X169667915Y-78153819D01*
X170560181Y-79046085D01*
X170593666Y-79107408D01*
X170596500Y-79133766D01*
X170596500Y-102322500D01*
X170576815Y-102389539D01*
X170524011Y-102435294D01*
X170472500Y-102446500D01*
X144033766Y-102446500D01*
X143966727Y-102426815D01*
X143946085Y-102410181D01*
X140426319Y-98890415D01*
X140392834Y-98829092D01*
X140390000Y-98802734D01*
X140390000Y-97893012D01*
X140447007Y-97925925D01*
X140574174Y-97960000D01*
X140705826Y-97960000D01*
X140832993Y-97925925D01*
X140890000Y-97893012D01*
X140890000Y-98787230D01*
X140956126Y-98776757D01*
X140956129Y-98776757D01*
X141158217Y-98711095D01*
X141347557Y-98614620D01*
X141519459Y-98489727D01*
X141519464Y-98489723D01*
X141669723Y-98339464D01*
X141669727Y-98339459D01*
X141794620Y-98167558D01*
X141799514Y-98157954D01*
X141847488Y-98107157D01*
X141915308Y-98090361D01*
X141981444Y-98112897D01*
X142020486Y-98157954D01*
X142025379Y-98167558D01*
X142150272Y-98339459D01*
X142150276Y-98339464D01*
X142300535Y-98489723D01*
X142300540Y-98489727D01*
X142472442Y-98614620D01*
X142661782Y-98711095D01*
X142863871Y-98776757D01*
X142930000Y-98787231D01*
X142930000Y-97893012D01*
X142987007Y-97925925D01*
X143114174Y-97960000D01*
X143245826Y-97960000D01*
X143372993Y-97925925D01*
X143430000Y-97893012D01*
X143430000Y-98787230D01*
X143496126Y-98776757D01*
X143496129Y-98776757D01*
X143698217Y-98711095D01*
X143887557Y-98614620D01*
X144059459Y-98489727D01*
X144059464Y-98489723D01*
X144209723Y-98339464D01*
X144209727Y-98339459D01*
X144334619Y-98167560D01*
X144334738Y-98167327D01*
X144334808Y-98167252D01*
X144337168Y-98163402D01*
X144337976Y-98163897D01*
X144382707Y-98116526D01*
X144450526Y-98099723D01*
X144516663Y-98122254D01*
X144555712Y-98167311D01*
X144558103Y-98172005D01*
X144558106Y-98172009D01*
X144683794Y-98345004D01*
X144834996Y-98496206D01*
X145007991Y-98621894D01*
X145101438Y-98669507D01*
X145198516Y-98718972D01*
X145198519Y-98718973D01*
X145300200Y-98752010D01*
X145401884Y-98785049D01*
X145613084Y-98818500D01*
X145613085Y-98818500D01*
X145826915Y-98818500D01*
X145826916Y-98818500D01*
X146038116Y-98785049D01*
X146241483Y-98718972D01*
X146432009Y-98621894D01*
X146605004Y-98496206D01*
X146756206Y-98345004D01*
X146881894Y-98172009D01*
X146978972Y-97981483D01*
X147045049Y-97778116D01*
X147078500Y-97566916D01*
X147078500Y-97353084D01*
X147045049Y-97141884D01*
X146978972Y-96938517D01*
X146978972Y-96938516D01*
X146923495Y-96829638D01*
X146881894Y-96747991D01*
X146756206Y-96574996D01*
X146605004Y-96423794D01*
X146432009Y-96298106D01*
X146241483Y-96201027D01*
X146241480Y-96201026D01*
X146038117Y-96134951D01*
X145870777Y-96108447D01*
X145826916Y-96101500D01*
X145613084Y-96101500D01*
X145569223Y-96108447D01*
X145401882Y-96134951D01*
X145198519Y-96201026D01*
X145198516Y-96201027D01*
X145007990Y-96298106D01*
X144834993Y-96423796D01*
X144683796Y-96574993D01*
X144558103Y-96747994D01*
X144555709Y-96752693D01*
X144507731Y-96803485D01*
X144439908Y-96820275D01*
X144373775Y-96797732D01*
X144337800Y-96756210D01*
X144337168Y-96756598D01*
X144334829Y-96752781D01*
X144334743Y-96752682D01*
X144334620Y-96752441D01*
X144209727Y-96580540D01*
X144209723Y-96580535D01*
X144059464Y-96430276D01*
X144059459Y-96430272D01*
X143887557Y-96305379D01*
X143698215Y-96208903D01*
X143496124Y-96143241D01*
X143430000Y-96132768D01*
X143430000Y-97026988D01*
X143372993Y-96994075D01*
X143245826Y-96960000D01*
X143114174Y-96960000D01*
X142987007Y-96994075D01*
X142930000Y-97026988D01*
X142930000Y-96132768D01*
X142929999Y-96132768D01*
X142863875Y-96143241D01*
X142661784Y-96208903D01*
X142472442Y-96305379D01*
X142300540Y-96430272D01*
X142300535Y-96430276D01*
X142150276Y-96580535D01*
X142150272Y-96580540D01*
X142025377Y-96752444D01*
X142020484Y-96762048D01*
X141972509Y-96812844D01*
X141904688Y-96829638D01*
X141838553Y-96807100D01*
X141799516Y-96762048D01*
X141794622Y-96752444D01*
X141669727Y-96580540D01*
X141669723Y-96580535D01*
X141519464Y-96430276D01*
X141519459Y-96430272D01*
X141347557Y-96305379D01*
X141158215Y-96208903D01*
X140956124Y-96143241D01*
X140890000Y-96132768D01*
X140890000Y-97026988D01*
X140832993Y-96994075D01*
X140705826Y-96960000D01*
X140574174Y-96960000D01*
X140447007Y-96994075D01*
X140390000Y-97026988D01*
X140390000Y-96132768D01*
X140389999Y-96132768D01*
X140323875Y-96143241D01*
X140121784Y-96208903D01*
X139932442Y-96305379D01*
X139760540Y-96430272D01*
X139760535Y-96430276D01*
X139610276Y-96580535D01*
X139610272Y-96580540D01*
X139485376Y-96752446D01*
X139485374Y-96752448D01*
X139485246Y-96752701D01*
X139485172Y-96752779D01*
X139482832Y-96756598D01*
X139482029Y-96756106D01*
X139437264Y-96803489D01*
X139369441Y-96820274D01*
X139303309Y-96797727D01*
X139264285Y-96752683D01*
X139261895Y-96747992D01*
X139169742Y-96621155D01*
X139136206Y-96574996D01*
X138985004Y-96423794D01*
X138812009Y-96298106D01*
X138621483Y-96201027D01*
X138621480Y-96201026D01*
X138418117Y-96134951D01*
X138250777Y-96108447D01*
X138206916Y-96101500D01*
X137993084Y-96101500D01*
X137949223Y-96108447D01*
X137781882Y-96134951D01*
X137578519Y-96201026D01*
X137578516Y-96201027D01*
X137387990Y-96298106D01*
X137214993Y-96423796D01*
X137063796Y-96574993D01*
X136938105Y-96747991D01*
X136935727Y-96751873D01*
X136883914Y-96798748D01*
X136814984Y-96810169D01*
X136750822Y-96782512D01*
X136724273Y-96751873D01*
X136721894Y-96747991D01*
X136629742Y-96621155D01*
X136596206Y-96574996D01*
X136445004Y-96423794D01*
X136272009Y-96298106D01*
X136081483Y-96201027D01*
X136081480Y-96201026D01*
X135878117Y-96134951D01*
X135710777Y-96108447D01*
X135666916Y-96101500D01*
X135453084Y-96101500D01*
X135409223Y-96108447D01*
X135241882Y-96134951D01*
X135038519Y-96201026D01*
X135038516Y-96201027D01*
X134847990Y-96298106D01*
X134674993Y-96423796D01*
X134523796Y-96574993D01*
X134398105Y-96747991D01*
X134395727Y-96751873D01*
X134343914Y-96798748D01*
X134274984Y-96810169D01*
X134210822Y-96782512D01*
X134184273Y-96751873D01*
X134181894Y-96747991D01*
X134089742Y-96621155D01*
X134056206Y-96574996D01*
X133905004Y-96423794D01*
X133732009Y-96298106D01*
X133541483Y-96201027D01*
X133541480Y-96201026D01*
X133338117Y-96134951D01*
X133170777Y-96108447D01*
X133126916Y-96101500D01*
X132913084Y-96101500D01*
X132869223Y-96108447D01*
X132701882Y-96134951D01*
X132498519Y-96201026D01*
X132498516Y-96201027D01*
X132307990Y-96298106D01*
X132134993Y-96423796D01*
X131983796Y-96574993D01*
X131858105Y-96747991D01*
X131855727Y-96751873D01*
X131803914Y-96798748D01*
X131734984Y-96810169D01*
X131670822Y-96782512D01*
X131644273Y-96751873D01*
X131641894Y-96747991D01*
X131549742Y-96621155D01*
X131516206Y-96574996D01*
X131365004Y-96423794D01*
X131192009Y-96298106D01*
X131001483Y-96201027D01*
X131001480Y-96201026D01*
X130798117Y-96134951D01*
X130630777Y-96108447D01*
X130586916Y-96101500D01*
X130373084Y-96101500D01*
X130329223Y-96108447D01*
X130161882Y-96134951D01*
X129958519Y-96201026D01*
X129958516Y-96201027D01*
X129767990Y-96298106D01*
X129594997Y-96423793D01*
X129489818Y-96528972D01*
X129428495Y-96562456D01*
X129358803Y-96557472D01*
X129302870Y-96515600D01*
X129285958Y-96484629D01*
X129240889Y-96363796D01*
X129153261Y-96246739D01*
X129036204Y-96159111D01*
X128899203Y-96108011D01*
X128838654Y-96101500D01*
X128838638Y-96101500D01*
X127041362Y-96101500D01*
X127041345Y-96101500D01*
X126980797Y-96108011D01*
X126980795Y-96108011D01*
X126843795Y-96159111D01*
X126726739Y-96246739D01*
X126639111Y-96363795D01*
X126588011Y-96500795D01*
X126588011Y-96500797D01*
X126581500Y-96561345D01*
X126581500Y-98358654D01*
X126588011Y-98419202D01*
X126588011Y-98419204D01*
X126619138Y-98502656D01*
X126639111Y-98556204D01*
X126726739Y-98673261D01*
X126843796Y-98760889D01*
X126955986Y-98802734D01*
X126979624Y-98811551D01*
X126980799Y-98811989D01*
X127008050Y-98814918D01*
X127041345Y-98818499D01*
X127041362Y-98818500D01*
X128838638Y-98818500D01*
X128838654Y-98818499D01*
X128865692Y-98815591D01*
X128899201Y-98811989D01*
X128900376Y-98811551D01*
X128924014Y-98802734D01*
X129036204Y-98760889D01*
X129153261Y-98673261D01*
X129240889Y-98556204D01*
X129285957Y-98435371D01*
X129327827Y-98379442D01*
X129393291Y-98355025D01*
X129461564Y-98369877D01*
X129489818Y-98391028D01*
X129594996Y-98496206D01*
X129767991Y-98621894D01*
X129861438Y-98669507D01*
X129958516Y-98718972D01*
X129958519Y-98718973D01*
X130060200Y-98752010D01*
X130161884Y-98785049D01*
X130373084Y-98818500D01*
X130373085Y-98818500D01*
X130586915Y-98818500D01*
X130586916Y-98818500D01*
X130798116Y-98785049D01*
X131001483Y-98718972D01*
X131192009Y-98621894D01*
X131365004Y-98496206D01*
X131516206Y-98345004D01*
X131641894Y-98172009D01*
X131641896Y-98172004D01*
X131644270Y-98168132D01*
X131696080Y-98121254D01*
X131765009Y-98109829D01*
X131829173Y-98137483D01*
X131855730Y-98168132D01*
X131858103Y-98172005D01*
X131858105Y-98172008D01*
X131858106Y-98172009D01*
X131983794Y-98345004D01*
X132134996Y-98496206D01*
X132307991Y-98621894D01*
X132401438Y-98669507D01*
X132498516Y-98718972D01*
X132498519Y-98718973D01*
X132600200Y-98752010D01*
X132701884Y-98785049D01*
X132913084Y-98818500D01*
X132913085Y-98818500D01*
X133006233Y-98818500D01*
X133073272Y-98838185D01*
X133119027Y-98890989D01*
X133128971Y-98960147D01*
X133099946Y-99023703D01*
X133093914Y-99030181D01*
X122103915Y-110020181D01*
X122042592Y-110053666D01*
X122016234Y-110056500D01*
X94043698Y-110056500D01*
X93976659Y-110036815D01*
X93930904Y-109984011D01*
X93920960Y-109914853D01*
X93944431Y-109858189D01*
X93960889Y-109836204D01*
X94011989Y-109699201D01*
X94015591Y-109665692D01*
X94018499Y-109638654D01*
X94018500Y-109638637D01*
X94018500Y-107841362D01*
X94018499Y-107841345D01*
X94015157Y-107810270D01*
X94011989Y-107780799D01*
X93960889Y-107643796D01*
X93873261Y-107526739D01*
X93756204Y-107439111D01*
X93619203Y-107388011D01*
X93558654Y-107381500D01*
X93558638Y-107381500D01*
X93539309Y-107381500D01*
X93472270Y-107361815D01*
X93451628Y-107345181D01*
X92789408Y-106682962D01*
X92852993Y-106665925D01*
X92967007Y-106600099D01*
X93060099Y-106507007D01*
X93125925Y-106392993D01*
X93142962Y-106329408D01*
X93775270Y-106961717D01*
X93775270Y-106961716D01*
X93814622Y-106907554D01*
X93911095Y-106718217D01*
X93976757Y-106516130D01*
X93976757Y-106516127D01*
X94010000Y-106306246D01*
X94010000Y-106093753D01*
X93976757Y-105883872D01*
X93976757Y-105883869D01*
X93911095Y-105681782D01*
X93814624Y-105492449D01*
X93775270Y-105438282D01*
X93775269Y-105438282D01*
X93142962Y-106070590D01*
X93125925Y-106007007D01*
X93060099Y-105892993D01*
X92967007Y-105799901D01*
X92852993Y-105734075D01*
X92789409Y-105717037D01*
X93421716Y-105084728D01*
X93367547Y-105045373D01*
X93367545Y-105045371D01*
X93367308Y-105045251D01*
X93367234Y-105045181D01*
X93363396Y-105042829D01*
X93363890Y-105042022D01*
X93316515Y-104997274D01*
X93299724Y-104929451D01*
X93322266Y-104863318D01*
X93367319Y-104824283D01*
X93372009Y-104821894D01*
X93545004Y-104696206D01*
X93696206Y-104545004D01*
X93821894Y-104372009D01*
X93918972Y-104181483D01*
X93985049Y-103978116D01*
X93995168Y-103914223D01*
X94025095Y-103851093D01*
X94029941Y-103845961D01*
X100541865Y-97334038D01*
X112369500Y-97334038D01*
X112369500Y-97585962D01*
X112389146Y-97710000D01*
X112408910Y-97834785D01*
X112486760Y-98074383D01*
X112536503Y-98172008D01*
X112582297Y-98261884D01*
X112601132Y-98298848D01*
X112749201Y-98502649D01*
X112749205Y-98502654D01*
X112927345Y-98680794D01*
X112927350Y-98680798D01*
X113037587Y-98760889D01*
X113131155Y-98828870D01*
X113251944Y-98890415D01*
X113355616Y-98943239D01*
X113355618Y-98943239D01*
X113355621Y-98943241D01*
X113595215Y-99021090D01*
X113844038Y-99060500D01*
X113844039Y-99060500D01*
X114095961Y-99060500D01*
X114095962Y-99060500D01*
X114344785Y-99021090D01*
X114584379Y-98943241D01*
X114808845Y-98828870D01*
X115012656Y-98680793D01*
X115190793Y-98502656D01*
X115338870Y-98298845D01*
X115453241Y-98074379D01*
X115531090Y-97834785D01*
X115570500Y-97585962D01*
X115570500Y-97334038D01*
X115531090Y-97085215D01*
X115453241Y-96845621D01*
X115453239Y-96845618D01*
X115453239Y-96845616D01*
X115403498Y-96747994D01*
X115338870Y-96621155D01*
X115292602Y-96557472D01*
X115190798Y-96417350D01*
X115190794Y-96417345D01*
X115012654Y-96239205D01*
X115012649Y-96239201D01*
X114808848Y-96091132D01*
X114808847Y-96091131D01*
X114808845Y-96091130D01*
X114738747Y-96055413D01*
X114584383Y-95976760D01*
X114344785Y-95898910D01*
X114287387Y-95889819D01*
X114095962Y-95859500D01*
X113844038Y-95859500D01*
X113719626Y-95879205D01*
X113595214Y-95898910D01*
X113355616Y-95976760D01*
X113131151Y-96091132D01*
X112927350Y-96239201D01*
X112927345Y-96239205D01*
X112749205Y-96417345D01*
X112749201Y-96417350D01*
X112601132Y-96621151D01*
X112486760Y-96845616D01*
X112445547Y-96972458D01*
X112408910Y-97085215D01*
X112369500Y-97334038D01*
X100541865Y-97334038D01*
X109876085Y-87999819D01*
X109937408Y-87966334D01*
X109963766Y-87963500D01*
X118537606Y-87963500D01*
X153056234Y-87963500D01*
X153123273Y-87983185D01*
X153143915Y-87999819D01*
X161033915Y-95889819D01*
X161067400Y-95951142D01*
X161062416Y-96020834D01*
X161020544Y-96076767D01*
X160955080Y-96101184D01*
X160946234Y-96101500D01*
X160853084Y-96101500D01*
X160809223Y-96108447D01*
X160641882Y-96134951D01*
X160438519Y-96201026D01*
X160438516Y-96201027D01*
X160247990Y-96298106D01*
X160074993Y-96423796D01*
X159923796Y-96574993D01*
X159798105Y-96747991D01*
X159795727Y-96751873D01*
X159743914Y-96798748D01*
X159674984Y-96810169D01*
X159610822Y-96782512D01*
X159584273Y-96751873D01*
X159581894Y-96747991D01*
X159489742Y-96621155D01*
X159456206Y-96574996D01*
X159305004Y-96423794D01*
X159132009Y-96298106D01*
X158941483Y-96201027D01*
X158941480Y-96201026D01*
X158738117Y-96134951D01*
X158570777Y-96108447D01*
X158526916Y-96101500D01*
X158313084Y-96101500D01*
X158269223Y-96108447D01*
X158101882Y-96134951D01*
X157898519Y-96201026D01*
X157898516Y-96201027D01*
X157707990Y-96298106D01*
X157534993Y-96423796D01*
X157383796Y-96574993D01*
X157258105Y-96747991D01*
X157255727Y-96751873D01*
X157203914Y-96798748D01*
X157134984Y-96810169D01*
X157070822Y-96782512D01*
X157044273Y-96751873D01*
X157041894Y-96747991D01*
X156949742Y-96621155D01*
X156916206Y-96574996D01*
X156765004Y-96423794D01*
X156592009Y-96298106D01*
X156401483Y-96201027D01*
X156401480Y-96201026D01*
X156198117Y-96134951D01*
X156030777Y-96108447D01*
X155986916Y-96101500D01*
X155773084Y-96101500D01*
X155729223Y-96108447D01*
X155561882Y-96134951D01*
X155358519Y-96201026D01*
X155358516Y-96201027D01*
X155167990Y-96298106D01*
X154994993Y-96423796D01*
X154843796Y-96574993D01*
X154718105Y-96747991D01*
X154715727Y-96751873D01*
X154663914Y-96798748D01*
X154594984Y-96810169D01*
X154530822Y-96782512D01*
X154504273Y-96751873D01*
X154501894Y-96747991D01*
X154409742Y-96621155D01*
X154376206Y-96574996D01*
X154225004Y-96423794D01*
X154052009Y-96298106D01*
X153861483Y-96201027D01*
X153861480Y-96201026D01*
X153658117Y-96134951D01*
X153490777Y-96108447D01*
X153446916Y-96101500D01*
X153233084Y-96101500D01*
X153189223Y-96108447D01*
X153021882Y-96134951D01*
X152818519Y-96201026D01*
X152818516Y-96201027D01*
X152627990Y-96298106D01*
X152454997Y-96423793D01*
X152349818Y-96528972D01*
X152288495Y-96562456D01*
X152218803Y-96557472D01*
X152162870Y-96515600D01*
X152145958Y-96484629D01*
X152100889Y-96363796D01*
X152013261Y-96246739D01*
X151896204Y-96159111D01*
X151759203Y-96108011D01*
X151698654Y-96101500D01*
X151698638Y-96101500D01*
X149901362Y-96101500D01*
X149901345Y-96101500D01*
X149840797Y-96108011D01*
X149840795Y-96108011D01*
X149703795Y-96159111D01*
X149586739Y-96246739D01*
X149499111Y-96363795D01*
X149448011Y-96500795D01*
X149448011Y-96500797D01*
X149441500Y-96561345D01*
X149441500Y-98358654D01*
X149448011Y-98419202D01*
X149448011Y-98419204D01*
X149479138Y-98502656D01*
X149499111Y-98556204D01*
X149586739Y-98673261D01*
X149703796Y-98760889D01*
X149815986Y-98802734D01*
X149839624Y-98811551D01*
X149840799Y-98811989D01*
X149868050Y-98814918D01*
X149901345Y-98818499D01*
X149901362Y-98818500D01*
X151698638Y-98818500D01*
X151698654Y-98818499D01*
X151725692Y-98815591D01*
X151759201Y-98811989D01*
X151760376Y-98811551D01*
X151784014Y-98802734D01*
X151896204Y-98760889D01*
X152013261Y-98673261D01*
X152100889Y-98556204D01*
X152145957Y-98435371D01*
X152187827Y-98379442D01*
X152253291Y-98355025D01*
X152321564Y-98369877D01*
X152349818Y-98391028D01*
X152454996Y-98496206D01*
X152627991Y-98621894D01*
X152721438Y-98669507D01*
X152818516Y-98718972D01*
X152818519Y-98718973D01*
X152920200Y-98752010D01*
X153021884Y-98785049D01*
X153233084Y-98818500D01*
X153233085Y-98818500D01*
X153446915Y-98818500D01*
X153446916Y-98818500D01*
X153658116Y-98785049D01*
X153861483Y-98718972D01*
X154052009Y-98621894D01*
X154225004Y-98496206D01*
X154376206Y-98345004D01*
X154501894Y-98172009D01*
X154501896Y-98172004D01*
X154504270Y-98168132D01*
X154556080Y-98121254D01*
X154625009Y-98109829D01*
X154689173Y-98137483D01*
X154715730Y-98168132D01*
X154718103Y-98172005D01*
X154718105Y-98172008D01*
X154718106Y-98172009D01*
X154843794Y-98345004D01*
X154994996Y-98496206D01*
X155167991Y-98621894D01*
X155261438Y-98669507D01*
X155358516Y-98718972D01*
X155358519Y-98718973D01*
X155460200Y-98752010D01*
X155561884Y-98785049D01*
X155773084Y-98818500D01*
X155773085Y-98818500D01*
X155986915Y-98818500D01*
X155986916Y-98818500D01*
X156198116Y-98785049D01*
X156401483Y-98718972D01*
X156592009Y-98621894D01*
X156765004Y-98496206D01*
X156916206Y-98345004D01*
X157041894Y-98172009D01*
X157041896Y-98172004D01*
X157044270Y-98168132D01*
X157096080Y-98121254D01*
X157165009Y-98109829D01*
X157229173Y-98137483D01*
X157255730Y-98168132D01*
X157258103Y-98172005D01*
X157258105Y-98172008D01*
X157258106Y-98172009D01*
X157383794Y-98345004D01*
X157534996Y-98496206D01*
X157707991Y-98621894D01*
X157801438Y-98669507D01*
X157898516Y-98718972D01*
X157898519Y-98718973D01*
X158000200Y-98752010D01*
X158101884Y-98785049D01*
X158313084Y-98818500D01*
X158313085Y-98818500D01*
X158526915Y-98818500D01*
X158526916Y-98818500D01*
X158738116Y-98785049D01*
X158941483Y-98718972D01*
X159132009Y-98621894D01*
X159305004Y-98496206D01*
X159456206Y-98345004D01*
X159581894Y-98172009D01*
X159581896Y-98172004D01*
X159584270Y-98168132D01*
X159636080Y-98121254D01*
X159705009Y-98109829D01*
X159769173Y-98137483D01*
X159795730Y-98168132D01*
X159798103Y-98172005D01*
X159798105Y-98172008D01*
X159798106Y-98172009D01*
X159923794Y-98345004D01*
X160074996Y-98496206D01*
X160247991Y-98621894D01*
X160341438Y-98669507D01*
X160438516Y-98718972D01*
X160438519Y-98718973D01*
X160540200Y-98752010D01*
X160641884Y-98785049D01*
X160853084Y-98818500D01*
X160853085Y-98818500D01*
X161066915Y-98818500D01*
X161066916Y-98818500D01*
X161278116Y-98785049D01*
X161481483Y-98718972D01*
X161672009Y-98621894D01*
X161845004Y-98496206D01*
X161996206Y-98345004D01*
X162121894Y-98172009D01*
X162121896Y-98172004D01*
X162124270Y-98168132D01*
X162176080Y-98121254D01*
X162245009Y-98109829D01*
X162309173Y-98137483D01*
X162335730Y-98168132D01*
X162338103Y-98172005D01*
X162338105Y-98172008D01*
X162338106Y-98172009D01*
X162463794Y-98345004D01*
X162614996Y-98496206D01*
X162787991Y-98621894D01*
X162881438Y-98669507D01*
X162978516Y-98718972D01*
X162978519Y-98718973D01*
X163080200Y-98752010D01*
X163181884Y-98785049D01*
X163393084Y-98818500D01*
X163393085Y-98818500D01*
X163606915Y-98818500D01*
X163606916Y-98818500D01*
X163818116Y-98785049D01*
X164021483Y-98718972D01*
X164212009Y-98621894D01*
X164385004Y-98496206D01*
X164536206Y-98345004D01*
X164661894Y-98172009D01*
X164758972Y-97981483D01*
X164825049Y-97778116D01*
X164858500Y-97566916D01*
X164858500Y-97353084D01*
X164825049Y-97141884D01*
X164758972Y-96938517D01*
X164758972Y-96938516D01*
X164703495Y-96829638D01*
X164661894Y-96747991D01*
X164536206Y-96574996D01*
X164385004Y-96423794D01*
X164212009Y-96298106D01*
X164021483Y-96201027D01*
X164021480Y-96201026D01*
X163818117Y-96134951D01*
X163650777Y-96108447D01*
X163606916Y-96101500D01*
X163393084Y-96101500D01*
X163367680Y-96105523D01*
X163181883Y-96134950D01*
X163170342Y-96138700D01*
X163100500Y-96140690D01*
X163044351Y-96108447D01*
X159272751Y-92336847D01*
X159189942Y-92254038D01*
X164439500Y-92254038D01*
X164439500Y-92505962D01*
X164478910Y-92754785D01*
X164556760Y-92994383D01*
X164635413Y-93148747D01*
X164652297Y-93181884D01*
X164671132Y-93218848D01*
X164819201Y-93422649D01*
X164819205Y-93422654D01*
X164997345Y-93600794D01*
X164997350Y-93600798D01*
X165175117Y-93729952D01*
X165201155Y-93748870D01*
X165337058Y-93818116D01*
X165425616Y-93863239D01*
X165425618Y-93863239D01*
X165425621Y-93863241D01*
X165665215Y-93941090D01*
X165914038Y-93980500D01*
X165914039Y-93980500D01*
X166165961Y-93980500D01*
X166165962Y-93980500D01*
X166414785Y-93941090D01*
X166654379Y-93863241D01*
X166878845Y-93748870D01*
X167082656Y-93600793D01*
X167260793Y-93422656D01*
X167408870Y-93218845D01*
X167523241Y-92994379D01*
X167601090Y-92754785D01*
X167640500Y-92505962D01*
X167640500Y-92254038D01*
X167601090Y-92005215D01*
X167523241Y-91765621D01*
X167523239Y-91765618D01*
X167523239Y-91765616D01*
X167475543Y-91672009D01*
X167408870Y-91541155D01*
X167365514Y-91481480D01*
X167260798Y-91337350D01*
X167260794Y-91337345D01*
X167082654Y-91159205D01*
X167082649Y-91159201D01*
X166878848Y-91011132D01*
X166878847Y-91011131D01*
X166878845Y-91011130D01*
X166808747Y-90975413D01*
X166654383Y-90896760D01*
X166414785Y-90818910D01*
X166165962Y-90779500D01*
X165914038Y-90779500D01*
X165789626Y-90799205D01*
X165665214Y-90818910D01*
X165425616Y-90896760D01*
X165201151Y-91011132D01*
X164997350Y-91159201D01*
X164997345Y-91159205D01*
X164819205Y-91337345D01*
X164819201Y-91337350D01*
X164671132Y-91541151D01*
X164556760Y-91765616D01*
X164530965Y-91845006D01*
X164478910Y-92005215D01*
X164439500Y-92254038D01*
X159189942Y-92254038D01*
X153773836Y-86837931D01*
X153773832Y-86837928D01*
X153670081Y-86768603D01*
X153670072Y-86768598D01*
X153554785Y-86720845D01*
X153554777Y-86720843D01*
X153432398Y-86696500D01*
X153432394Y-86696500D01*
X119357500Y-86696500D01*
X119290461Y-86676815D01*
X119244706Y-86624011D01*
X119233500Y-86572500D01*
X119233500Y-76067500D01*
X119253185Y-76000461D01*
X119305989Y-75954706D01*
X119357500Y-75943500D01*
X120427395Y-75943500D01*
X120427396Y-75943499D01*
X120549785Y-75919155D01*
X120665075Y-75871400D01*
X120768833Y-75802071D01*
X122865268Y-73705634D01*
X122926589Y-73672151D01*
X122972340Y-73670844D01*
X123140639Y-73697500D01*
X123140640Y-73697500D01*
X123339360Y-73697500D01*
X123339361Y-73697500D01*
X123535636Y-73666413D01*
X123724632Y-73605005D01*
X123901694Y-73514787D01*
X124062464Y-73397981D01*
X124202981Y-73257464D01*
X124319787Y-73096694D01*
X124399515Y-72940218D01*
X124447490Y-72889423D01*
X124515311Y-72872628D01*
X124581446Y-72895165D01*
X124620484Y-72940218D01*
X124700213Y-73096694D01*
X124817019Y-73257464D01*
X124957536Y-73397981D01*
X125118306Y-73514787D01*
X125191851Y-73552260D01*
X125295367Y-73605005D01*
X125295370Y-73605006D01*
X125383332Y-73633586D01*
X125484364Y-73666413D01*
X125680639Y-73697500D01*
X125680640Y-73697500D01*
X125879360Y-73697500D01*
X125879361Y-73697500D01*
X126075636Y-73666413D01*
X126264632Y-73605005D01*
X126441694Y-73514787D01*
X126602464Y-73397981D01*
X126742981Y-73257464D01*
X126859787Y-73096694D01*
X126939515Y-72940218D01*
X126987490Y-72889423D01*
X127055311Y-72872628D01*
X127121446Y-72895165D01*
X127160484Y-72940218D01*
X127240213Y-73096694D01*
X127357019Y-73257464D01*
X127497536Y-73397981D01*
X127658306Y-73514787D01*
X127731851Y-73552260D01*
X127835367Y-73605005D01*
X127835370Y-73605006D01*
X127923332Y-73633586D01*
X128024364Y-73666413D01*
X128220639Y-73697500D01*
X128220640Y-73697500D01*
X128419360Y-73697500D01*
X128419361Y-73697500D01*
X128615636Y-73666413D01*
X128804632Y-73605005D01*
X128981694Y-73514787D01*
X129142464Y-73397981D01*
X129282981Y-73257464D01*
X129399787Y-73096694D01*
X129479515Y-72940218D01*
X129527490Y-72889423D01*
X129595311Y-72872628D01*
X129661446Y-72895165D01*
X129700484Y-72940218D01*
X129780213Y-73096694D01*
X129897019Y-73257464D01*
X130037536Y-73397981D01*
X130198306Y-73514787D01*
X130271851Y-73552260D01*
X130375367Y-73605005D01*
X130375370Y-73605006D01*
X130463332Y-73633586D01*
X130564364Y-73666413D01*
X130760639Y-73697500D01*
X130760640Y-73697500D01*
X130959360Y-73697500D01*
X130959361Y-73697500D01*
X131155636Y-73666413D01*
X131344632Y-73605005D01*
X131521694Y-73514787D01*
X131682464Y-73397981D01*
X131822981Y-73257464D01*
X131939787Y-73096694D01*
X132030005Y-72919632D01*
X132091413Y-72730636D01*
X132122500Y-72534361D01*
X132122500Y-72335639D01*
X132091413Y-72139364D01*
X132040996Y-71984194D01*
X132030006Y-71950370D01*
X132030005Y-71950367D01*
X131984035Y-71860149D01*
X131939787Y-71773306D01*
X131822981Y-71612536D01*
X131682464Y-71472019D01*
X131521694Y-71355213D01*
X131472211Y-71330000D01*
X131344632Y-71264994D01*
X131344629Y-71264993D01*
X131155637Y-71203587D01*
X131057498Y-71188043D01*
X130959361Y-71172500D01*
X130760639Y-71172500D01*
X130706972Y-71181000D01*
X130564362Y-71203587D01*
X130375370Y-71264993D01*
X130375367Y-71264994D01*
X130198305Y-71355213D01*
X130037533Y-71472021D01*
X129897021Y-71612533D01*
X129780213Y-71773305D01*
X129700485Y-71929780D01*
X129652510Y-71980576D01*
X129584689Y-71997371D01*
X129518554Y-71974833D01*
X129479515Y-71929780D01*
X129460179Y-71891832D01*
X129399787Y-71773306D01*
X129282981Y-71612536D01*
X129142464Y-71472019D01*
X128981694Y-71355213D01*
X128932211Y-71330000D01*
X128804632Y-71264994D01*
X128804629Y-71264993D01*
X128615637Y-71203587D01*
X128517498Y-71188043D01*
X128419361Y-71172500D01*
X128220639Y-71172500D01*
X128166972Y-71181000D01*
X128024362Y-71203587D01*
X127835370Y-71264993D01*
X127835367Y-71264994D01*
X127658305Y-71355213D01*
X127497533Y-71472021D01*
X127357021Y-71612533D01*
X127240213Y-71773305D01*
X127160485Y-71929780D01*
X127112510Y-71980576D01*
X127044689Y-71997371D01*
X126978554Y-71974833D01*
X126939515Y-71929780D01*
X126920179Y-71891832D01*
X126859787Y-71773306D01*
X126742981Y-71612536D01*
X126602464Y-71472019D01*
X126441694Y-71355213D01*
X126392211Y-71330000D01*
X126264632Y-71264994D01*
X126264629Y-71264993D01*
X126075637Y-71203587D01*
X125977498Y-71188043D01*
X125879361Y-71172500D01*
X125680639Y-71172500D01*
X125626972Y-71181000D01*
X125484362Y-71203587D01*
X125295370Y-71264993D01*
X125295367Y-71264994D01*
X125118305Y-71355213D01*
X124957533Y-71472021D01*
X124817021Y-71612533D01*
X124700213Y-71773305D01*
X124620485Y-71929780D01*
X124572510Y-71980576D01*
X124504689Y-71997371D01*
X124438554Y-71974833D01*
X124399515Y-71929780D01*
X124380179Y-71891832D01*
X124319787Y-71773306D01*
X124202981Y-71612536D01*
X124062464Y-71472019D01*
X123901694Y-71355213D01*
X123852211Y-71330000D01*
X123724632Y-71264994D01*
X123724629Y-71264993D01*
X123535637Y-71203587D01*
X123437498Y-71188043D01*
X123339361Y-71172500D01*
X123140639Y-71172500D01*
X123086972Y-71181000D01*
X122944362Y-71203587D01*
X122755370Y-71264993D01*
X122755367Y-71264994D01*
X122578305Y-71355213D01*
X122417533Y-71472021D01*
X122277021Y-71612533D01*
X122160213Y-71773305D01*
X122075715Y-71939141D01*
X122027740Y-71989937D01*
X121959919Y-72006732D01*
X121893784Y-71984194D01*
X121854745Y-71939141D01*
X121772520Y-71777768D01*
X121772512Y-71777755D01*
X121746542Y-71742010D01*
X121746541Y-71742009D01*
X121182962Y-72305590D01*
X121165925Y-72242007D01*
X121100099Y-72127993D01*
X121007007Y-72034901D01*
X120892993Y-71969075D01*
X120829409Y-71952037D01*
X121392989Y-71388457D01*
X121357239Y-71362483D01*
X121181373Y-71272873D01*
X120993646Y-71211876D01*
X120798697Y-71181000D01*
X120601303Y-71181000D01*
X120406353Y-71211876D01*
X120218626Y-71272873D01*
X120042762Y-71362482D01*
X120042760Y-71362483D01*
X120007010Y-71388456D01*
X120007010Y-71388457D01*
X120570591Y-71952037D01*
X120507007Y-71969075D01*
X120392993Y-72034901D01*
X120299901Y-72127993D01*
X120234075Y-72242007D01*
X120217037Y-72305590D01*
X119653456Y-71742010D01*
X119627483Y-71777760D01*
X119627479Y-71777767D01*
X119545253Y-71939142D01*
X119497278Y-71989937D01*
X119429457Y-72006732D01*
X119363323Y-71984194D01*
X119324285Y-71939142D01*
X119239787Y-71773306D01*
X119122981Y-71612536D01*
X118982464Y-71472019D01*
X118821694Y-71355213D01*
X118772211Y-71330000D01*
X118644632Y-71264994D01*
X118644629Y-71264993D01*
X118455637Y-71203587D01*
X118357498Y-71188043D01*
X118259361Y-71172500D01*
X118060639Y-71172500D01*
X118006972Y-71181000D01*
X117864362Y-71203587D01*
X117675370Y-71264993D01*
X117675367Y-71264994D01*
X117498305Y-71355213D01*
X117337533Y-71472021D01*
X117197021Y-71612533D01*
X117197021Y-71612534D01*
X117197019Y-71612536D01*
X117182627Y-71632345D01*
X117106818Y-71736687D01*
X117051488Y-71779352D01*
X116981874Y-71785331D01*
X116920079Y-71752725D01*
X116885722Y-71691886D01*
X116882500Y-71663801D01*
X116882500Y-71632362D01*
X116882499Y-71632345D01*
X116879157Y-71601270D01*
X116875989Y-71571799D01*
X116866338Y-71545925D01*
X116838773Y-71472021D01*
X116824889Y-71434796D01*
X116737261Y-71317739D01*
X116620204Y-71230111D01*
X116571315Y-71211876D01*
X116483203Y-71179011D01*
X116422654Y-71172500D01*
X116422638Y-71172500D01*
X115304766Y-71172500D01*
X115237727Y-71152815D01*
X115217085Y-71136181D01*
X114489819Y-70408915D01*
X114456334Y-70347592D01*
X114453500Y-70321234D01*
X114453500Y-67224639D01*
X134532500Y-67224639D01*
X134532500Y-67423360D01*
X134563587Y-67619637D01*
X134624993Y-67808629D01*
X134624994Y-67808632D01*
X134688109Y-67932500D01*
X134715213Y-67985694D01*
X134832019Y-68146464D01*
X134972536Y-68286981D01*
X135133306Y-68403787D01*
X135251832Y-68464179D01*
X135289780Y-68483515D01*
X135340576Y-68531490D01*
X135357371Y-68599311D01*
X135334833Y-68665446D01*
X135289780Y-68704485D01*
X135133305Y-68784213D01*
X134972533Y-68901021D01*
X134832021Y-69041533D01*
X134715213Y-69202305D01*
X134624994Y-69379367D01*
X134624993Y-69379370D01*
X134563587Y-69568362D01*
X134532500Y-69764639D01*
X134532500Y-69963360D01*
X134563587Y-70159637D01*
X134624993Y-70348629D01*
X134624994Y-70348632D01*
X134715213Y-70525694D01*
X134832019Y-70686464D01*
X134972536Y-70826981D01*
X135133306Y-70943787D01*
X135251832Y-71004179D01*
X135289780Y-71023515D01*
X135340576Y-71071490D01*
X135357371Y-71139311D01*
X135334833Y-71205446D01*
X135289780Y-71244485D01*
X135133305Y-71324213D01*
X134972533Y-71441021D01*
X134832021Y-71581533D01*
X134715213Y-71742305D01*
X134624994Y-71919367D01*
X134624993Y-71919370D01*
X134563587Y-72108362D01*
X134532500Y-72304639D01*
X134532500Y-72503360D01*
X134563587Y-72699637D01*
X134624993Y-72888629D01*
X134624994Y-72888632D01*
X134715213Y-73065694D01*
X134832019Y-73226464D01*
X134972536Y-73366981D01*
X135133306Y-73483787D01*
X135194145Y-73514786D01*
X135289780Y-73563515D01*
X135340576Y-73611490D01*
X135357371Y-73679311D01*
X135334833Y-73745446D01*
X135289780Y-73784485D01*
X135133305Y-73864213D01*
X134972533Y-73981021D01*
X134832021Y-74121533D01*
X134715213Y-74282305D01*
X134624994Y-74459367D01*
X134624993Y-74459370D01*
X134563587Y-74648362D01*
X134554271Y-74707180D01*
X134532500Y-74844639D01*
X134532500Y-75043361D01*
X134540527Y-75094044D01*
X134563587Y-75239637D01*
X134624993Y-75428629D01*
X134624994Y-75428632D01*
X134688550Y-75553366D01*
X134715213Y-75605694D01*
X134832019Y-75766464D01*
X134972536Y-75906981D01*
X135133306Y-76023787D01*
X135219097Y-76067500D01*
X135289780Y-76103515D01*
X135340576Y-76151490D01*
X135357371Y-76219311D01*
X135334833Y-76285446D01*
X135289780Y-76324485D01*
X135133305Y-76404213D01*
X134972533Y-76521021D01*
X134832021Y-76661533D01*
X134715213Y-76822305D01*
X134624994Y-76999367D01*
X134624993Y-76999370D01*
X134563587Y-77188362D01*
X134532500Y-77384639D01*
X134532500Y-77583360D01*
X134563587Y-77779637D01*
X134624993Y-77968629D01*
X134624994Y-77968632D01*
X134700847Y-78117500D01*
X134715213Y-78145694D01*
X134832019Y-78306464D01*
X134972536Y-78446981D01*
X135133306Y-78563787D01*
X135220149Y-78608035D01*
X135310367Y-78654005D01*
X135310370Y-78654006D01*
X135404866Y-78684709D01*
X135499364Y-78715413D01*
X135695639Y-78746500D01*
X135695640Y-78746500D01*
X135894360Y-78746500D01*
X135894361Y-78746500D01*
X136090636Y-78715413D01*
X136279632Y-78654005D01*
X136456694Y-78563787D01*
X136617464Y-78446981D01*
X136757981Y-78306464D01*
X136874787Y-78145694D01*
X136965005Y-77968632D01*
X137026413Y-77779636D01*
X137057500Y-77583361D01*
X137057500Y-77384639D01*
X137026413Y-77188364D01*
X136965005Y-76999368D01*
X136965005Y-76999367D01*
X136901556Y-76874843D01*
X136874787Y-76822306D01*
X136757981Y-76661536D01*
X136617464Y-76521019D01*
X136456694Y-76404213D01*
X136300218Y-76324484D01*
X136249423Y-76276510D01*
X136232628Y-76208689D01*
X136255165Y-76142554D01*
X136300218Y-76103515D01*
X136456694Y-76023787D01*
X136617464Y-75906981D01*
X136757981Y-75766464D01*
X136874787Y-75605694D01*
X136965005Y-75428632D01*
X137026413Y-75239636D01*
X137057500Y-75043361D01*
X137057500Y-74844639D01*
X137026413Y-74648364D01*
X136988088Y-74530410D01*
X136965006Y-74459370D01*
X136965005Y-74459367D01*
X136910527Y-74352449D01*
X136874787Y-74282306D01*
X136757981Y-74121536D01*
X136617464Y-73981019D01*
X136456694Y-73864213D01*
X136300218Y-73784484D01*
X136249423Y-73736510D01*
X136232628Y-73668689D01*
X136255165Y-73602554D01*
X136300218Y-73563515D01*
X136456694Y-73483787D01*
X136617464Y-73366981D01*
X136757981Y-73226464D01*
X136874787Y-73065694D01*
X136965005Y-72888632D01*
X137026413Y-72699636D01*
X137057500Y-72503361D01*
X137057500Y-72304639D01*
X137026413Y-72108364D01*
X136993391Y-72006732D01*
X136965006Y-71919370D01*
X136965005Y-71919367D01*
X136890582Y-71773305D01*
X136874787Y-71742306D01*
X136757981Y-71581536D01*
X136617464Y-71441019D01*
X136456694Y-71324213D01*
X136300218Y-71244484D01*
X136249423Y-71196510D01*
X136232628Y-71128689D01*
X136255165Y-71062554D01*
X136300218Y-71023515D01*
X136456694Y-70943787D01*
X136617464Y-70826981D01*
X136757981Y-70686464D01*
X136874787Y-70525694D01*
X136965005Y-70348632D01*
X137026413Y-70159636D01*
X137057500Y-69963361D01*
X137057500Y-69764639D01*
X137026413Y-69568364D01*
X136965005Y-69379368D01*
X136965005Y-69379367D01*
X136874786Y-69202305D01*
X136783350Y-69076454D01*
X136757981Y-69041536D01*
X136617464Y-68901019D01*
X136456694Y-68784213D01*
X136300218Y-68704484D01*
X136249423Y-68656510D01*
X136232628Y-68588689D01*
X136255165Y-68522554D01*
X136300218Y-68483515D01*
X136456694Y-68403787D01*
X136617464Y-68286981D01*
X136757981Y-68146464D01*
X136874787Y-67985694D01*
X136965005Y-67808632D01*
X137026413Y-67619636D01*
X137057500Y-67423361D01*
X137057500Y-67224639D01*
X137026413Y-67028364D01*
X136965005Y-66839368D01*
X136965005Y-66839367D01*
X136900447Y-66712666D01*
X136874787Y-66662306D01*
X136757981Y-66501536D01*
X136617464Y-66361019D01*
X136456694Y-66244213D01*
X136279632Y-66153994D01*
X136279629Y-66153993D01*
X136090637Y-66092587D01*
X135992498Y-66077043D01*
X135894361Y-66061500D01*
X135695639Y-66061500D01*
X135630214Y-66071862D01*
X135499362Y-66092587D01*
X135310370Y-66153993D01*
X135310367Y-66153994D01*
X135133305Y-66244213D01*
X134972533Y-66361021D01*
X134832021Y-66501533D01*
X134715213Y-66662305D01*
X134624994Y-66839367D01*
X134624993Y-66839370D01*
X134563587Y-67028362D01*
X134532500Y-67224639D01*
X114453500Y-67224639D01*
X114453500Y-58326283D01*
X114773500Y-58326283D01*
X114773500Y-58603716D01*
X114773501Y-58603732D01*
X114809713Y-58878793D01*
X114881521Y-59146784D01*
X114987691Y-59403102D01*
X114987699Y-59403119D01*
X115071111Y-59547590D01*
X115126419Y-59643387D01*
X115126421Y-59643390D01*
X115126422Y-59643391D01*
X115295315Y-59863498D01*
X115295321Y-59863505D01*
X115491494Y-60059678D01*
X115491500Y-60059683D01*
X115711613Y-60228581D01*
X115866038Y-60317738D01*
X115951880Y-60367300D01*
X115951885Y-60367302D01*
X115951888Y-60367304D01*
X115951892Y-60367305D01*
X115951897Y-60367308D01*
X116053510Y-60409397D01*
X116208214Y-60473478D01*
X116476205Y-60545286D01*
X116751277Y-60581500D01*
X116751284Y-60581500D01*
X117028716Y-60581500D01*
X117028723Y-60581500D01*
X117303795Y-60545286D01*
X117571786Y-60473478D01*
X117828112Y-60367304D01*
X118068387Y-60228581D01*
X118288500Y-60059683D01*
X118484683Y-59863500D01*
X118653581Y-59643387D01*
X118792304Y-59403112D01*
X118898478Y-59146786D01*
X118970286Y-58878795D01*
X119006500Y-58603723D01*
X119006500Y-58326283D01*
X127473500Y-58326283D01*
X127473500Y-58603716D01*
X127473501Y-58603732D01*
X127509713Y-58878793D01*
X127581521Y-59146784D01*
X127687691Y-59403102D01*
X127687699Y-59403119D01*
X127771111Y-59547590D01*
X127826419Y-59643387D01*
X127826421Y-59643390D01*
X127826422Y-59643391D01*
X127995315Y-59863498D01*
X127995321Y-59863505D01*
X128191494Y-60059678D01*
X128191500Y-60059683D01*
X128411613Y-60228581D01*
X128566038Y-60317738D01*
X128651880Y-60367300D01*
X128651885Y-60367302D01*
X128651888Y-60367304D01*
X128651892Y-60367305D01*
X128651897Y-60367308D01*
X128753510Y-60409397D01*
X128908214Y-60473478D01*
X129176205Y-60545286D01*
X129451277Y-60581500D01*
X129451284Y-60581500D01*
X129728716Y-60581500D01*
X129728723Y-60581500D01*
X130003795Y-60545286D01*
X130271786Y-60473478D01*
X130528112Y-60367304D01*
X130768387Y-60228581D01*
X130988500Y-60059683D01*
X131184683Y-59863500D01*
X131353581Y-59643387D01*
X131492304Y-59403112D01*
X131598478Y-59146786D01*
X131670286Y-58878795D01*
X131706500Y-58603723D01*
X131706500Y-58326277D01*
X131670286Y-58051205D01*
X131598478Y-57783214D01*
X131492304Y-57526888D01*
X131492302Y-57526885D01*
X131492300Y-57526880D01*
X131418678Y-57399364D01*
X131353581Y-57286613D01*
X131202708Y-57089991D01*
X131184684Y-57066501D01*
X131184678Y-57066494D01*
X130988505Y-56870321D01*
X130988498Y-56870315D01*
X130768391Y-56701422D01*
X130768390Y-56701421D01*
X130768387Y-56701419D01*
X130672590Y-56646111D01*
X130528119Y-56562699D01*
X130528102Y-56562691D01*
X130271784Y-56456521D01*
X130003793Y-56384713D01*
X129728732Y-56348501D01*
X129728729Y-56348500D01*
X129728723Y-56348500D01*
X129451277Y-56348500D01*
X129451271Y-56348500D01*
X129451267Y-56348501D01*
X129176206Y-56384713D01*
X128908215Y-56456521D01*
X128651897Y-56562691D01*
X128651880Y-56562699D01*
X128411608Y-56701422D01*
X128191501Y-56870315D01*
X128191494Y-56870321D01*
X127995321Y-57066494D01*
X127995315Y-57066501D01*
X127826422Y-57286608D01*
X127687699Y-57526880D01*
X127687691Y-57526897D01*
X127581521Y-57783215D01*
X127509713Y-58051206D01*
X127473501Y-58326267D01*
X127473500Y-58326283D01*
X119006500Y-58326283D01*
X119006500Y-58326277D01*
X118970286Y-58051205D01*
X118898478Y-57783214D01*
X118792304Y-57526888D01*
X118792302Y-57526885D01*
X118792300Y-57526880D01*
X118718678Y-57399364D01*
X118653581Y-57286613D01*
X118502708Y-57089991D01*
X118484684Y-57066501D01*
X118484678Y-57066494D01*
X118288505Y-56870321D01*
X118288498Y-56870315D01*
X118068391Y-56701422D01*
X118068390Y-56701421D01*
X118068387Y-56701419D01*
X117972590Y-56646111D01*
X117828119Y-56562699D01*
X117828102Y-56562691D01*
X117571784Y-56456521D01*
X117303793Y-56384713D01*
X117028732Y-56348501D01*
X117028729Y-56348500D01*
X117028723Y-56348500D01*
X116751277Y-56348500D01*
X116751271Y-56348500D01*
X116751267Y-56348501D01*
X116476206Y-56384713D01*
X116208215Y-56456521D01*
X115951897Y-56562691D01*
X115951880Y-56562699D01*
X115711608Y-56701422D01*
X115491501Y-56870315D01*
X115491494Y-56870321D01*
X115295321Y-57066494D01*
X115295315Y-57066501D01*
X115126422Y-57286608D01*
X114987699Y-57526880D01*
X114987691Y-57526897D01*
X114881521Y-57783215D01*
X114809713Y-58051206D01*
X114773501Y-58326267D01*
X114773500Y-58326283D01*
X114453500Y-58326283D01*
X114453500Y-51691209D01*
X114453499Y-51691205D01*
X114429156Y-51568826D01*
X114429155Y-51568819D01*
X114381400Y-51453529D01*
X114381399Y-51453528D01*
X114381396Y-51453522D01*
X114312072Y-51349772D01*
X114297045Y-51334745D01*
X114223833Y-51261533D01*
X113723389Y-50761089D01*
X113156232Y-50193931D01*
X113156228Y-50193928D01*
X113052477Y-50124603D01*
X113052468Y-50124598D01*
X112937181Y-50076845D01*
X112937173Y-50076843D01*
X112814794Y-50052500D01*
X112814790Y-50052500D01*
X111995083Y-50052500D01*
X111928044Y-50032815D01*
X111882289Y-49980011D01*
X111872345Y-49910853D01*
X111877152Y-49890182D01*
X111943088Y-49687253D01*
X111943088Y-49687252D01*
X111943089Y-49687249D01*
X111969877Y-49518116D01*
X111977500Y-49469991D01*
X111977500Y-49250008D01*
X111951929Y-49088564D01*
X111949628Y-49074038D01*
X113639500Y-49074038D01*
X113639500Y-49325961D01*
X113678910Y-49574785D01*
X113756760Y-49814383D01*
X113871132Y-50038848D01*
X114019201Y-50242649D01*
X114019205Y-50242654D01*
X114197345Y-50420794D01*
X114197350Y-50420798D01*
X114323748Y-50512631D01*
X114401155Y-50568870D01*
X114539119Y-50639166D01*
X114625616Y-50683239D01*
X114625618Y-50683239D01*
X114625621Y-50683241D01*
X114865215Y-50761090D01*
X115114038Y-50800500D01*
X115114039Y-50800500D01*
X115365961Y-50800500D01*
X115365962Y-50800500D01*
X115614785Y-50761090D01*
X115854379Y-50683241D01*
X116078845Y-50568870D01*
X116282656Y-50420793D01*
X116460793Y-50242656D01*
X116608870Y-50038845D01*
X116723241Y-49814379D01*
X116801090Y-49574785D01*
X116840500Y-49325962D01*
X116840500Y-49074038D01*
X116801090Y-48825215D01*
X116723241Y-48585621D01*
X116723239Y-48585618D01*
X116723239Y-48585616D01*
X116673498Y-48487994D01*
X116608870Y-48361155D01*
X116560111Y-48294044D01*
X116460798Y-48157350D01*
X116460794Y-48157345D01*
X116282654Y-47979205D01*
X116282649Y-47979201D01*
X116078848Y-47831132D01*
X116078847Y-47831131D01*
X116078845Y-47831130D01*
X116008747Y-47795413D01*
X115854383Y-47716760D01*
X115614785Y-47638910D01*
X115557387Y-47629819D01*
X115365962Y-47599500D01*
X115114038Y-47599500D01*
X114989626Y-47619205D01*
X114865214Y-47638910D01*
X114625616Y-47716760D01*
X114401151Y-47831132D01*
X114197350Y-47979201D01*
X114197345Y-47979205D01*
X114019205Y-48157345D01*
X114019201Y-48157350D01*
X113871132Y-48361151D01*
X113756760Y-48585616D01*
X113678910Y-48825214D01*
X113639500Y-49074038D01*
X111949628Y-49074038D01*
X111943089Y-49032751D01*
X111875114Y-48823546D01*
X111875112Y-48823543D01*
X111875112Y-48823541D01*
X111822430Y-48720148D01*
X111775249Y-48627551D01*
X111645953Y-48449590D01*
X111490410Y-48294047D01*
X111347638Y-48190317D01*
X111304973Y-48134988D01*
X111298994Y-48065375D01*
X111331600Y-48003580D01*
X111347639Y-47989682D01*
X111362065Y-47979201D01*
X111490410Y-47885953D01*
X111645953Y-47730410D01*
X111775249Y-47552449D01*
X111875114Y-47356454D01*
X111943089Y-47147249D01*
X111977500Y-46929991D01*
X111977500Y-46710008D01*
X111943089Y-46492750D01*
X111875112Y-46283541D01*
X111775248Y-46087550D01*
X111645953Y-45909590D01*
X111490410Y-45754047D01*
X111347638Y-45650317D01*
X111304973Y-45594988D01*
X111298994Y-45525375D01*
X111331600Y-45463580D01*
X111347639Y-45449682D01*
X111490410Y-45345953D01*
X111645953Y-45190410D01*
X111775249Y-45012449D01*
X111875114Y-44816454D01*
X111943089Y-44607249D01*
X111952977Y-44544819D01*
X111977500Y-44389991D01*
X111977500Y-44170008D01*
X111943089Y-43952750D01*
X111911550Y-43855685D01*
X111875114Y-43743546D01*
X111875112Y-43743543D01*
X111875112Y-43743541D01*
X111775248Y-43547550D01*
X111699891Y-43443830D01*
X111645953Y-43369590D01*
X111490410Y-43214047D01*
X111347638Y-43110317D01*
X111304973Y-43054988D01*
X111298994Y-42985375D01*
X111331600Y-42923580D01*
X111347639Y-42909682D01*
X111490410Y-42805953D01*
X111645953Y-42650410D01*
X111775249Y-42472449D01*
X111875114Y-42276454D01*
X111943089Y-42067249D01*
X111958891Y-41967482D01*
X111977500Y-41849991D01*
X111977500Y-41630008D01*
X111957480Y-41503618D01*
X111943089Y-41412751D01*
X111943088Y-41412747D01*
X111943088Y-41412746D01*
X111920399Y-41342917D01*
X111875112Y-41203541D01*
X111817207Y-41089897D01*
X111775249Y-41007551D01*
X111645953Y-40829590D01*
X111490410Y-40674047D01*
X111312449Y-40544751D01*
X111198481Y-40486681D01*
X111147686Y-40438707D01*
X111130891Y-40370886D01*
X111153428Y-40304752D01*
X111181892Y-40275878D01*
X111202656Y-40260793D01*
X111380793Y-40082656D01*
X111528870Y-39878845D01*
X111643241Y-39654379D01*
X111721090Y-39414785D01*
X111760500Y-39165962D01*
X111760500Y-38914038D01*
X111742410Y-38799824D01*
X111724705Y-38688036D01*
X111723212Y-38678613D01*
X111721090Y-38665215D01*
X111643241Y-38425621D01*
X111643239Y-38425618D01*
X111643239Y-38425616D01*
X111596171Y-38333241D01*
X111528870Y-38201155D01*
X111454452Y-38098727D01*
X111380798Y-37997350D01*
X111380794Y-37997345D01*
X111202654Y-37819205D01*
X111202649Y-37819201D01*
X110998849Y-37671132D01*
X110989131Y-37666180D01*
X110886262Y-37613766D01*
X110774383Y-37556760D01*
X110667880Y-37522155D01*
X158825000Y-37522155D01*
X158825000Y-38220000D01*
X159849722Y-38220000D01*
X159805667Y-38296306D01*
X159775000Y-38410756D01*
X159775000Y-38529244D01*
X159805667Y-38643694D01*
X159849722Y-38720000D01*
X158825000Y-38720000D01*
X158825000Y-39417844D01*
X158831401Y-39477372D01*
X158831403Y-39477379D01*
X158881645Y-39612086D01*
X158881649Y-39612093D01*
X158967809Y-39727187D01*
X158967812Y-39727190D01*
X159082906Y-39813350D01*
X159082913Y-39813354D01*
X159217620Y-39863596D01*
X159217627Y-39863598D01*
X159277155Y-39869999D01*
X159277172Y-39870000D01*
X159975000Y-39870000D01*
X159975000Y-38845277D01*
X160051306Y-38889333D01*
X160165756Y-38920000D01*
X160284244Y-38920000D01*
X160398694Y-38889333D01*
X160475000Y-38845277D01*
X160475000Y-39870000D01*
X161172828Y-39870000D01*
X161172844Y-39869999D01*
X161232372Y-39863598D01*
X161232379Y-39863596D01*
X161367086Y-39813354D01*
X161367093Y-39813350D01*
X161482187Y-39727190D01*
X161482190Y-39727187D01*
X161568350Y-39612093D01*
X161568354Y-39612086D01*
X161595140Y-39540270D01*
X161637011Y-39484336D01*
X161702475Y-39459919D01*
X161770748Y-39474770D01*
X161799003Y-39495922D01*
X161847424Y-39544343D01*
X162026785Y-39674657D01*
X162120114Y-39722210D01*
X162224319Y-39775306D01*
X162224321Y-39775306D01*
X162224324Y-39775308D01*
X162435176Y-39843818D01*
X162654149Y-39878500D01*
X162654150Y-39878500D01*
X162875850Y-39878500D01*
X162875851Y-39878500D01*
X163094824Y-39843818D01*
X163305676Y-39775308D01*
X163503215Y-39674657D01*
X163682576Y-39544343D01*
X163839343Y-39387576D01*
X163969657Y-39208215D01*
X164070308Y-39010676D01*
X164138818Y-38799824D01*
X164173500Y-38580851D01*
X164173500Y-38359149D01*
X164138818Y-38140176D01*
X164070308Y-37929324D01*
X164070305Y-37929320D01*
X164070305Y-37929317D01*
X164061839Y-37912702D01*
X164061838Y-37912701D01*
X164035634Y-37861272D01*
X166591500Y-37861272D01*
X166591500Y-38098727D01*
X166628643Y-38333241D01*
X166702019Y-38559067D01*
X166784019Y-38720000D01*
X166809815Y-38770627D01*
X166949380Y-38962722D01*
X167117278Y-39130620D01*
X167309373Y-39270185D01*
X167409328Y-39321114D01*
X167520932Y-39377980D01*
X167520934Y-39377980D01*
X167520937Y-39377982D01*
X167634205Y-39414785D01*
X167746758Y-39451356D01*
X167981273Y-39488500D01*
X167981278Y-39488500D01*
X168218727Y-39488500D01*
X168453241Y-39451356D01*
X168679063Y-39377982D01*
X168890627Y-39270185D01*
X169082722Y-39130620D01*
X169250620Y-38962722D01*
X169390185Y-38770627D01*
X169497982Y-38559063D01*
X169571356Y-38333241D01*
X169589292Y-38220000D01*
X169608500Y-38098727D01*
X169608500Y-37861272D01*
X169571356Y-37626758D01*
X169497980Y-37400932D01*
X169441114Y-37289328D01*
X169390185Y-37189373D01*
X169250620Y-36997278D01*
X169082722Y-36829380D01*
X168890627Y-36689815D01*
X168679067Y-36582019D01*
X168453241Y-36508643D01*
X168218727Y-36471500D01*
X168218722Y-36471500D01*
X167981278Y-36471500D01*
X167981273Y-36471500D01*
X167746758Y-36508643D01*
X167520932Y-36582019D01*
X167309372Y-36689815D01*
X167117275Y-36829382D01*
X166949382Y-36997275D01*
X166809815Y-37189372D01*
X166702019Y-37400932D01*
X166628643Y-37626758D01*
X166591500Y-37861272D01*
X164035634Y-37861272D01*
X164029335Y-37848910D01*
X163969657Y-37731785D01*
X163839343Y-37552424D01*
X163682576Y-37395657D01*
X163503215Y-37265343D01*
X163305680Y-37164693D01*
X163094824Y-37096182D01*
X162875851Y-37061500D01*
X162654149Y-37061500D01*
X162544662Y-37078841D01*
X162435175Y-37096182D01*
X162224319Y-37164693D01*
X162026784Y-37265343D01*
X161940675Y-37327906D01*
X161847424Y-37395657D01*
X161847422Y-37395659D01*
X161847420Y-37395660D01*
X161799002Y-37444078D01*
X161737679Y-37477562D01*
X161667987Y-37472577D01*
X161612054Y-37430705D01*
X161595140Y-37399729D01*
X161568354Y-37327913D01*
X161568350Y-37327906D01*
X161482190Y-37212812D01*
X161482187Y-37212809D01*
X161367093Y-37126649D01*
X161367086Y-37126645D01*
X161232379Y-37076403D01*
X161232372Y-37076401D01*
X161172844Y-37070000D01*
X160475000Y-37070000D01*
X160475000Y-38094722D01*
X160398694Y-38050667D01*
X160284244Y-38020000D01*
X160165756Y-38020000D01*
X160051306Y-38050667D01*
X159975000Y-38094722D01*
X159975000Y-37070000D01*
X159277155Y-37070000D01*
X159217627Y-37076401D01*
X159217620Y-37076403D01*
X159082913Y-37126645D01*
X159082906Y-37126649D01*
X158967812Y-37212809D01*
X158967809Y-37212812D01*
X158881649Y-37327906D01*
X158881645Y-37327913D01*
X158831403Y-37462620D01*
X158831401Y-37462627D01*
X158825000Y-37522155D01*
X110667880Y-37522155D01*
X110534785Y-37478910D01*
X110431979Y-37462627D01*
X110285962Y-37439500D01*
X110034038Y-37439500D01*
X109909626Y-37459205D01*
X109785214Y-37478910D01*
X109545616Y-37556760D01*
X109321151Y-37671132D01*
X109117350Y-37819201D01*
X109117345Y-37819205D01*
X108939205Y-37997345D01*
X108939201Y-37997350D01*
X108791132Y-38201151D01*
X108676760Y-38425616D01*
X108598910Y-38665214D01*
X108577590Y-38799824D01*
X108559500Y-38914038D01*
X108559500Y-39165962D01*
X108594601Y-39387577D01*
X108598910Y-39414785D01*
X108676760Y-39654383D01*
X108738374Y-39775306D01*
X108790954Y-39878500D01*
X108791132Y-39878848D01*
X108939201Y-40082649D01*
X108939205Y-40082654D01*
X109117345Y-40260794D01*
X109117350Y-40260798D01*
X109268874Y-40370886D01*
X109321155Y-40408870D01*
X109473870Y-40486682D01*
X109545623Y-40523242D01*
X109560564Y-40528097D01*
X109618240Y-40567535D01*
X109645438Y-40631893D01*
X109633523Y-40700740D01*
X109609928Y-40733709D01*
X109514046Y-40829591D01*
X109384751Y-41007550D01*
X109284887Y-41203541D01*
X109216910Y-41412750D01*
X109182500Y-41630008D01*
X109182500Y-41849991D01*
X109216910Y-42067249D01*
X109284887Y-42276458D01*
X109328447Y-42361947D01*
X109384751Y-42472449D01*
X109514047Y-42650410D01*
X109669590Y-42805953D01*
X109707580Y-42833554D01*
X109812361Y-42909682D01*
X109855026Y-42965012D01*
X109861005Y-43034625D01*
X109828399Y-43096420D01*
X109812361Y-43110318D01*
X109669587Y-43214049D01*
X109514049Y-43369587D01*
X109384751Y-43547550D01*
X109284887Y-43743541D01*
X109216910Y-43952750D01*
X109182500Y-44170008D01*
X109182500Y-44389991D01*
X109216910Y-44607249D01*
X109284887Y-44816458D01*
X109384751Y-45012449D01*
X109514047Y-45190410D01*
X109669590Y-45345953D01*
X109812361Y-45449682D01*
X109855026Y-45505012D01*
X109861005Y-45574625D01*
X109828399Y-45636420D01*
X109812361Y-45650318D01*
X109669587Y-45754049D01*
X109514049Y-45909587D01*
X109384751Y-46087550D01*
X109284887Y-46283541D01*
X109216910Y-46492750D01*
X109182500Y-46710008D01*
X109182500Y-46929991D01*
X109216910Y-47147249D01*
X109284887Y-47356458D01*
X109384751Y-47552449D01*
X109514047Y-47730410D01*
X109669590Y-47885953D01*
X109797935Y-47979201D01*
X109812361Y-47989682D01*
X109855026Y-48045012D01*
X109861005Y-48114625D01*
X109828399Y-48176420D01*
X109812361Y-48190318D01*
X109669587Y-48294049D01*
X109514049Y-48449587D01*
X109384751Y-48627550D01*
X109284887Y-48823541D01*
X109216910Y-49032750D01*
X109182500Y-49250008D01*
X109182500Y-49469991D01*
X109216910Y-49687249D01*
X109284887Y-49896458D01*
X109353565Y-50031244D01*
X109378132Y-50079459D01*
X109384753Y-50092452D01*
X109486632Y-50232677D01*
X109510112Y-50298483D01*
X109494287Y-50366537D01*
X109473995Y-50393243D01*
X109066740Y-50800500D01*
X108962167Y-50905073D01*
X108918047Y-50949193D01*
X108873927Y-50993312D01*
X108804603Y-51097062D01*
X108804598Y-51097071D01*
X108756845Y-51212358D01*
X108756843Y-51212366D01*
X108732500Y-51334745D01*
X108732500Y-55828398D01*
X108756843Y-55950777D01*
X108756845Y-55950785D01*
X108804598Y-56066072D01*
X108804603Y-56066081D01*
X108873928Y-56169832D01*
X108873931Y-56169836D01*
X109197497Y-56493401D01*
X109230982Y-56554724D01*
X109227747Y-56619400D01*
X109216911Y-56652749D01*
X109182500Y-56870008D01*
X109182500Y-57089991D01*
X109216910Y-57307249D01*
X109284887Y-57516458D01*
X109352233Y-57648629D01*
X109384751Y-57712449D01*
X109514047Y-57890410D01*
X109514049Y-57890412D01*
X109552571Y-57928934D01*
X109586056Y-57990257D01*
X109581072Y-58059949D01*
X109539200Y-58115882D01*
X109503212Y-58134544D01*
X109465621Y-58146759D01*
X109465615Y-58146761D01*
X109241151Y-58261132D01*
X109037350Y-58409201D01*
X109037345Y-58409205D01*
X108859205Y-58587345D01*
X108859201Y-58587350D01*
X108711132Y-58791151D01*
X108596760Y-59015616D01*
X108518910Y-59255214D01*
X108495487Y-59403102D01*
X108479500Y-59504038D01*
X108479500Y-59755962D01*
X108496533Y-59863505D01*
X108518910Y-60004785D01*
X108596760Y-60244383D01*
X108711132Y-60468848D01*
X108859201Y-60672649D01*
X108859205Y-60672654D01*
X109037345Y-60850794D01*
X109037350Y-60850798D01*
X109196601Y-60966500D01*
X109241155Y-60998870D01*
X109332566Y-61045446D01*
X109465616Y-61113239D01*
X109465618Y-61113239D01*
X109465621Y-61113241D01*
X109705215Y-61191090D01*
X109954038Y-61230500D01*
X109954039Y-61230500D01*
X110205961Y-61230500D01*
X110205962Y-61230500D01*
X110454785Y-61191090D01*
X110694379Y-61113241D01*
X110918845Y-60998870D01*
X111122656Y-60850793D01*
X111300793Y-60672656D01*
X111448870Y-60468845D01*
X111563241Y-60244379D01*
X111641090Y-60004785D01*
X111680500Y-59755962D01*
X111680500Y-59504038D01*
X111641090Y-59255215D01*
X111563241Y-59015621D01*
X111563239Y-59015618D01*
X111563239Y-59015616D01*
X111494921Y-58881536D01*
X111448870Y-58791155D01*
X111312700Y-58603732D01*
X111300798Y-58587350D01*
X111300794Y-58587345D01*
X111152414Y-58438965D01*
X111118929Y-58377642D01*
X111123913Y-58307950D01*
X111165785Y-58252017D01*
X111183797Y-58240800D01*
X111312449Y-58175249D01*
X111490410Y-58045953D01*
X111645953Y-57890410D01*
X111775249Y-57712449D01*
X111875114Y-57516454D01*
X111943089Y-57307249D01*
X111946358Y-57286608D01*
X111977500Y-57089991D01*
X111977500Y-56870008D01*
X111943089Y-56652750D01*
X111875112Y-56443541D01*
X111775248Y-56247550D01*
X111741443Y-56201021D01*
X111645953Y-56069590D01*
X111490410Y-55914047D01*
X111340409Y-55805065D01*
X111297743Y-55749735D01*
X111291764Y-55680122D01*
X111324370Y-55618327D01*
X111340409Y-55604428D01*
X111484873Y-55499469D01*
X111639471Y-55344871D01*
X111639475Y-55344866D01*
X111767976Y-55167998D01*
X111867237Y-54973191D01*
X111867238Y-54973188D01*
X111934798Y-54765258D01*
X111946718Y-54690000D01*
X111013012Y-54690000D01*
X111045925Y-54632993D01*
X111080000Y-54505826D01*
X111080000Y-54374174D01*
X111045925Y-54247007D01*
X111013012Y-54190000D01*
X111946718Y-54190000D01*
X111934798Y-54114741D01*
X111867238Y-53906811D01*
X111867237Y-53906808D01*
X111767976Y-53712001D01*
X111639475Y-53535133D01*
X111639471Y-53535128D01*
X111484871Y-53380528D01*
X111484866Y-53380524D01*
X111340409Y-53275570D01*
X111297743Y-53220240D01*
X111291764Y-53150627D01*
X111324370Y-53088832D01*
X111340402Y-53074939D01*
X111490410Y-52965953D01*
X111645953Y-52810410D01*
X111775249Y-52632449D01*
X111781190Y-52620788D01*
X111791170Y-52601204D01*
X111839145Y-52550408D01*
X111901654Y-52533500D01*
X112612500Y-52533500D01*
X112679539Y-52553185D01*
X112725294Y-52605989D01*
X112736500Y-52657500D01*
X112736500Y-65504834D01*
X112716815Y-65571873D01*
X112700181Y-65592515D01*
X111865467Y-66427229D01*
X109814181Y-68478514D01*
X109752858Y-68511999D01*
X109683166Y-68507015D01*
X109627233Y-68465143D01*
X109602816Y-68399679D01*
X109602500Y-68390833D01*
X109602500Y-68333608D01*
X109568089Y-68116350D01*
X109524960Y-67983615D01*
X109500114Y-67907146D01*
X109500112Y-67907143D01*
X109500112Y-67907141D01*
X109400248Y-67711150D01*
X109369918Y-67669404D01*
X109270953Y-67533190D01*
X109115410Y-67377647D01*
X108937449Y-67248351D01*
X108890912Y-67224639D01*
X108741458Y-67148487D01*
X108532249Y-67080510D01*
X108314991Y-67046100D01*
X108314986Y-67046100D01*
X108095014Y-67046100D01*
X108095009Y-67046100D01*
X107877750Y-67080510D01*
X107668541Y-67148487D01*
X107472550Y-67248351D01*
X107294587Y-67377649D01*
X107139049Y-67533187D01*
X107009751Y-67711150D01*
X106909887Y-67907141D01*
X106841910Y-68116350D01*
X106807500Y-68333608D01*
X106807500Y-68553591D01*
X106841910Y-68770849D01*
X106909887Y-68980058D01*
X107009751Y-69176049D01*
X107139047Y-69354010D01*
X107294590Y-69509553D01*
X107427276Y-69605955D01*
X107437361Y-69613282D01*
X107480026Y-69668612D01*
X107486005Y-69738225D01*
X107453399Y-69800020D01*
X107437361Y-69813918D01*
X107294587Y-69917649D01*
X107139049Y-70073187D01*
X107009751Y-70251150D01*
X106909887Y-70447141D01*
X106841910Y-70656350D01*
X106807500Y-70873608D01*
X106807500Y-71093591D01*
X106841910Y-71310849D01*
X106909887Y-71520058D01*
X106967101Y-71632345D01*
X107009751Y-71716049D01*
X107139047Y-71894010D01*
X107294590Y-72049553D01*
X107418349Y-72139469D01*
X107437361Y-72153282D01*
X107480026Y-72208612D01*
X107486005Y-72278225D01*
X107453399Y-72340020D01*
X107437361Y-72353918D01*
X107294587Y-72457649D01*
X107139049Y-72613187D01*
X107009751Y-72791150D01*
X106909887Y-72987141D01*
X106841910Y-73196350D01*
X106807500Y-73413608D01*
X106807500Y-73633591D01*
X106841910Y-73850849D01*
X106909887Y-74060058D01*
X107007183Y-74251009D01*
X107009751Y-74256049D01*
X107139047Y-74434010D01*
X107294590Y-74589553D01*
X107427276Y-74685955D01*
X107437361Y-74693282D01*
X107480026Y-74748612D01*
X107486005Y-74818225D01*
X107453399Y-74880020D01*
X107437361Y-74893918D01*
X107294587Y-74997649D01*
X107139049Y-75153187D01*
X107009751Y-75331150D01*
X106909887Y-75527141D01*
X106841910Y-75736350D01*
X106807500Y-75953608D01*
X106807500Y-76173591D01*
X106841910Y-76390849D01*
X106909887Y-76600058D01*
X106965322Y-76708853D01*
X107009751Y-76796049D01*
X107139047Y-76974010D01*
X107294590Y-77129553D01*
X107427276Y-77225955D01*
X107437361Y-77233282D01*
X107480026Y-77288612D01*
X107486005Y-77358225D01*
X107453399Y-77420020D01*
X107437361Y-77433918D01*
X107294587Y-77537649D01*
X107139049Y-77693187D01*
X107009751Y-77871150D01*
X106909887Y-78067141D01*
X106841910Y-78276350D01*
X106807500Y-78493608D01*
X106807500Y-78713591D01*
X106841910Y-78930849D01*
X106909887Y-79140058D01*
X107009751Y-79336049D01*
X107139047Y-79514010D01*
X107294590Y-79669553D01*
X107427276Y-79765955D01*
X107437361Y-79773282D01*
X107480026Y-79828612D01*
X107486005Y-79898225D01*
X107453399Y-79960020D01*
X107437361Y-79973918D01*
X107294587Y-80077649D01*
X107139049Y-80233187D01*
X107009751Y-80411150D01*
X106909887Y-80607141D01*
X106841910Y-80816350D01*
X106807500Y-81033608D01*
X106807500Y-81253591D01*
X106841910Y-81470849D01*
X106909887Y-81680058D01*
X107009751Y-81876049D01*
X107139047Y-82054010D01*
X107294590Y-82209553D01*
X107427276Y-82305955D01*
X107437361Y-82313282D01*
X107480026Y-82368612D01*
X107486005Y-82438225D01*
X107453399Y-82500020D01*
X107437361Y-82513918D01*
X107294587Y-82617649D01*
X107139049Y-82773187D01*
X107009751Y-82951150D01*
X106909887Y-83147141D01*
X106841910Y-83356350D01*
X106807500Y-83573608D01*
X106807500Y-83793591D01*
X106841910Y-84010849D01*
X106909887Y-84220058D01*
X107009751Y-84416049D01*
X107139047Y-84594010D01*
X107294590Y-84749553D01*
X107472551Y-84878849D01*
X107565148Y-84926030D01*
X107668541Y-84978712D01*
X107668543Y-84978712D01*
X107668546Y-84978714D01*
X107780685Y-85015150D01*
X107877750Y-85046689D01*
X108095009Y-85081100D01*
X108095014Y-85081100D01*
X108314991Y-85081100D01*
X108532249Y-85046689D01*
X108741454Y-84978714D01*
X108937449Y-84878849D01*
X109115410Y-84749553D01*
X109270953Y-84594010D01*
X109400249Y-84416049D01*
X109500114Y-84220054D01*
X109568089Y-84010849D01*
X109587232Y-83889986D01*
X109602500Y-83793591D01*
X109602500Y-83573608D01*
X109568089Y-83356350D01*
X109500112Y-83147141D01*
X109400248Y-82951150D01*
X109270953Y-82773190D01*
X109115410Y-82617647D01*
X109105322Y-82610318D01*
X108972639Y-82513918D01*
X108929973Y-82458588D01*
X108923994Y-82388975D01*
X108956600Y-82327180D01*
X108972639Y-82313282D01*
X108982724Y-82305955D01*
X109115410Y-82209553D01*
X109270953Y-82054010D01*
X109400249Y-81876049D01*
X109500114Y-81680054D01*
X109568089Y-81470849D01*
X109587232Y-81349986D01*
X109602500Y-81253591D01*
X109602500Y-81033608D01*
X109568089Y-80816350D01*
X109500112Y-80607141D01*
X109400248Y-80411150D01*
X109270953Y-80233190D01*
X109115410Y-80077647D01*
X109105322Y-80070318D01*
X108972639Y-79973918D01*
X108929973Y-79918588D01*
X108923994Y-79848975D01*
X108956600Y-79787180D01*
X108972639Y-79773282D01*
X108982724Y-79765955D01*
X109115410Y-79669553D01*
X109270953Y-79514010D01*
X109400249Y-79336049D01*
X109500114Y-79140054D01*
X109568089Y-78930849D01*
X109587232Y-78809986D01*
X109602500Y-78713591D01*
X109602500Y-78493608D01*
X109568089Y-78276350D01*
X109500112Y-78067141D01*
X109400248Y-77871150D01*
X109270953Y-77693190D01*
X109115410Y-77537647D01*
X109105322Y-77530318D01*
X108972639Y-77433918D01*
X108929973Y-77378588D01*
X108923994Y-77308975D01*
X108956600Y-77247180D01*
X108972639Y-77233282D01*
X108982724Y-77225955D01*
X109115410Y-77129553D01*
X109270953Y-76974010D01*
X109400249Y-76796049D01*
X109500114Y-76600054D01*
X109568089Y-76390849D01*
X109578600Y-76324485D01*
X109602500Y-76173591D01*
X109602500Y-75953608D01*
X109568089Y-75736350D01*
X109500112Y-75527141D01*
X109440387Y-75409925D01*
X109400249Y-75331151D01*
X109270953Y-75153190D01*
X109115410Y-74997647D01*
X109105322Y-74990318D01*
X108972639Y-74893918D01*
X108929973Y-74838588D01*
X108923994Y-74768975D01*
X108956600Y-74707180D01*
X108972639Y-74693282D01*
X108982724Y-74685955D01*
X109115410Y-74589553D01*
X109270953Y-74434010D01*
X109400249Y-74256049D01*
X109500114Y-74060054D01*
X109568089Y-73850849D01*
X109578600Y-73784485D01*
X109602500Y-73633591D01*
X109602500Y-73413608D01*
X109568089Y-73196350D01*
X109500112Y-72987141D01*
X109436994Y-72863267D01*
X109400249Y-72791151D01*
X109270953Y-72613190D01*
X109115410Y-72457647D01*
X109070132Y-72424751D01*
X108972639Y-72353918D01*
X108929973Y-72298588D01*
X108923994Y-72228975D01*
X108956600Y-72167180D01*
X108972639Y-72153282D01*
X108991651Y-72139469D01*
X109115410Y-72049553D01*
X109270953Y-71894010D01*
X109400249Y-71716049D01*
X109500114Y-71520054D01*
X109568089Y-71310849D01*
X109578600Y-71244485D01*
X109602500Y-71093591D01*
X109602500Y-70873608D01*
X109574590Y-70697398D01*
X109568089Y-70656351D01*
X109557251Y-70622998D01*
X109555257Y-70553158D01*
X109587500Y-70497002D01*
X111444820Y-68639682D01*
X111506142Y-68606199D01*
X111575834Y-68611183D01*
X111631767Y-68653055D01*
X111656184Y-68718519D01*
X111656500Y-68727365D01*
X111656500Y-75372398D01*
X111680843Y-75494777D01*
X111680845Y-75494785D01*
X111728598Y-75610072D01*
X111728603Y-75610081D01*
X111797928Y-75713832D01*
X111797931Y-75713836D01*
X111886163Y-75802068D01*
X111886167Y-75802071D01*
X111989918Y-75871396D01*
X111989924Y-75871399D01*
X111989925Y-75871400D01*
X112105215Y-75919155D01*
X112227601Y-75943499D01*
X112227605Y-75943500D01*
X112227606Y-75943500D01*
X112352394Y-75943500D01*
X117842500Y-75943500D01*
X117909539Y-75963185D01*
X117955294Y-76015989D01*
X117966500Y-76067500D01*
X117966500Y-86572500D01*
X117946815Y-86639539D01*
X117894011Y-86685294D01*
X117842500Y-86696500D01*
X109587601Y-86696500D01*
X109465222Y-86720843D01*
X109465214Y-86720845D01*
X109349927Y-86768598D01*
X109349918Y-86768603D01*
X109246167Y-86837928D01*
X109246163Y-86837931D01*
X93570831Y-102513263D01*
X93509508Y-102546748D01*
X93439816Y-102541764D01*
X93410264Y-102525900D01*
X93372005Y-102498103D01*
X93368132Y-102495730D01*
X93321254Y-102443920D01*
X93309829Y-102374991D01*
X93337483Y-102310827D01*
X93368132Y-102284270D01*
X93372005Y-102281896D01*
X93372004Y-102281896D01*
X93372009Y-102281894D01*
X93545004Y-102156206D01*
X93696206Y-102005004D01*
X93821894Y-101832009D01*
X93918972Y-101641483D01*
X93985049Y-101438116D01*
X94018500Y-101226916D01*
X94018500Y-101013084D01*
X93985049Y-100801884D01*
X93918972Y-100598517D01*
X93918972Y-100598516D01*
X93821893Y-100407990D01*
X93696206Y-100234996D01*
X93545004Y-100083794D01*
X93372009Y-99958106D01*
X93372005Y-99958103D01*
X93368132Y-99955730D01*
X93321254Y-99903920D01*
X93309829Y-99834991D01*
X93337483Y-99770827D01*
X93368132Y-99744270D01*
X93372005Y-99741896D01*
X93372004Y-99741896D01*
X93372009Y-99741894D01*
X93545004Y-99616206D01*
X93696206Y-99465004D01*
X93821894Y-99292009D01*
X93918972Y-99101483D01*
X93985049Y-98898116D01*
X94018500Y-98686916D01*
X94018500Y-98473084D01*
X93985049Y-98261884D01*
X93934776Y-98107157D01*
X93918973Y-98058519D01*
X93918972Y-98058516D01*
X93821893Y-97867990D01*
X93797768Y-97834785D01*
X93696206Y-97694996D01*
X93545004Y-97543794D01*
X93372009Y-97418106D01*
X93372005Y-97418103D01*
X93368132Y-97415730D01*
X93321254Y-97363920D01*
X93309829Y-97294991D01*
X93337483Y-97230827D01*
X93368132Y-97204270D01*
X93372005Y-97201896D01*
X93372004Y-97201896D01*
X93372009Y-97201894D01*
X93545004Y-97076206D01*
X93696206Y-96925004D01*
X93821894Y-96752009D01*
X93918972Y-96561483D01*
X93985049Y-96358116D01*
X94018500Y-96146916D01*
X94018500Y-95933084D01*
X93985049Y-95721884D01*
X93918972Y-95518517D01*
X93918972Y-95518516D01*
X93821893Y-95327990D01*
X93696206Y-95154996D01*
X93545004Y-95003794D01*
X93372009Y-94878106D01*
X93372005Y-94878103D01*
X93368132Y-94875730D01*
X93321254Y-94823920D01*
X93309829Y-94754991D01*
X93337483Y-94690827D01*
X93368132Y-94664270D01*
X93372005Y-94661896D01*
X93372004Y-94661896D01*
X93372009Y-94661894D01*
X93545004Y-94536206D01*
X93696206Y-94385004D01*
X93821894Y-94212009D01*
X93918972Y-94021483D01*
X93985049Y-93818116D01*
X94018500Y-93606916D01*
X94018500Y-93393084D01*
X93985049Y-93181884D01*
X93918972Y-92978517D01*
X93918972Y-92978516D01*
X93821893Y-92787990D01*
X93797768Y-92754785D01*
X93696206Y-92614996D01*
X93545004Y-92463794D01*
X93372009Y-92338106D01*
X93372005Y-92338103D01*
X93368132Y-92335730D01*
X93321254Y-92283920D01*
X93309829Y-92214991D01*
X93337483Y-92150827D01*
X93368132Y-92124270D01*
X93372005Y-92121896D01*
X93372004Y-92121896D01*
X93372009Y-92121894D01*
X93545004Y-91996206D01*
X93696206Y-91845004D01*
X93821894Y-91672009D01*
X93918972Y-91481483D01*
X93985049Y-91278116D01*
X94018500Y-91066916D01*
X94018500Y-90853084D01*
X93985049Y-90641884D01*
X93918972Y-90438517D01*
X93918972Y-90438516D01*
X93821893Y-90247990D01*
X93696206Y-90074996D01*
X93545004Y-89923794D01*
X93372009Y-89798106D01*
X93181483Y-89701027D01*
X93181480Y-89701026D01*
X92978117Y-89634951D01*
X92872516Y-89618225D01*
X92766916Y-89601500D01*
X92553084Y-89601500D01*
X92482684Y-89612650D01*
X92341882Y-89634951D01*
X92138519Y-89701026D01*
X92138516Y-89701027D01*
X91947990Y-89798106D01*
X91774993Y-89923796D01*
X91623796Y-90074993D01*
X91498106Y-90247990D01*
X91401027Y-90438516D01*
X91401026Y-90438519D01*
X91334951Y-90641882D01*
X91301500Y-90853084D01*
X91301500Y-91066915D01*
X91334951Y-91278117D01*
X91401026Y-91481480D01*
X91401027Y-91481483D01*
X91431430Y-91541151D01*
X91498106Y-91672009D01*
X91623794Y-91845004D01*
X91774996Y-91996206D01*
X91947991Y-92121894D01*
X91951873Y-92124273D01*
X91998748Y-92176086D01*
X92010169Y-92245016D01*
X91982512Y-92309178D01*
X91951873Y-92335727D01*
X91947991Y-92338105D01*
X91774993Y-92463796D01*
X91623796Y-92614993D01*
X91498106Y-92787990D01*
X91401027Y-92978516D01*
X91401026Y-92978519D01*
X91334951Y-93181882D01*
X91301500Y-93393084D01*
X91301500Y-93606915D01*
X91334951Y-93818117D01*
X91401026Y-94021480D01*
X91401027Y-94021483D01*
X91498106Y-94212009D01*
X91623794Y-94385004D01*
X91774996Y-94536206D01*
X91947991Y-94661894D01*
X91951873Y-94664273D01*
X91998748Y-94716086D01*
X92010169Y-94785016D01*
X91982512Y-94849178D01*
X91951873Y-94875727D01*
X91947991Y-94878105D01*
X91774993Y-95003796D01*
X91623796Y-95154993D01*
X91498106Y-95327990D01*
X91401027Y-95518516D01*
X91401026Y-95518519D01*
X91334951Y-95721882D01*
X91306913Y-95898910D01*
X91301500Y-95933084D01*
X91301500Y-96146916D01*
X91310070Y-96201026D01*
X91334951Y-96358117D01*
X91401026Y-96561480D01*
X91401027Y-96561483D01*
X91431430Y-96621151D01*
X91498106Y-96752009D01*
X91623794Y-96925004D01*
X91774996Y-97076206D01*
X91947991Y-97201894D01*
X91951873Y-97204273D01*
X91998748Y-97256086D01*
X92010169Y-97325016D01*
X91982512Y-97389178D01*
X91951873Y-97415727D01*
X91947991Y-97418105D01*
X91774993Y-97543796D01*
X91623796Y-97694993D01*
X91498106Y-97867990D01*
X91401027Y-98058516D01*
X91401026Y-98058519D01*
X91334951Y-98261882D01*
X91301500Y-98473084D01*
X91301500Y-98686915D01*
X91334951Y-98898117D01*
X91401026Y-99101480D01*
X91401027Y-99101483D01*
X91498106Y-99292009D01*
X91623794Y-99465004D01*
X91774996Y-99616206D01*
X91947991Y-99741894D01*
X91951873Y-99744273D01*
X91998748Y-99796086D01*
X92010169Y-99865016D01*
X91982512Y-99929178D01*
X91951873Y-99955727D01*
X91947991Y-99958105D01*
X91774993Y-100083796D01*
X91623796Y-100234993D01*
X91498106Y-100407990D01*
X91401027Y-100598516D01*
X91401026Y-100598519D01*
X91334951Y-100801882D01*
X91301500Y-101013084D01*
X91301500Y-101226915D01*
X91334951Y-101438117D01*
X91401026Y-101641480D01*
X91401027Y-101641483D01*
X91498106Y-101832009D01*
X91623794Y-102005004D01*
X91774996Y-102156206D01*
X91947991Y-102281894D01*
X91951873Y-102284273D01*
X91998748Y-102336086D01*
X92010169Y-102405016D01*
X91982512Y-102469178D01*
X91951873Y-102495727D01*
X91947991Y-102498105D01*
X91774993Y-102623796D01*
X91623796Y-102774993D01*
X91498106Y-102947990D01*
X91401027Y-103138516D01*
X91401026Y-103138519D01*
X91334951Y-103341882D01*
X91301500Y-103553084D01*
X91301500Y-103766915D01*
X91334951Y-103978117D01*
X91401026Y-104181480D01*
X91401027Y-104181483D01*
X91498106Y-104372009D01*
X91623794Y-104545004D01*
X91774996Y-104696206D01*
X91947991Y-104821894D01*
X91952680Y-104824283D01*
X92003478Y-104872254D01*
X92020276Y-104940074D01*
X91997742Y-105006210D01*
X91956205Y-105042209D01*
X91956590Y-105042838D01*
X91952804Y-105045157D01*
X91952702Y-105045246D01*
X91952449Y-105045374D01*
X91952440Y-105045380D01*
X91898282Y-105084727D01*
X91898282Y-105084728D01*
X92530591Y-105717037D01*
X92467007Y-105734075D01*
X92352993Y-105799901D01*
X92259901Y-105892993D01*
X92194075Y-106007007D01*
X92177037Y-106070591D01*
X91544728Y-105438282D01*
X91544727Y-105438282D01*
X91505380Y-105492439D01*
X91408904Y-105681782D01*
X91343242Y-105883869D01*
X91343242Y-105883872D01*
X91310000Y-106093753D01*
X91310000Y-106306246D01*
X91343242Y-106516127D01*
X91343242Y-106516130D01*
X91408904Y-106718217D01*
X91505375Y-106907550D01*
X91544728Y-106961716D01*
X92177037Y-106329408D01*
X92194075Y-106392993D01*
X92259901Y-106507007D01*
X92352993Y-106600099D01*
X92467007Y-106665925D01*
X92530591Y-106682962D01*
X91868371Y-107345181D01*
X91807048Y-107378666D01*
X91780690Y-107381500D01*
X91761345Y-107381500D01*
X91700797Y-107388011D01*
X91700795Y-107388011D01*
X91563795Y-107439111D01*
X91446739Y-107526739D01*
X91359111Y-107643795D01*
X91308011Y-107780795D01*
X91308011Y-107780797D01*
X91301500Y-107841345D01*
X91301500Y-109638654D01*
X91308011Y-109699202D01*
X91308011Y-109699204D01*
X91359111Y-109836204D01*
X91375569Y-109858189D01*
X91399986Y-109923653D01*
X91385135Y-109991926D01*
X91335729Y-110041332D01*
X91276302Y-110056500D01*
X90667500Y-110056500D01*
X90600461Y-110036815D01*
X90554706Y-109984011D01*
X90543500Y-109932500D01*
X90543500Y-76972365D01*
X90563185Y-76905326D01*
X90579814Y-76884689D01*
X91911137Y-75553365D01*
X91972460Y-75519881D01*
X92042152Y-75524865D01*
X92098085Y-75566737D01*
X92122502Y-75632201D01*
X92116749Y-75679365D01*
X92066911Y-75832746D01*
X92066911Y-75832749D01*
X92032500Y-76050008D01*
X92032500Y-76269991D01*
X92066910Y-76487249D01*
X92134887Y-76696458D01*
X92234751Y-76892449D01*
X92364047Y-77070410D01*
X92519590Y-77225953D01*
X92548807Y-77247180D01*
X92662361Y-77329682D01*
X92705026Y-77385012D01*
X92711005Y-77454625D01*
X92678399Y-77516420D01*
X92662361Y-77530318D01*
X92519587Y-77634049D01*
X92364049Y-77789587D01*
X92234751Y-77967550D01*
X92134887Y-78163541D01*
X92066910Y-78372750D01*
X92032500Y-78590008D01*
X92032500Y-78809991D01*
X92066910Y-79027249D01*
X92134887Y-79236458D01*
X92185632Y-79336049D01*
X92234751Y-79432449D01*
X92364047Y-79610410D01*
X92519590Y-79765953D01*
X92548807Y-79787180D01*
X92662361Y-79869682D01*
X92705026Y-79925012D01*
X92711005Y-79994625D01*
X92678399Y-80056420D01*
X92662361Y-80070318D01*
X92519587Y-80174049D01*
X92364049Y-80329587D01*
X92234751Y-80507550D01*
X92134887Y-80703541D01*
X92066910Y-80912750D01*
X92032500Y-81130008D01*
X92032500Y-81349991D01*
X92066910Y-81567249D01*
X92134887Y-81776458D01*
X92185632Y-81876049D01*
X92234751Y-81972449D01*
X92364047Y-82150410D01*
X92519590Y-82305953D01*
X92548807Y-82327180D01*
X92662361Y-82409682D01*
X92705026Y-82465012D01*
X92711005Y-82534625D01*
X92678399Y-82596420D01*
X92662361Y-82610318D01*
X92519587Y-82714049D01*
X92364049Y-82869587D01*
X92234751Y-83047550D01*
X92134887Y-83243541D01*
X92066910Y-83452750D01*
X92032500Y-83670008D01*
X92032500Y-83889991D01*
X92066910Y-84107249D01*
X92134887Y-84316458D01*
X92185632Y-84416049D01*
X92234751Y-84512449D01*
X92364047Y-84690410D01*
X92519590Y-84845953D01*
X92697551Y-84975249D01*
X92790148Y-85022430D01*
X92893541Y-85075112D01*
X92893543Y-85075112D01*
X92893546Y-85075114D01*
X93005685Y-85111550D01*
X93102750Y-85143089D01*
X93320009Y-85177500D01*
X93320014Y-85177500D01*
X93539991Y-85177500D01*
X93757249Y-85143089D01*
X93966454Y-85075114D01*
X94162449Y-84975249D01*
X94340410Y-84845953D01*
X94495953Y-84690410D01*
X94625249Y-84512449D01*
X94725114Y-84316454D01*
X94793089Y-84107249D01*
X94827500Y-83889991D01*
X94827500Y-83670008D01*
X94793089Y-83452750D01*
X94725112Y-83243541D01*
X94625248Y-83047550D01*
X94555210Y-82951151D01*
X94495953Y-82869590D01*
X94340410Y-82714047D01*
X94197638Y-82610317D01*
X94154973Y-82554988D01*
X94148994Y-82485375D01*
X94181600Y-82423580D01*
X94197639Y-82409682D01*
X94295132Y-82338849D01*
X94340410Y-82305953D01*
X94495953Y-82150410D01*
X94625249Y-81972449D01*
X94725114Y-81776454D01*
X94793089Y-81567249D01*
X94827500Y-81349991D01*
X94827500Y-81130008D01*
X94793089Y-80912750D01*
X94725112Y-80703541D01*
X94625248Y-80507550D01*
X94555210Y-80411151D01*
X94495953Y-80329590D01*
X94340410Y-80174047D01*
X94197638Y-80070317D01*
X94154973Y-80014988D01*
X94148994Y-79945375D01*
X94181600Y-79883580D01*
X94197639Y-79869682D01*
X94295132Y-79798849D01*
X94340410Y-79765953D01*
X94495953Y-79610410D01*
X94625249Y-79432449D01*
X94725114Y-79236454D01*
X94793089Y-79027249D01*
X94827500Y-78809991D01*
X94827500Y-78590008D01*
X94793089Y-78372750D01*
X94761550Y-78275685D01*
X94725114Y-78163546D01*
X94725112Y-78163543D01*
X94725112Y-78163541D01*
X94672430Y-78060148D01*
X94625249Y-77967551D01*
X94495953Y-77789590D01*
X94340410Y-77634047D01*
X94197638Y-77530317D01*
X94154973Y-77474988D01*
X94148994Y-77405375D01*
X94181600Y-77343580D01*
X94197639Y-77329682D01*
X94295132Y-77258849D01*
X94340410Y-77225953D01*
X94495953Y-77070410D01*
X94625249Y-76892449D01*
X94725114Y-76696454D01*
X94793089Y-76487249D01*
X94806241Y-76404213D01*
X94827500Y-76269991D01*
X94827500Y-76050008D01*
X94793089Y-75832750D01*
X94729482Y-75636989D01*
X94725114Y-75623546D01*
X94725112Y-75623543D01*
X94725112Y-75623541D01*
X94672294Y-75519881D01*
X94625249Y-75427551D01*
X94495953Y-75249590D01*
X94340410Y-75094047D01*
X94197638Y-74990317D01*
X94154973Y-74934988D01*
X94148994Y-74865375D01*
X94181600Y-74803580D01*
X94197639Y-74789682D01*
X94226140Y-74768975D01*
X94340410Y-74685953D01*
X94495953Y-74530410D01*
X94625249Y-74352449D01*
X94725114Y-74156454D01*
X94793089Y-73947249D01*
X94800975Y-73897457D01*
X94827500Y-73729991D01*
X94827500Y-73510008D01*
X94793089Y-73292750D01*
X94728317Y-73093404D01*
X94725114Y-73083546D01*
X94725112Y-73083543D01*
X94725112Y-73083541D01*
X94652085Y-72940219D01*
X94625249Y-72887551D01*
X94495953Y-72709590D01*
X94340410Y-72554047D01*
X94313314Y-72534361D01*
X94190409Y-72445065D01*
X94147743Y-72389735D01*
X94141764Y-72320122D01*
X94174370Y-72258327D01*
X94190409Y-72244428D01*
X94334873Y-72139469D01*
X94489471Y-71984871D01*
X94489475Y-71984866D01*
X94617976Y-71807998D01*
X94717237Y-71613191D01*
X94717238Y-71613188D01*
X94784798Y-71405258D01*
X94796718Y-71330000D01*
X93863012Y-71330000D01*
X93895925Y-71272993D01*
X93930000Y-71145826D01*
X93930000Y-71014174D01*
X93895925Y-70887007D01*
X93863012Y-70830000D01*
X94796718Y-70830000D01*
X94784798Y-70754741D01*
X94717238Y-70546811D01*
X94717237Y-70546808D01*
X94617976Y-70352001D01*
X94489475Y-70175133D01*
X94489471Y-70175128D01*
X94334871Y-70020528D01*
X94334866Y-70020524D01*
X94190409Y-69915570D01*
X94147743Y-69860240D01*
X94141764Y-69790627D01*
X94174370Y-69728832D01*
X94190402Y-69714939D01*
X94340410Y-69605953D01*
X94495953Y-69450410D01*
X94625249Y-69272449D01*
X94725114Y-69076454D01*
X94793089Y-68867249D01*
X94806241Y-68784213D01*
X94827500Y-68649991D01*
X94827500Y-68430008D01*
X94793089Y-68212750D01*
X94725112Y-68003541D01*
X94662717Y-67881085D01*
X94625249Y-67807551D01*
X94495953Y-67629590D01*
X94340410Y-67474047D01*
X94162449Y-67344751D01*
X93966458Y-67244887D01*
X93757249Y-67176910D01*
X93539991Y-67142500D01*
X93539986Y-67142500D01*
X93320014Y-67142500D01*
X93320009Y-67142500D01*
X93102750Y-67176910D01*
X92893541Y-67244887D01*
X92697550Y-67344751D01*
X92519587Y-67474049D01*
X92364049Y-67629587D01*
X92234751Y-67807550D01*
X92134887Y-68003541D01*
X92066910Y-68212750D01*
X92032500Y-68430008D01*
X92032500Y-68649991D01*
X92066910Y-68867249D01*
X92134887Y-69076458D01*
X92199011Y-69202306D01*
X92234751Y-69272449D01*
X92364047Y-69450410D01*
X92519590Y-69605953D01*
X92519593Y-69605955D01*
X92669590Y-69714934D01*
X92712256Y-69770264D01*
X92718235Y-69839877D01*
X92685629Y-69901672D01*
X92669591Y-69915570D01*
X92525128Y-70020528D01*
X92370528Y-70175128D01*
X92370524Y-70175133D01*
X92242023Y-70352001D01*
X92142762Y-70546808D01*
X92142761Y-70546811D01*
X92075201Y-70754741D01*
X92063282Y-70830000D01*
X92996988Y-70830000D01*
X92964075Y-70887007D01*
X92930000Y-71014174D01*
X92930000Y-71145826D01*
X92964075Y-71272993D01*
X92996988Y-71330000D01*
X92063282Y-71330000D01*
X92075201Y-71405258D01*
X92142761Y-71613188D01*
X92142762Y-71613191D01*
X92242023Y-71807998D01*
X92370524Y-71984866D01*
X92370528Y-71984871D01*
X92525128Y-72139471D01*
X92525133Y-72139475D01*
X92669590Y-72244429D01*
X92712256Y-72299759D01*
X92718235Y-72369372D01*
X92685630Y-72431167D01*
X92669590Y-72445065D01*
X92519590Y-72554047D01*
X92519588Y-72554049D01*
X92519587Y-72554049D01*
X92364049Y-72709587D01*
X92234751Y-72887550D01*
X92134887Y-73083541D01*
X92066910Y-73292750D01*
X92032500Y-73510008D01*
X92032500Y-73588833D01*
X92012815Y-73655872D01*
X91996180Y-73676514D01*
X89506167Y-76166529D01*
X89466196Y-76206500D01*
X89417927Y-76254768D01*
X89348603Y-76358518D01*
X89348598Y-76358527D01*
X89300845Y-76473814D01*
X89300843Y-76473822D01*
X89276500Y-76596201D01*
X87715500Y-76596201D01*
X87715500Y-59424038D01*
X95719500Y-59424038D01*
X95719500Y-59675961D01*
X95758910Y-59924785D01*
X95836760Y-60164383D01*
X95877523Y-60244383D01*
X95940156Y-60367308D01*
X95951132Y-60388848D01*
X96099201Y-60592649D01*
X96099205Y-60592654D01*
X96277345Y-60770794D01*
X96277350Y-60770798D01*
X96404965Y-60863515D01*
X96481155Y-60918870D01*
X96624184Y-60991747D01*
X96705616Y-61033239D01*
X96705618Y-61033239D01*
X96705621Y-61033241D01*
X96945215Y-61111090D01*
X97194038Y-61150500D01*
X97194039Y-61150500D01*
X97445961Y-61150500D01*
X97445962Y-61150500D01*
X97694785Y-61111090D01*
X97934379Y-61033241D01*
X98158845Y-60918870D01*
X98362656Y-60770793D01*
X98540793Y-60592656D01*
X98688870Y-60388845D01*
X98803241Y-60164379D01*
X98881090Y-59924785D01*
X98920500Y-59675962D01*
X98920500Y-59424038D01*
X98881090Y-59175215D01*
X98803241Y-58935621D01*
X98803239Y-58935618D01*
X98803239Y-58935616D01*
X98704086Y-58741019D01*
X98688870Y-58711155D01*
X98610823Y-58603732D01*
X98540798Y-58507350D01*
X98540794Y-58507345D01*
X98362654Y-58329205D01*
X98362649Y-58329201D01*
X98158848Y-58181132D01*
X98158847Y-58181131D01*
X98158845Y-58181130D01*
X98067419Y-58134546D01*
X97934383Y-58066760D01*
X97694785Y-57988910D01*
X97679342Y-57986464D01*
X97445962Y-57949500D01*
X97194038Y-57949500D01*
X97069626Y-57969205D01*
X96945214Y-57988910D01*
X96705616Y-58066760D01*
X96481151Y-58181132D01*
X96277350Y-58329201D01*
X96277345Y-58329205D01*
X96099205Y-58507345D01*
X96099201Y-58507350D01*
X95951132Y-58711151D01*
X95836760Y-58935616D01*
X95758910Y-59175214D01*
X95719500Y-59424038D01*
X87715500Y-59424038D01*
X87715500Y-39284038D01*
X95499500Y-39284038D01*
X95499500Y-39535962D01*
X95511557Y-39612086D01*
X95538910Y-39784785D01*
X95616760Y-40024383D01*
X95731132Y-40248848D01*
X95879201Y-40452649D01*
X95879205Y-40452654D01*
X96057345Y-40630794D01*
X96057350Y-40630798D01*
X96153618Y-40700740D01*
X96261155Y-40778870D01*
X96360693Y-40829587D01*
X96485616Y-40893239D01*
X96485618Y-40893239D01*
X96485621Y-40893241D01*
X96725215Y-40971090D01*
X96974038Y-41010500D01*
X96974039Y-41010500D01*
X97225961Y-41010500D01*
X97225962Y-41010500D01*
X97474785Y-40971090D01*
X97714379Y-40893241D01*
X97938845Y-40778870D01*
X98142656Y-40630793D01*
X98320793Y-40452656D01*
X98468870Y-40248845D01*
X98583241Y-40024379D01*
X98661090Y-39784785D01*
X98700500Y-39535962D01*
X98700500Y-39284038D01*
X98661090Y-39035215D01*
X98583241Y-38795621D01*
X98583239Y-38795618D01*
X98583239Y-38795616D01*
X98505830Y-38643694D01*
X98468870Y-38571155D01*
X98352334Y-38410756D01*
X98320798Y-38367350D01*
X98320794Y-38367345D01*
X98142654Y-38189205D01*
X98142649Y-38189201D01*
X97938848Y-38041132D01*
X97938847Y-38041131D01*
X97938845Y-38041130D01*
X97852910Y-37997344D01*
X97714383Y-37926760D01*
X97474785Y-37848910D01*
X97225962Y-37809500D01*
X96974038Y-37809500D01*
X96912789Y-37819201D01*
X96725214Y-37848910D01*
X96485616Y-37926760D01*
X96261151Y-38041132D01*
X96057350Y-38189201D01*
X96057345Y-38189205D01*
X95879205Y-38367345D01*
X95879201Y-38367350D01*
X95731132Y-38571151D01*
X95616760Y-38795616D01*
X95538910Y-39035214D01*
X95511509Y-39208215D01*
X95499500Y-39284038D01*
X87715500Y-39284038D01*
X87715500Y-33237019D01*
X165506500Y-33237019D01*
X165506500Y-33442980D01*
X165538719Y-33646408D01*
X165602367Y-33842294D01*
X165666115Y-33967404D01*
X165692285Y-34018766D01*
X165695873Y-34025806D01*
X165816926Y-34192423D01*
X165816930Y-34192428D01*
X165962571Y-34338069D01*
X165962576Y-34338073D01*
X166107908Y-34443661D01*
X166129197Y-34459129D01*
X166246128Y-34518709D01*
X166312705Y-34552632D01*
X166312707Y-34552632D01*
X166312710Y-34552634D01*
X166417707Y-34586749D01*
X166508591Y-34616280D01*
X166610305Y-34632390D01*
X166712019Y-34648500D01*
X166712020Y-34648500D01*
X166917980Y-34648500D01*
X166917981Y-34648500D01*
X167121408Y-34616280D01*
X167317290Y-34552634D01*
X167500803Y-34459129D01*
X167667430Y-34338068D01*
X167813068Y-34192430D01*
X167934129Y-34025803D01*
X168027634Y-33842290D01*
X168091280Y-33646408D01*
X168123500Y-33442981D01*
X168123500Y-33237019D01*
X168091280Y-33033592D01*
X168027634Y-32837710D01*
X168027632Y-32837707D01*
X168027632Y-32837705D01*
X167993709Y-32771128D01*
X167934129Y-32654197D01*
X167918661Y-32632908D01*
X167813073Y-32487576D01*
X167813069Y-32487571D01*
X167667428Y-32341930D01*
X167667423Y-32341926D01*
X167500806Y-32220873D01*
X167500805Y-32220872D01*
X167500803Y-32220871D01*
X167443496Y-32191671D01*
X167317294Y-32127367D01*
X167121408Y-32063719D01*
X166945794Y-32035905D01*
X166917981Y-32031500D01*
X166712019Y-32031500D01*
X166687550Y-32035375D01*
X166508591Y-32063719D01*
X166312705Y-32127367D01*
X166129193Y-32220873D01*
X165962576Y-32341926D01*
X165962571Y-32341930D01*
X165816930Y-32487571D01*
X165816926Y-32487576D01*
X165695873Y-32654193D01*
X165602367Y-32837705D01*
X165538719Y-33033591D01*
X165506500Y-33237019D01*
X87715500Y-33237019D01*
X87715500Y-28092155D01*
X158710000Y-28092155D01*
X158710000Y-28790000D01*
X159734722Y-28790000D01*
X159690667Y-28866306D01*
X159660000Y-28980756D01*
X159660000Y-29099244D01*
X159690667Y-29213694D01*
X159734722Y-29290000D01*
X158710000Y-29290000D01*
X158710000Y-29987844D01*
X158716401Y-30047372D01*
X158716403Y-30047379D01*
X158766645Y-30182086D01*
X158766649Y-30182093D01*
X158852809Y-30297187D01*
X158852812Y-30297190D01*
X158967906Y-30383350D01*
X158967913Y-30383354D01*
X159102620Y-30433596D01*
X159102627Y-30433598D01*
X159162155Y-30439999D01*
X159162172Y-30440000D01*
X159860000Y-30440000D01*
X159860000Y-29415277D01*
X159936306Y-29459333D01*
X160050756Y-29490000D01*
X160169244Y-29490000D01*
X160283694Y-29459333D01*
X160360000Y-29415277D01*
X160360000Y-30440000D01*
X161057828Y-30440000D01*
X161057844Y-30439999D01*
X161117372Y-30433598D01*
X161117379Y-30433596D01*
X161252086Y-30383354D01*
X161252093Y-30383350D01*
X161367187Y-30297190D01*
X161367190Y-30297187D01*
X161453350Y-30182093D01*
X161453354Y-30182086D01*
X161480140Y-30110270D01*
X161522011Y-30054336D01*
X161587475Y-30029919D01*
X161655748Y-30044770D01*
X161684003Y-30065922D01*
X161732424Y-30114343D01*
X161911785Y-30244657D01*
X161996984Y-30288068D01*
X162109319Y-30345306D01*
X162109321Y-30345306D01*
X162109324Y-30345308D01*
X162320176Y-30413818D01*
X162539149Y-30448500D01*
X162539150Y-30448500D01*
X162760850Y-30448500D01*
X162760851Y-30448500D01*
X162979824Y-30413818D01*
X163190676Y-30345308D01*
X163388215Y-30244657D01*
X163567576Y-30114343D01*
X163724343Y-29957576D01*
X163854657Y-29778215D01*
X163955308Y-29580676D01*
X164023818Y-29369824D01*
X164058500Y-29150851D01*
X164058500Y-28929149D01*
X164023818Y-28710176D01*
X163955308Y-28499324D01*
X163955306Y-28499321D01*
X163955306Y-28499319D01*
X163854656Y-28301784D01*
X163847494Y-28291926D01*
X163724343Y-28122424D01*
X163567576Y-27965657D01*
X163388215Y-27835343D01*
X163190680Y-27734693D01*
X162979824Y-27666182D01*
X162760851Y-27631500D01*
X162539149Y-27631500D01*
X162429662Y-27648841D01*
X162320175Y-27666182D01*
X162109319Y-27734693D01*
X161911784Y-27835343D01*
X161825675Y-27897906D01*
X161732424Y-27965657D01*
X161732422Y-27965659D01*
X161732420Y-27965660D01*
X161684002Y-28014078D01*
X161622679Y-28047562D01*
X161552987Y-28042577D01*
X161497054Y-28000705D01*
X161480140Y-27969729D01*
X161453354Y-27897913D01*
X161453350Y-27897906D01*
X161367190Y-27782812D01*
X161367187Y-27782809D01*
X161252093Y-27696649D01*
X161252086Y-27696645D01*
X161117379Y-27646403D01*
X161117372Y-27646401D01*
X161057844Y-27640000D01*
X160360000Y-27640000D01*
X160360000Y-28664722D01*
X160283694Y-28620667D01*
X160169244Y-28590000D01*
X160050756Y-28590000D01*
X159936306Y-28620667D01*
X159860000Y-28664722D01*
X159860000Y-27640000D01*
X159162155Y-27640000D01*
X159102627Y-27646401D01*
X159102620Y-27646403D01*
X158967913Y-27696645D01*
X158967906Y-27696649D01*
X158852812Y-27782809D01*
X158852809Y-27782812D01*
X158766649Y-27897906D01*
X158766645Y-27897913D01*
X158716403Y-28032620D01*
X158716401Y-28032627D01*
X158710000Y-28092155D01*
X87715500Y-28092155D01*
X87715500Y-23309500D01*
X87735185Y-23242461D01*
X87787989Y-23196706D01*
X87839500Y-23185500D01*
X177680500Y-23185500D01*
X177747539Y-23205185D01*
G37*
%TD.AperFunction*%
%TD*%
M02*
