%TF.GenerationSoftware,KiCad,Pcbnew,10.0.3*%
%TF.CreationDate,2026-06-28T22:02:17-04:00*%
%TF.ProjectId,shield,73686965-6c64-42e6-9b69-6361645f7063,rev?*%
%TF.SameCoordinates,Original*%
%TF.FileFunction,Soldermask,Top*%
%TF.FilePolarity,Negative*%
%FSLAX46Y46*%
G04 Gerber Fmt 4.6, Leading zero omitted, Abs format (unit mm)*
G04 Created by KiCad (PCBNEW 10.0.3) date 2026-06-28 22:02:17*
%MOMM*%
%LPD*%
G01*
G04 APERTURE LIST*
G04 Aperture macros list*
%AMRoundRect*
0 Rectangle with rounded corners*
0 $1 Rounding radius*
0 $2 $3 $4 $5 $6 $7 $8 $9 X,Y pos of 4 corners*
0 Add a 4 corners polygon primitive as box body*
4,1,4,$2,$3,$4,$5,$6,$7,$8,$9,$2,$3,0*
0 Add four circle primitives for the rounded corners*
1,1,$1+$1,$2,$3*
1,1,$1+$1,$4,$5*
1,1,$1+$1,$6,$7*
1,1,$1+$1,$8,$9*
0 Add four rect primitives between the rounded corners*
20,1,$1+$1,$2,$3,$4,$5,0*
20,1,$1+$1,$4,$5,$6,$7,0*
20,1,$1+$1,$6,$7,$8,$9,0*
20,1,$1+$1,$8,$9,$2,$3,0*%
G04 Aperture macros list end*
%ADD10R,1.700000X1.700000*%
%ADD11O,1.700000X1.700000*%
%ADD12C,2.000000*%
%ADD13C,1.700000*%
%ADD14C,1.600000*%
%ADD15C,1.712000*%
%ADD16C,3.200000*%
%ADD17RoundRect,0.102000X-0.754000X-0.754000X0.754000X-0.754000X0.754000X0.754000X-0.754000X0.754000X0*%
%ADD18C,3.420000*%
%ADD19RoundRect,0.250000X-0.250000X-0.475000X0.250000X-0.475000X0.250000X0.475000X-0.250000X0.475000X0*%
%ADD20R,1.800000X1.800000*%
%ADD21C,1.800000*%
%ADD22C,1.879600*%
G04 APERTURE END LIST*
D10*
%TO.C,J1*%
X127940000Y-97460000D03*
D11*
X130480000Y-97460000D03*
X133020000Y-97460000D03*
X135560000Y-97460000D03*
X138100000Y-97460000D03*
X140640000Y-97460000D03*
X143180000Y-97460000D03*
X145720000Y-97460000D03*
%TD*%
D10*
%TO.C,J3*%
X150800000Y-97460000D03*
D11*
X153340000Y-97460000D03*
X155880000Y-97460000D03*
X158420000Y-97460000D03*
X160960000Y-97460000D03*
X163500000Y-97460000D03*
%TD*%
D10*
%TO.C,J2*%
X118796000Y-49200000D03*
D11*
X121336000Y-49200000D03*
X123876000Y-49200000D03*
X126416000Y-49200000D03*
X128956000Y-49200000D03*
X131496000Y-49200000D03*
X134036000Y-49200000D03*
X136576000Y-49200000D03*
X139116000Y-49200000D03*
X141656000Y-49200000D03*
%TD*%
D10*
%TO.C,J4*%
X145720000Y-49200000D03*
D11*
X148260000Y-49200000D03*
X150800000Y-49200000D03*
X153340000Y-49200000D03*
X155880000Y-49200000D03*
X158420000Y-49200000D03*
X160960000Y-49200000D03*
X163500000Y-49200000D03*
%TD*%
D12*
%TO.C,SW1*%
X168100000Y-37980000D03*
X174600000Y-37980000D03*
X168100000Y-42480000D03*
X174600000Y-42480000D03*
%TD*%
D10*
%TO.C,MCP1*%
X92660000Y-108740000D03*
D13*
X92660000Y-106200000D03*
X92660000Y-103660000D03*
X92660000Y-101120000D03*
X92660000Y-98580000D03*
X92660000Y-96040000D03*
X92660000Y-93500000D03*
X92660000Y-90960000D03*
%TD*%
D14*
%TO.C,R2*%
X166815000Y-33340000D03*
X174435000Y-33340000D03*
%TD*%
D15*
%TO.C,LoRA1*%
X135795000Y-77484000D03*
X135795000Y-74944000D03*
X135795000Y-72404000D03*
X135795000Y-69864000D03*
X135795000Y-67324000D03*
X161195000Y-77484000D03*
X161195000Y-74944000D03*
X161195000Y-72404000D03*
X161195000Y-69864000D03*
X161195000Y-67324000D03*
X161195000Y-64784000D03*
X161195000Y-62244000D03*
X161195000Y-59704000D03*
X161195000Y-57164000D03*
%TD*%
D16*
%TO.C,*%
X110080000Y-59630000D03*
%TD*%
%TO.C,*%
X97320000Y-59550000D03*
%TD*%
D17*
%TO.C,BMP1*%
X115620000Y-72435000D03*
D15*
X118160000Y-72435000D03*
X120700000Y-72435000D03*
X123240000Y-72435000D03*
X125780000Y-72435000D03*
X128320000Y-72435000D03*
X130860000Y-72435000D03*
D18*
X116890000Y-58465000D03*
X129590000Y-58465000D03*
%TD*%
D16*
%TO.C,MH1*%
X115240000Y-49200000D03*
%TD*%
D19*
%TO.C,C1*%
X166420000Y-70950000D03*
X168320000Y-70950000D03*
%TD*%
D20*
%TO.C,D2*%
X160110000Y-29040000D03*
D21*
X162650000Y-29040000D03*
%TD*%
D16*
%TO.C,*%
X97100000Y-39410000D03*
%TD*%
D22*
%TO.C,AS7343*%
X110580000Y-56980000D03*
X110580000Y-54440000D03*
X110580000Y-51900000D03*
X110580000Y-49360000D03*
X110580000Y-46820000D03*
X110580000Y-44280000D03*
X110580000Y-41740000D03*
%TD*%
D20*
%TO.C,d1*%
X160225000Y-38470000D03*
D21*
X162765000Y-38470000D03*
%TD*%
D14*
%TO.C,R1*%
X166815000Y-29290000D03*
X174435000Y-29290000D03*
%TD*%
D16*
%TO.C,MH2*%
X113970000Y-97460000D03*
%TD*%
%TO.C,*%
X110160000Y-39040000D03*
%TD*%
%TO.C,MH3*%
X166040000Y-64440000D03*
%TD*%
%TO.C,MH4*%
X166040000Y-92380000D03*
%TD*%
D22*
%TO.C,BFF1*%
X93430000Y-68540000D03*
X93430000Y-71080000D03*
X93430000Y-73620000D03*
X93430000Y-76160000D03*
X93430000Y-78700000D03*
X93430000Y-81240000D03*
X93430000Y-83780000D03*
X108205000Y-68443600D03*
X108205000Y-70983600D03*
X108205000Y-73523600D03*
X108205000Y-76063600D03*
X108205000Y-78603600D03*
X108205000Y-81143600D03*
X108205000Y-83683600D03*
%TD*%
M02*
