M48
; DRILL file KiCad 10.0.3 date 2026-06-28T22:02:46
; FORMAT={-:-/ absolute / metric / decimal}
; #@! TF.CreationDate,2026-06-28T22:02:46-04:00
; #@! TF.GenerationSoftware,Kicad,Pcbnew,10.0.3
; #@! TF.FileFunction,Plated,1,2,PTH
FMAT,2
METRIC
; #@! TA.AperFunction,Plated,PTH,ViaDrill
T1C0.400
; #@! TA.AperFunction,Plated,PTH,ComponentDrill
T2C0.800
; #@! TA.AperFunction,Plated,PTH,ComponentDrill
T3C0.900
; #@! TA.AperFunction,Plated,PTH,ComponentDrill
T4C1.000
; #@! TA.AperFunction,Plated,PTH,ComponentDrill
T5C1.100
; #@! TA.AperFunction,Plated,PTH,ComponentDrill
T6C2.200
%
G90
G05
T1
X161.82Y-53.15
T2
X166.815Y-29.29
X166.815Y-33.34
X174.435Y-29.29
X174.435Y-33.34
T3
X160.11Y-29.04
X160.225Y-38.47
X162.65Y-29.04
X162.765Y-38.47
T4
X92.66Y-90.96
X92.66Y-93.5
X92.66Y-96.04
X92.66Y-98.58
X92.66Y-101.12
X92.66Y-103.66
X92.66Y-106.2
X92.66Y-108.74
X93.43Y-68.54
X93.43Y-71.08
X93.43Y-73.62
X93.43Y-76.16
X93.43Y-78.7
X93.43Y-81.24
X93.43Y-83.78
X108.205Y-68.444
X108.205Y-70.984
X108.205Y-73.524
X108.205Y-76.064
X108.205Y-78.604
X108.205Y-81.144
X108.205Y-83.684
X110.58Y-41.74
X110.58Y-44.28
X110.58Y-46.82
X110.58Y-49.36
X110.58Y-51.9
X110.58Y-54.44
X110.58Y-56.98
X115.62Y-72.435
X118.16Y-72.435
X118.796Y-49.2
X120.7Y-72.435
X121.336Y-49.2
X123.24Y-72.435
X123.876Y-49.2
X125.78Y-72.435
X126.416Y-49.2
X127.94Y-97.46
X128.32Y-72.435
X128.956Y-49.2
X130.48Y-97.46
X130.86Y-72.435
X131.496Y-49.2
X133.02Y-97.46
X134.036Y-49.2
X135.56Y-97.46
X135.795Y-67.324
X135.795Y-69.864
X135.795Y-72.404
X135.795Y-74.944
X135.795Y-77.484
X136.576Y-49.2
X138.1Y-97.46
X139.116Y-49.2
X140.64Y-97.46
X141.656Y-49.2
X143.18Y-97.46
X145.72Y-49.2
X145.72Y-97.46
X148.26Y-49.2
X150.8Y-49.2
X150.8Y-97.46
X153.34Y-49.2
X153.34Y-97.46
X155.88Y-49.2
X155.88Y-97.46
X158.42Y-49.2
X158.42Y-97.46
X160.96Y-49.2
X160.96Y-97.46
X161.195Y-57.164
X161.195Y-59.704
X161.195Y-62.244
X161.195Y-64.784
X161.195Y-67.324
X161.195Y-69.864
X161.195Y-72.404
X161.195Y-74.944
X161.195Y-77.484
X163.5Y-49.2
X163.5Y-97.46
T5
X168.1Y-37.98
X168.1Y-42.48
X174.6Y-37.98
X174.6Y-42.48
T6
X116.89Y-58.465
X129.59Y-58.465
M30
